<?xml version="1.0" standalone="no"?>
<!DOCTYPE svg PUBLIC "-//W3C//DTD SVG 1.1//EN" "http://www.w3.org/Graphics/SVG/1.1/DTD/svg11.dtd" >
<svg xmlns="http://www.w3.org/2000/svg" width="100%" height="100%">
<metadata>
Created by FontXChange 20110222 at Fri Apr 27 22:24:59 2018
 By jasecoop
The digitally encoded machine readable outline data for producing the Typefaces licensed to you is copyrighted (C), 1998 by and the property of Heidelberger Druckmaschinen AG and/or its subsidiaries. All rights reserved.
</metadata>
<defs>
<font id="AkzidenzGroteskCERoman" horiz-adv-x="556" >
  <font-face 
    font-family="AkzidenzGroteskCERoman"
    font-weight="400"
    font-stretch="normal"
    units-per-em="1000"
    panose-1="0 0 4 0 0 0 0 0 0 0"
    ascent="800"
    descent="-200"
    x-height="478"
    cap-height="712"
    bbox="-166 -274 1131 1002"
    underline-thickness="50"
    underline-position="-75"
    unicode-range="U+0020-F002"
  />
<missing-glyph horiz-adv-x="500" 
d="M63 0v938h375v-938h-375zM125 63h250v813h-250v-813z" />
    <glyph glyph-name="adieresis" unicode="fi" horiz-adv-x="500" 
d="M434 -4zM181 -12zM343 178v55q-105 -14 -137 -24q-90 -27 -90 -84q0 -73 92 -73q59 0 97 34t38 92zM343 287v42q0 55 -30 77q-25 20 -82 20q-93 0 -98 -98l-82 5q16 157 181 157q193 0 193 -148v-222q0 -54 35 -54q12 0 25 5v-68q-28 -7 -51 -7q-67 0 -83 66
q-67 -74 -170 -74q-60 0 -105 35q-48 38 -48 97q0 103 115 140q57 19 200 27zM126 586v100h88v-100h-88zM286 586v100h88v-100h-88z" />
    <glyph glyph-name="lacute" unicode="fl" horiz-adv-x="204" 
d="M61 0v712h82v-712h-82zM41 790l89 141h108l-130 -141h-67z" />
    <glyph glyph-name=".notdef" horiz-adv-x="500" 
d="M63 0v938h375v-938h-375zM125 63h250v813h-250v-813z" />
    <glyph glyph-name=".null" horiz-adv-x="0" 
 />
    <glyph glyph-name="glyph2" horiz-adv-x="278" 
 />
    <glyph glyph-name="space" unicode=" " horiz-adv-x="278" 
 />
    <glyph glyph-name="exclam" unicode="!" horiz-adv-x="296" 
d="M132 147l-25 270v295h82v-295l-25 -270h-32zM104 0v94h88v-94h-88z" />
    <glyph glyph-name="quotedbl" unicode="&#x22;" horiz-adv-x="389" 
d="M100 444v268h64v-268h-64zM225 444v268h64v-268h-64z" />
    <glyph glyph-name="numbersign" unicode="#" 
d="M291 0l31 213h-124l-31 -213h-68l31 213h-102v58h110l20 138h-102v58h110l31 213h68l-31 -213h124l31 213h68l-31 -213h102v-58h-110l-20 -138h102v-58h-110l-31 -213h-68zM330 271l20 138h-124l-20 -138h124z" />
    <glyph glyph-name="dollar" unicode="$" 
d="M318 290v-220q54 2 92.5 30.5t38.5 78.5q0 43 -46 74q-26 16 -85 37zM254 -123v117q-90 3 -156 52.5t-85 135.5l93 18q15 -56 53 -90q40 -37 95 -40v239q-96 34 -137 71q-58 51 -58 136q0 70 63 120q59 47 132 50v106h64v-106q76 -3 132 -44q61 -44 72 -117l-90 -7
q-28 86 -114 92v-218l39 -16q94 -39 130 -68q56 -47 56 -120q0 -97 -65 -148q-58 -44 -157 -46v-117h-67zM254 413v197q-42 -2 -70 -26q-31 -25 -31 -66t32 -68q21 -17 69 -37z" />
    <glyph glyph-name="percent" unicode="%" horiz-adv-x="1000" 
d="M182 508q0 -50 20 -80q23 -34 67 -34t67 34q20 30 20 80q0 49 -20 80q-23 34 -67 34t-65.5 -32.5t-21.5 -81.5zM106 508q0 81 45.5 129.5t117.5 48.5t117.5 -48.5t45.5 -129.5t-45.5 -129.5t-117.5 -48.5t-117.5 48.5t-45.5 129.5zM568 172q0 81 45.5 129.5t117.5 48.5
t117.5 -48.5t45.5 -129.5t-45.5 -129.5t-117.5 -48.5t-117.5 48.5t-45.5 129.5zM644 172q0 -50 20 -80q23 -34 67 -34t67 34q20 30 20 80q0 49 -20 80q-23 34 -67 34t-65.5 -32.5t-21.5 -81.5zM250 -32l430 744h69l-430 -744h-69z" />
    <glyph glyph-name="ampersand" unicode="&#x26;" horiz-adv-x="648" 
d="M326 381l104 -180q38 75 50 132h78q-16 -94 -81 -197q39 -54 96 -54q20 0 30 2v-84q-13 -6 -43 -6q-75 0 -141 74q-81 -74 -175 -74q-84 0 -140 54q-59 56 -59 145q0 75 50 136q45 54 119 86q-35 63 -35 126q0 77 43 124t118 47q62 0 104 -39.5t42 -101.5
q0 -119 -160 -190zM370 128l-125 216q-112 -46 -112 -147q0 -52 35 -89.5t85 -37.5q64 0 117 58zM261 569q0 -40 33 -118q110 49 110 133q0 29 -18 46.5t-47 17.5q-35 0 -56.5 -22t-21.5 -57z" />
    <glyph glyph-name="quotesingle" unicode="'" horiz-adv-x="278" 
d="M107 444v268h64v-268h-64z" />
    <glyph glyph-name="parenleft" unicode="(" horiz-adv-x="315" 
d="M300 -172h-66q-148 235 -148 453q0 216 149 449h66q-59 -96 -95 -216q-38 -125 -38 -232q0 -230 132 -454z" />
    <glyph glyph-name="parenright" unicode=")" horiz-adv-x="315" 
d="M15 730h66q148 -235 148 -453q0 -216 -149 -449h-66q59 96 95 216q38 125 38 232q0 230 -132 454z" />
    <glyph glyph-name="asterisk" unicode="*" horiz-adv-x="389" 
d="M128 394l-51 36l73 100l-120 35l20 61l114 -36v122h64v-123l112 40l19 -63l-114 -37l73 -91l-49 -43l-71 96z" />
    <glyph glyph-name="plus" unicode="+" horiz-adv-x="600" 
d="M265 0v218h-218v70h218v218h70v-218h218v-70h-218v-218h-70z" />
    <glyph glyph-name="comma" unicode="," horiz-adv-x="278" 
d="M88 0v113h102v-113q0 -24 -9 -69q-12 -52 -28 -86h-47q24 73 24 155h-42z" />
    <glyph glyph-name="hyphen" unicode="-" horiz-adv-x="296" 
d="M46 213v82h204v-82h-204z" />
    <glyph glyph-name="hyphen" unicode="&#x2010;" horiz-adv-x="296" 
d="M46 213v82h204v-82h-204z" />
    <glyph glyph-name="period" unicode="." horiz-adv-x="278" 
d="M88 0v113h102v-113h-102z" />
    <glyph glyph-name="slash" unicode="/" horiz-adv-x="333" 
d="M13 -18l234 748h73l-234 -748h-73z" />
    <glyph glyph-name="zero" unicode="0" 
d="M125 340q0 -144 51 -211q40 -53 102 -53t102 53q51 67 51 211t-51 212q-40 52 -102 52t-102 -52q-51 -68 -51 -212zM31 340q0 137 55 232q67 114 192 114t192 -114q55 -95 55 -232t-55 -231q-67 -115 -192 -115t-192 115q-55 94 -55 231z" />
    <glyph glyph-name="one" unicode="1" 
d="M271 0v495h-145v64q80 3 116 24q45 26 58 97h65v-680h-94z" />
    <glyph glyph-name="two" unicode="2" 
d="M68 0v89q121 64 217 159q125 123 125 229q0 127 -131 127q-62 0 -95 -40q-28 -34 -28 -86q0 -33 9 -85h-88q-9 41 -9 77q0 93 53 152q58 64 164 64q98 0 158.5 -59.5t60.5 -157.5q0 -191 -313 -386v1l-1 -2h321v-82h-443z" />
    <glyph glyph-name="three" unicode="3" 
d="M214 309v80q13 0 38 -1t37 -1q37 0 68 15q53 27 53 89q0 119 -129 119q-68 0 -104 -50q-30 -42 -33 -110l-88 5q6 231 227 231q109 0 170 -63q51 -53 51 -129q0 -45 -19 -83q-23 -43 -62 -57q47 -21 73.5 -64.5t26.5 -95.5q0 -75 -43 -126q-62 -74 -199 -74
q-115 0 -179 57q-68 60 -69 174h88q4 -80 42.5 -114.5t118.5 -34.5q63 0 102 26q45 30 45 89q0 70 -45 98q-35 22 -108 22q-41 0 -62 -2z" />
    <glyph glyph-name="four" unicode="4" 
d="M338 0v163h-301v82l323 435h72v-435h95v-82h-95v-163h-94zM338 245v290h-2l-211 -290h213z" />
    <glyph glyph-name="five" unicode="5" 
d="M474 680v-82h-317l-11 -176h2q43 56 148 56q109 0 170 -76q53 -67 53 -168q0 -104 -65 -172t-168 -68q-151 0 -214 106q-35 57 -35 113l94 5q1 -53 27 -89q38 -53 123 -53q70 0 110 53q34 44 34 105q0 89 -48 134q-37 34 -87 34q-93 0 -140 -92l-86 6l23 364h387z" />
    <glyph glyph-name="six" unicode="6" 
d="M499 507l-88 -10q-8 52 -40.5 82.5t-77.5 30.5q-153 0 -164 -244h2q14 27 49 50q50 32 116 32q97 0 158 -60t61 -157q0 -91 -51 -156q-64 -81 -187 -81q-86 0 -148 62q-88 87 -88 275q0 145 49 236q64 119 201 119q167 0 208 -179zM143 221q0 -64 40.5 -104.5
t101.5 -40.5q62 0 102 40.5t40 104.5q0 65 -40 105t-102 40q-61 0 -101.5 -40t-40.5 -105z" />
    <glyph glyph-name="seven" unicode="7" 
d="M77 471v209h416v-85q0 -48 -53 -140q-78 -135 -115 -219q-53 -122 -71 -236h-108q40 210 223 488q48 73 48 110h-270v-127h-70z" />
    <glyph glyph-name="eight" unicode="8" 
d="M36 200q0 107 91 165q-73 40 -73 137q0 68 38 115q56 69 186 69t186 -69q38 -47 38 -115q0 -97 -73 -137q91 -58 91 -165q0 -78 -52 -135q-65 -71 -190 -71t-190 71q-52 57 -52 135zM130 205q0 -129 148 -129t148 129q0 45 -27 75q-39 42 -121 42t-120 -42
q-28 -30 -28 -75zM142 501q0 -45 35 -74t101 -29t101 29t35 74t-35 74t-101 29t-101 -29t-35 -74z" />
    <glyph glyph-name="nine" unicode="9" 
d="M129 452q0 -81 47 -120q37 -31 99 -31q60 0 99 34q47 40 47 117q0 58 -33 100q-40 52 -113 52t-113 -52q-33 -42 -33 -100zM60 166l85 17q27 -113 122 -113q84 0 127 78q34 62 35 153l-1 2q-67 -84 -177 -84q-80 0 -140 55q-70 64 -70 176q0 102 69 170q66 66 159 66
q246 0 246 -339q0 -136 -44 -226q-63 -127 -201 -127q-165 0 -210 172z" />
    <glyph glyph-name="colon" unicode=":" horiz-adv-x="278" 
d="M190 113v-113h-102v113h102zM190 377h-102v113h102v-113z" />
    <glyph glyph-name="semicolon" unicode=";" horiz-adv-x="278" 
d="M88 0v113h102v-113q0 -24 -9 -69q-12 -52 -28 -86h-47q24 73 24 155h-42zM88 377v113h102v-113h-102z" />
    <glyph glyph-name="less" unicode="&#x3c;" horiz-adv-x="600" 
d="M553 514v-74l-417 -187l417 -187v-74l-506 232v58z" />
    <glyph glyph-name="equal" unicode="=" horiz-adv-x="600" 
d="M47 317v70h506v-70h-506zM47 119v70h506v-70h-506z" />
    <glyph glyph-name="greater" unicode="&#x3e;" horiz-adv-x="600" 
d="M47 -8v74l417 187l-417 187v74l506 -232v-58z" />
    <glyph glyph-name="question" unicode="?" horiz-adv-x="574" 
d="M242 154v238h37q155 0 155 130q0 51 -42.5 88.5t-96.5 37.5q-146 0 -149 -166h-88q-1 108 63 175t165 67q99 0 162 -55q68 -58 68 -160q0 -86 -53 -140t-139 -59v-156h-82zM239 0v94h88v-94h-88z" />
    <glyph glyph-name="at" unicode="@" horiz-adv-x="800" 
d="M263 291q0 -95 80 -95q65 0 117 79q47 73 47 145q0 39 -21 65t-61 26q-66 0 -116 -75q-46 -70 -46 -145zM540 492l19 64h62l-87 -290q-12 -40 -12 -51q0 -19 25 -19q53 0 99 72t46 151q0 112 -84 184q-79 69 -191 69q-130 0 -219.5 -94t-89.5 -222q0 -134 91 -225
t221 -91q76 0 145.5 32t112.5 91h58q-47 -84 -133 -132.5t-183 -48.5q-166 0 -271 106.5t-105 267.5q0 158 109 266t262 108q143 0 241 -87q100 -90 100 -223q0 -117 -79 -205q-73 -83 -154 -83q-62 0 -65 67h-2q-63 -67 -129 -67q-62 0 -101 44t-39 109q0 110 66 197
q71 93 174 93q79 0 111 -83h2z" />
    <glyph glyph-name="A" unicode="A" horiz-adv-x="648" 
d="M9 0l272 712h100l258 -712h-101l-76 218h-270l-82 -218h-101zM433 300l-102 295h-2l-108 -295h212z" />
    <glyph glyph-name="B" unicode="B" horiz-adv-x="685" 
d="M165 328v-246h253q131 0 131 116q0 83 -52 112q-34 18 -113 18h-219zM165 630v-220h217q146 0 146 113q0 71 -47 94q-28 13 -100 13h-216zM71 0v712h333q119 0 178 -61q48 -49 48 -124q0 -54 -29.5 -95t-74.5 -55v-2q125 -30 125 -181q0 -67 -37 -117q-55 -77 -179 -77
h-364z" />
    <glyph glyph-name="C" unicode="C" horiz-adv-x="778" 
d="M730 510l-98 -18q-18 72 -81.5 117t-143.5 45q-125 0 -194 -90q-62 -81 -62 -208t62 -208q69 -90 194 -90q92 0 156 58t77 153l99 -12q-24 -123 -118 -199t-214 -76q-165 0 -261.5 103t-96.5 271t96.5 271t261.5 103q118 0 203 -55q89 -58 120 -165z" />
    <glyph glyph-name="D" unicode="D" horiz-adv-x="704" 
d="M71 0v712h269q157 0 239 -100q76 -93 76 -260q0 -159 -78 -252q-83 -100 -237 -100h-269zM165 630v-548h159q229 0 229 279q0 269 -221 269h-167z" />
    <glyph glyph-name="E" unicode="E" horiz-adv-x="611" 
d="M71 0v712h500v-82h-406v-220h353v-82h-353v-246h416v-82h-510z" />
    <glyph glyph-name="F" unicode="F" horiz-adv-x="593" 
d="M71 0v712h456v-82h-362v-212h336v-82h-336v-336h-94z" />
    <glyph glyph-name="G" unicode="G" horiz-adv-x="815" 
d="M662 -6v105h-2q-78 -117 -253 -117q-165 0 -261.5 103t-96.5 271q0 148 93 256q102 118 265 118q117 0 205 -53q92 -56 129 -157l-94 -25q-53 153 -240 153q-115 0 -188 -86q-68 -81 -68 -200q0 -127 62 -208q69 -90 194 -90q115 0 182 58q71 60 71 171h-246v82h330v-381
h-82z" />
    <glyph glyph-name="H" unicode="H" horiz-adv-x="722" 
d="M71 0v712h94v-302h392v302h94v-712h-94v328h-392v-328h-94z" />
    <glyph glyph-name="I" unicode="I" horiz-adv-x="258" 
d="M82 0v712h94v-712h-94z" />
    <glyph glyph-name="J" unicode="J" horiz-adv-x="389" 
d="M213 210v502h94v-558q0 -72 -47 -119q-52 -53 -147 -53q-50 0 -96 10v103q37 -19 83 -19q67 0 92 36q21 29 21 98z" />
    <glyph glyph-name="K" unicode="K" horiz-adv-x="648" 
d="M71 0v712h94v-345l339 345h116l-286 -294l297 -418h-114l-248 350l-104 -102v-248h-94z" />
    <glyph glyph-name="L" unicode="L" 
d="M71 0v712h94v-630h355v-82h-449z" />
    <glyph glyph-name="M" unicode="M" horiz-adv-x="832" 
d="M74 0v712h124l218 -578l218 578h124v-712h-94v573h-2l-208 -573h-76l-208 573h-2v-573h-94z" />
    <glyph glyph-name="N" unicode="N" horiz-adv-x="704" 
d="M71 0v712h95l377 -562h2v562h88v-712h-94l-378 561h-2v-561h-88z" />
    <glyph glyph-name="O" unicode="O" horiz-adv-x="814" 
d="M49 356q0 168 96.5 271t261.5 103t261.5 -103t96.5 -271t-96.5 -271t-261.5 -103t-261.5 103t-96.5 271zM151 356q0 -127 62 -208q69 -90 194 -90t194 90q62 81 62 208t-62 208q-69 90 -194 90t-194 -90q-62 -81 -62 -208z" />
    <glyph glyph-name="P" unicode="P" horiz-adv-x="630" 
d="M71 0v712h356q75 0 125 -44q61 -55 61 -161q0 -97 -62 -154q-55 -49 -132 -49h-254v-304h-94zM165 630v-244h218q136 0 136 122t-123 122h-231z" />
    <glyph glyph-name="Q" unicode="Q" horiz-adv-x="814" 
d="M747 -34l-111 90q-91 -74 -229 -74q-165 0 -261.5 103t-96.5 271t96.5 271t261.5 103t261.5 -103t96.5 -271q0 -135 -65 -231l106 -88zM151 356q0 -127 62 -208q69 -90 194 -90t194 90q62 81 62 208t-62 208q-69 90 -194 90t-194 -90q-62 -81 -62 -208z" />
    <glyph glyph-name="R" unicode="R" horiz-adv-x="667" 
d="M71 0v712h322q98 0 157 -42q72 -52 72 -163q0 -172 -165 -199l196 -308h-114l-192 302h-182v-302h-94zM165 630v-246h213q150 0 150 123t-150 123h-213z" />
    <glyph glyph-name="S" unicode="S" horiz-adv-x="667" 
d="M616 508l-97 -5q-4 75 -57 115q-48 36 -127 36q-62 0 -105 -22q-54 -28 -54 -85q0 -75 117 -107l218 -58q117 -52 117 -179q0 -106 -86 -167q-77 -54 -188 -54q-136 0 -216 56q-90 64 -99 193l102 9q7 -182 209 -182q74 0 122 33q54 38 54 109q0 80 -117 113
q-109 28 -218 55q-117 47 -117 159q0 97 81 153q72 50 174 50q117 0 191 -53q82 -58 96 -169z" />
    <glyph glyph-name="T" unicode="T" 
d="M231 0v630h-214v82h522v-82h-214v-630h-94z" />
    <glyph glyph-name="U" unicode="U" horiz-adv-x="684" 
d="M613 712v-478q0 -120 -72 -186t-199 -66t-199 66t-72 186v478h94v-462q0 -186 177 -186t177 186v462h94z" />
    <glyph glyph-name="V" unicode="V" horiz-adv-x="610" 
d="M249 0l-238 712h103l186 -582h2l198 582h99l-253 -712h-97z" />
    <glyph glyph-name="W" unicode="W" horiz-adv-x="999" 
d="M222 0l-219 712h101l166 -556h2l179 556h97l179 -556h2l166 556h101l-219 -712h-93l-184 582h-2l-183 -582h-93z" />
    <glyph glyph-name="X" unicode="X" horiz-adv-x="610" 
d="M11 0l238 374l-215 338h112l159 -253l159 253h112l-215 -338l238 -374h-113l-181 291l-181 -291h-113z" />
    <glyph glyph-name="Y" unicode="Y" horiz-adv-x="628" 
d="M267 0v328l-256 384h113l190 -295l190 295h113l-256 -384v-328h-94z" />
    <glyph glyph-name="Z" unicode="Z" horiz-adv-x="611" 
d="M22 0v90l445 540h-410v82h513v-88l-447 -542h466v-82h-567z" />
    <glyph glyph-name="bracketleft" unicode="[" horiz-adv-x="315" 
d="M109 -154v866h188v-64h-106v-738h106v-64h-188z" />
    <glyph glyph-name="backslash" unicode="\" horiz-adv-x="333" 
d="M247 -18l-234 748h73l234 -748h-73z" />
    <glyph glyph-name="bracketright" unicode="]" horiz-adv-x="315" 
d="M18 -154v64h106v738h-106v64h188v-866h-188z" />
    <glyph glyph-name="asciicircum" unicode="^" horiz-adv-x="600" 
d="M47 257l224 423h58l224 -423h-76l-177 335l-177 -335h-76z" />
    <glyph glyph-name="underscore" unicode="_" horiz-adv-x="500" 
d="M0 -125v50h500v-50h-500z" />
    <glyph glyph-name="grave" unicode="`" horiz-adv-x="204" 
d="M96 582l-130 141h108l89 -141h-67z" />
    <glyph glyph-name="a" unicode="a" horiz-adv-x="500" 
d="M343 178v55q-122 -17 -164 -33q-63 -25 -63 -75q0 -73 92 -73q59 0 97 34t38 92zM343 287v42q0 52 -25.5 74.5t-86.5 22.5q-93 0 -98 -98l-82 5q16 157 181 157q193 0 193 -148v-222q0 -54 35 -54q12 0 25 5v-68q-28 -7 -51 -7q-67 0 -83 66q-67 -74 -170 -74
q-64 0 -108.5 38.5t-44.5 93.5q0 92 84 129q65 29 231 38z" />
    <glyph glyph-name="b" unicode="b" 
d="M57 0v712h82v-294h2q53 72 153 72q115 0 176 -77q52 -68 52 -174q0 -108 -51 -173q-61 -78 -184 -78q-96 0 -147 69h-1v-57h-82zM434 239q0 78 -35 126q-39 55 -114 55q-68 0 -110 -55q-39 -51 -39 -126q0 -78 35 -126q39 -55 114 -55t114 55q35 48 35 126z" />
    <glyph glyph-name="c" unicode="c" horiz-adv-x="519" 
d="M486 329l-88 -9q-9 49 -43.5 77.5t-83.5 28.5q-79 0 -118 -61q-31 -50 -31 -127q0 -78 33 -128q39 -58 114 -58q61 0 98 34.5t39 94.5l88 -7q-10 -86 -70.5 -136t-151.5 -50q-113 0 -175.5 67t-62.5 179q0 114 62 185t175 71q79 0 136 -40q62 -43 79 -121z" />
    <glyph glyph-name="d" unicode="d" 
d="M499 712v-712h-82v57h-2q-49 -69 -146 -69q-123 0 -184 78q-51 65 -51 173q0 106 53 174q60 77 175 77q101 0 153 -72h2v294h82zM122 239q0 -78 35 -126q39 -55 114 -55t114 55q35 48 35 126q0 75 -39 126q-42 55 -110 55q-75 0 -114 -55q-35 -48 -35 -126z" />
    <glyph glyph-name="e" unicode="e" horiz-adv-x="519" 
d="M485 221h-363q0 -74 37 -120q39 -49 107 -49q107 0 134 107l81 -10q-46 -159 -218 -161q-106 -1 -169 72q-60 69 -60 175q0 120 57.5 187.5t170.5 67.5q108 0 168 -72q55 -67 55 -178v-19zM122 285h275q-18 141 -144 141q-57 0 -94 -43q-33 -40 -37 -98z" />
    <glyph glyph-name="f" unicode="f" horiz-adv-x="278" 
d="M86 0v408h-79v70h79v85q0 78 32 113.5t101 35.5q20 0 52 -6v-62q-26 4 -45 4q-58 0 -58 -67v-103h89v-70h-89v-408h-82z" />
    <glyph glyph-name="g" unicode="g" 
d="M263 420q-66 0 -105 -44q-42 -48 -42 -137q0 -78 38 -128q40 -53 109 -53t113 56q43 53 41 128q-4 178 -154 178zM417 412v66h82v-482q0 -220 -220 -220q-94 0 -152 40q-65 46 -70 135h88q-1 -55 38 -84q36 -27 93 -27q91 0 123 57q18 34 18 109v68h-2q-67 -86 -163 -86
q-82 0 -140 49q-78 66 -78 202q0 111 53 178q58 73 166 73q115 0 162 -77z" />
    <glyph glyph-name="h" unicode="h" horiz-adv-x="519" 
d="M63 0v712h82v-298h2q49 76 140 76q169 0 169 -175v-315h-82v307q0 107 -101 107q-57 0 -92.5 -34.5t-35.5 -91.5v-288h-82z" />
    <glyph glyph-name="i" unicode="i" horiz-adv-x="204" 
d="M61 0v478h82v-478h-82zM61 618v94h82v-94h-82z" />
    <glyph glyph-name="j" unicode="j" horiz-adv-x="204" 
d="M143 478v-570q0 -73 -21 -104q-26 -40 -94 -40q-36 0 -54 4v70q4 0 13.5 -2t15.5 -2q58 0 58 55v589h82zM61 618v94h82v-94h-82z" />
    <glyph glyph-name="k" unicode="k" horiz-adv-x="481" 
d="M63 0v712h82v-439l188 203h99l-174 -189l215 -287h-103l-168 228l-57 -61v-167h-82z" />
    <glyph glyph-name="l" unicode="l" horiz-adv-x="204" 
d="M61 0v712h82v-712h-82z" />
    <glyph glyph-name="m" unicode="m" horiz-adv-x="778" 
d="M63 0v478h76v-60h2q55 72 134 72q104 0 139 -83q26 36 66.5 59.5t78.5 23.5q156 0 156 -174v-316h-82v320q0 94 -84 94q-45 0 -79 -23q-40 -28 -40 -77v-314h-82v320q0 94 -84 94q-45 0 -79 -23q-40 -28 -40 -77v-314h-82z" />
    <glyph glyph-name="n" unicode="n" horiz-adv-x="519" 
d="M63 0v478h82v-64h2q49 76 140 76q169 0 169 -175v-315h-82v307q0 107 -101 107q-57 0 -92.5 -34.5t-35.5 -91.5v-288h-82z" />
    <glyph glyph-name="o" unicode="o" horiz-adv-x="536" 
d="M34 239q0 111 63 181t171 70t171 -70t63 -181t-63 -181t-171 -70t-171 70t-63 181zM122 239q0 -74 29 -123q37 -64 117 -64t117 64q29 49 29 123t-29 123q-37 64 -117 64t-117 -64q-29 -49 -29 -123z" />
    <glyph glyph-name="p" unicode="p" 
d="M57 -224v702h82v-57h1q21 29 62.5 49t90.5 20q118 0 178 -77q51 -67 51 -174q0 -106 -52 -173q-61 -78 -176 -78q-100 0 -153 72h-2v-284h-82zM434 239q0 78 -35 126q-39 55 -114 55t-114 -55q-35 -48 -35 -126q0 -75 39 -126q42 -55 110 -55q75 0 114 55q35 48 35 126z
" />
    <glyph glyph-name="q" unicode="q" 
d="M499 478v-702h-82v284h-2q-52 -72 -153 -72q-115 0 -175 78q-53 67 -53 173q0 108 52 174q60 77 180 77q43 0 86 -20t63 -49h2v57h82zM122 239q0 -78 35 -126q39 -55 114 -55q68 0 110 55q39 51 39 126q0 78 -35 126q-39 55 -114 55t-114 -55q-35 -48 -35 -126z" />
    <glyph glyph-name="r" unicode="r" horiz-adv-x="333" 
d="M63 0v478h82v-82h2q29 48 67.5 68t101.5 20v-90q-32 2 -55 2q-55 0 -88 -43q-28 -38 -28 -85v-268h-82z" />
    <glyph glyph-name="s" unicode="s" horiz-adv-x="481" 
d="M31 157l88 11q0 -61 43 -91q36 -25 93 -25q107 0 107 82q0 48 -81 68l-150 36q-81 33 -81 113q0 68 58 106q50 33 122 33q69 0 127 -32q78 -43 78 -124l-82 -11q0 50 -36 78q-33 25 -83 25q-102 0 -102 -71q0 -43 82 -63q142 -35 154 -40q82 -36 82 -117q0 -71 -64 -111
q-58 -36 -143 -36q-86 0 -141 39q-63 44 -71 130z" />
    <glyph glyph-name="t" unicode="t" horiz-adv-x="278" 
d="M7 408v70h79v149h82v-149h89v-70h-89v-304q0 -23 4 -32q7 -14 29 -14q23 0 51 10v-70q-45 -10 -81 -10q-57 0 -74 27q-11 17 -11 67v326h-79z" />
    <glyph glyph-name="u" unicode="u" horiz-adv-x="519" 
d="M456 478v-478h-82v64h-2q-49 -76 -140 -76q-169 0 -169 175v315h82v-315q0 -99 101 -99q57 0 92.5 34.5t35.5 91.5v288h82z" />
    <glyph glyph-name="v" unicode="v" horiz-adv-x="444" 
d="M187 0l-176 478h85l128 -356h2l123 356h84l-169 -478h-77z" />
    <glyph glyph-name="w" unicode="w" horiz-adv-x="741" 
d="M179 0l-166 478h89l119 -351h2l114 351h70l112 -351h2l124 351h83l-174 -478h-71l-113 351h-2l-116 -351h-73z" />
    <glyph glyph-name="x" unicode="x" horiz-adv-x="407" 
d="M11 0l146 242l-139 236h93l93 -163l99 163h93l-146 -236l146 -242h-93l-99 168l-102 -168h-91z" />
    <glyph glyph-name="y" unicode="y" horiz-adv-x="444" 
d="M222 117l125 361h84l-207 -583q-23 -64 -47 -92q-35 -39 -95 -39q-29 0 -69 14v71q30 -9 53 -9q53 0 77 67l33 92l-161 479h87l118 -361h2z" />
    <glyph glyph-name="z" unicode="z" horiz-adv-x="426" 
d="M23 0v70l273 338h-248v70h349v-68l-277 -340h283v-70h-380z" />
    <glyph glyph-name="braceleft" unicode="{" horiz-adv-x="333" 
d="M280 712v-64h-48q-42 0 -42 -50v-175q0 -114 -74 -144q74 -30 74 -144v-175q0 -50 42 -50h48v-64h-55q-60 0 -88.5 27t-28.5 89v173q0 112 -74 112v64q74 0 74 112v173q0 62 28.5 89t88.5 27h55z" />
    <glyph glyph-name="bar" unicode="|" horiz-adv-x="222" 
d="M76 -214v1000h70v-1000h-70z" />
    <glyph glyph-name="braceright" unicode="}" horiz-adv-x="333" 
d="M53 -154v64h48q42 0 42 50v175q0 114 74 144q-74 30 -74 144v175q0 50 -42 50h-48v64h55q60 0 88.5 -27t28.5 -89v-173q0 -112 74 -112v-64q-74 0 -74 -112v-173q0 -62 -28.5 -89t-88.5 -27h-55z" />
    <glyph glyph-name="asciitilde" unicode="~" horiz-adv-x="600" 
d="M105 181l-36 54q45 86 125 86q40 0 115 -34q71 -32 98 -32q43 0 88 70l36 -54q-30 -42 -50 -59q-34 -27 -75 -27q-37 0 -102.5 33t-114.5 33q-52 0 -84 -70z" />
    <glyph glyph-name="uni20AC" unicode="&#x20ac;" 
d="M558 662l-46 -83q-69 69 -143 69q-75 0 -124 -64q-40 -52 -56 -134h283l-27 -61h-263q-1 -10 -1 -31q0 -14 1 -21h249l-26 -61h-218q34 -215 190 -215q47 0 85 19q29 15 69 53v-105q-67 -45 -154 -45q-244 0 -287 293h-77l27 61h46q-1 7 -1 20q0 21 1 32h-73l26 61h54
q24 122 91 194q76 81 193 81q90 0 181 -63z" />
    <glyph glyph-name="quotesinglbase" unicode="&#x201a;" horiz-adv-x="278" 
d="M88 0v113h102v-113q0 -24 -9 -69q-12 -52 -28 -86h-47q24 73 24 155h-42z" />
    <glyph glyph-name="quotedblbase" unicode="&#x201e;" horiz-adv-x="389" 
d="M67 0v113h102v-113q0 -24 -9 -69q-12 -52 -28 -86h-47q24 73 24 155h-42zM220 0v113h102v-113q0 -24 -9 -69q-12 -52 -28 -86h-47q24 73 24 155h-42z" />
    <glyph glyph-name="ellipsis" unicode="&#x2026;" horiz-adv-x="1000" 
d="M116 0v113h102v-113h-102zM449 0v113h102v-113h-102zM782 0v113h102v-113h-102z" />
    <glyph glyph-name="dagger" unicode="&#x2020;" 
d="M237 -116v524h-176v76h176v228h82v-228h176v-76h-176v-524h-82z" />
    <glyph glyph-name="daggerdbl" unicode="&#x2021;" 
d="M237 -116v211h-176v76h176v263h-176v76h176v202h82v-202h176v-76h-176v-263h176v-76h-176v-211h-82z" />
    <glyph glyph-name="perthousand" unicode="&#x2030;" horiz-adv-x="1000" 
d="M695 164q0 68 32 114q38 56 115 56t116 -56q31 -46 31 -114t-31 -113q-39 -57 -116 -57t-115 57q-32 45 -32 113zM771 164q0 -106 71 -106t71 106t-71 106t-71 -106zM424 164q0 -106 71 -106t71 106t-71 106t-71 -106zM348 164q0 68 32 114q38 56 115 56t116 -56
q31 -46 31 -114t-31 -113q-39 -57 -116 -57t-115 57q-32 45 -32 113zM11 516q0 68 32 114q38 56 115 56t116 -56q31 -46 31 -114t-31 -113q-39 -57 -116 -57t-115 57q-32 45 -32 113zM87 516q0 -106 71 -106t71 106t-71 106t-71 -106zM60 -32l454 744h69l-454 -744h-69z" />
    <glyph glyph-name="Scaron" unicode="&#x160;" horiz-adv-x="667" 
d="M287 790l-99 141h80l65 -95l66 95h81l-101 -141h-92zM616 508l-97 -5q-4 75 -57 115q-48 36 -127 36q-62 0 -105 -22q-54 -28 -54 -85q0 -75 117 -107l218 -58q117 -52 117 -179q0 -106 -86 -167q-77 -54 -188 -54q-136 0 -216 56q-90 64 -99 193l102 9q7 -182 209 -182
q74 0 122 33q54 38 54 109q0 80 -117 113q-109 28 -218 55q-117 47 -117 159q0 97 81 153q72 50 174 50q117 0 191 -53q82 -58 96 -169z" />
    <glyph glyph-name="guilsinglleft" unicode="&#x2039;" horiz-adv-x="296" 
d="M80 298l136 117v-93l-77 -68l77 -68v-93l-136 117v88z" />
    <glyph glyph-name="Sacute" unicode="&#x15a;" horiz-adv-x="667" 
d="M278 812l89 141h108l-130 -141h-67zM616 508l-97 -5q-4 75 -57 115q-48 36 -127 36q-62 0 -105 -22q-54 -28 -54 -85q0 -75 117 -107l218 -58q117 -52 117 -179q0 -106 -86 -167q-77 -54 -188 -54q-136 0 -216 56q-90 64 -99 193l102 9q7 -182 209 -182q74 0 122 33
q54 38 54 109q0 80 -117 113q-109 28 -218 55q-117 47 -117 159q0 97 81 153q72 50 174 50q117 0 191 -53q82 -58 96 -169z" />
    <glyph glyph-name="Tcaron" unicode="&#x164;" 
d="M230 790l-99 141h80l65 -95l66 95h81l-101 -141h-92zM231 0v630h-214v82h522v-82h-214v-630h-94z" />
    <glyph glyph-name="Zcaron" unicode="&#x17d;" horiz-adv-x="611" 
d="M260 790l-99 141h80l65 -95l66 95h81l-101 -141h-92zM22 0v90l445 540h-410v82h513v-88l-447 -542h466v-82h-567z" />
    <glyph glyph-name="Zacute" unicode="&#x179;" horiz-adv-x="611" 
d="M22 0v90l445 540h-410v82h513v-88l-447 -542h466v-82h-567zM256 790l89 141h108l-130 -141h-67z" />
    <glyph glyph-name="quoteleft" unicode="&#x2018;" horiz-adv-x="278" 
d="M88 444v113q0 24 10 69q11 52 27 86h47q-24 -73 -24 -155h42v-113h-102z" />
    <glyph glyph-name="quoteright" unicode="&#x2019;" horiz-adv-x="278" 
d="M88 599v113h102v-113q0 -24 -9 -68q-12 -53 -28 -87h-47q24 73 24 155h-42z" />
    <glyph glyph-name="quotedblleft" unicode="&#x201c;" horiz-adv-x="389" 
d="M220 444v113q0 24 10 69q11 52 27 86h47q-24 -73 -24 -155h42v-113h-102zM67 444v113q0 24 10 69q11 52 27 86h47q-24 -73 -24 -155h42v-113h-102z" />
    <glyph glyph-name="quotedblright" unicode="&#x201d;" horiz-adv-x="389" 
d="M67 599v113h102v-113q0 -76 -37 -155h-47q24 73 24 155h-42zM220 599v113h102v-113q0 -76 -37 -155h-47q24 73 24 155h-42z" />
    <glyph glyph-name="bullet" unicode="&#x2022;" horiz-adv-x="500" 
d="M72 356q0 74 52.5 126t125.5 52q74 0 126 -52t52 -126q0 -73 -52 -125.5t-126 -52.5q-73 0 -125.5 52.5t-52.5 125.5z" />
    <glyph glyph-name="endash" unicode="&#x2013;" horiz-adv-x="500" 
d="M0 216v76h500v-76h-500z" />
    <glyph glyph-name="emdash" unicode="&#x2014;" horiz-adv-x="1000" 
d="M130 216v76h740v-76h-740z" />
    <glyph glyph-name="trademark" unicode="&#x2122;" horiz-adv-x="990" 
d="M199 300v354h-129v58h322v-58h-129v-354h-64zM452 300v412h101l126 -318l126 318h101v-412h-64v354h-2l-143 -354h-36l-143 354h-2v-354h-64z" />
    <glyph glyph-name="scaron" unicode="&#x161;" horiz-adv-x="481" 
d="M194 572l-99 141h80l65 -95l66 95h81l-101 -141h-92zM31 157l88 11q0 -61 43 -91q36 -25 93 -25q107 0 107 82q0 48 -81 68l-150 36q-81 33 -81 113q0 68 58 106q50 33 122 33q69 0 127 -32q78 -43 78 -124l-82 -11q0 50 -36 78q-33 25 -83 25q-102 0 -102 -71
q0 -43 82 -63q142 -35 154 -40q82 -36 82 -117q0 -71 -64 -111q-58 -36 -143 -36q-86 0 -141 39q-63 44 -71 130z" />
    <glyph glyph-name="guilsinglright" unicode="&#x203a;" horiz-adv-x="296" 
d="M216 298v-88l-136 -117v93l77 68l-77 68v93z" />
    <glyph glyph-name="sacute" unicode="&#x15b;" horiz-adv-x="481" 
d="M182 573l89 141h108l-130 -141h-67zM31 157l88 11q0 -61 43 -91q36 -25 93 -25q107 0 107 82q0 48 -81 68l-150 36q-81 33 -81 113q0 68 58 106q50 33 122 33q69 0 127 -32q78 -43 78 -124l-82 -11q0 50 -36 78q-33 25 -83 25q-102 0 -102 -71q0 -43 82 -63
q142 -35 154 -40q82 -36 82 -117q0 -71 -64 -111q-58 -36 -143 -36q-86 0 -141 39q-63 44 -71 130z" />
    <glyph glyph-name="tcaron" unicode="&#x165;" horiz-adv-x="294" 
d="M213 638v90h82v-90q0 -62 -30 -124h-37q19 58 19 124h-34zM7 408v70h79v149h82v-149h89v-70h-89v-304q0 -23 4 -32q7 -14 29 -14q23 0 51 10v-70q-45 -10 -81 -10q-57 0 -74 27q-11 17 -11 67v326h-79z" />
    <glyph glyph-name="zcaron" unicode="&#x17e;" horiz-adv-x="426" 
d="M180 571l-99 141h80l65 -95l66 95h81l-101 -141h-92zM23 0v70l273 338h-248v70h349v-68l-277 -340h283v-70h-380z" />
    <glyph glyph-name="zacute" unicode="&#x17a;" horiz-adv-x="426" 
d="M175 572l89 141h108l-130 -141h-67zM23 0v70l273 338h-248v70h349v-68l-277 -340h283v-70h-380z" />
    <glyph glyph-name="caron" unicode="&#x2c7;" horiz-adv-x="204" 
d="M55 582l-99 141h80l65 -95l66 95h81l-101 -141h-92z" />
    <glyph glyph-name="breve" unicode="&#x2d8;" horiz-adv-x="204" 
d="M-52 723h52q10 -77 102 -77q84 0 102 77h52q-8 -64 -47.5 -99.5t-103.5 -35.5q-146 0 -157 135z" />
    <glyph glyph-name="Lslash" unicode="&#x141;" 
d="M71 0v287l-54 -32v74l54 32v351h94v-296l181 107v-74l-181 -107v-260h355v-82h-449z" />
    <glyph glyph-name="currency" unicode="&#xa4;" 
d="M278 589q94 0 149 -48l54 53l51 -48l-55 -54q50 -64 50 -152t-50 -152l55 -54l-51 -48l-54 53q-55 -48 -149 -48t-149 48l-54 -53l-51 48l55 54q-50 64 -50 152t50 152l-55 54l51 48l54 -53q55 48 149 48zM99 340q0 -81 49 -133t130 -52t130 52t49 133t-49 133t-130 52
t-130 -52t-49 -133z" />
    <glyph glyph-name="Aogonek" unicode="&#x104;" horiz-adv-x="648" 
d="M433 300l-102 295h-2l-108 -295h212zM600 -169v-46q-24 -9 -51 -9q-44 0 -74.5 26.5t-30.5 70.5q0 56 100 127h-6l-76 218h-270l-82 -218h-101l272 712h100l258 -712h-31q-88 -95 -88 -131q0 -47 40 -47q22 0 40 9z" />
    <glyph glyph-name="brokenbar" unicode="&#xa6;" horiz-adv-x="222" 
d="M76 -89v250h70v-250h-70zM76 411v250h70v-250h-70z" />
    <glyph glyph-name="section" unicode="&#xa7;" 
d="M191 220l137 -71q45 8 77 32q36 29 36 68q0 51 -61 82l-185 95q-24 -6 -46 -26q-34 -32 -34 -80q0 -61 76 -100zM56 -117l42 72q114 -60 185 -60q108 0 108 77q0 33 -38 61q-9 6 -67 36l-133 69q-65 34 -92 68q-34 42 -34 110q0 109 108 152q-62 50 -62 110q0 73 66 115
q57 37 134 37q103 0 215 -72l-40 -68q-94 64 -176 64q-41 0 -70 -16q-35 -19 -35 -55q0 -27 15 -43q9 -10 39 -25l210 -108q98 -50 98 -143q0 -61 -31.5 -103.5t-90.5 -55.5q78 -44 78 -135q0 -72 -58 -114q-51 -37 -127 -37q-113 0 -244 64z" />
    <glyph glyph-name="dieresis" unicode="&#xa8;" horiz-adv-x="204" 
d="M-22 596v100h88v-100h-88zM138 596v100h88v-100h-88z" />
    <glyph glyph-name="copyright" unicode="&#xa9;" horiz-adv-x="800" 
d="M527 282h69q-9 -72 -61 -115.5t-130 -43.5q-93 0 -153 67t-60 167q0 102 59 168t158 66q73 0 124 -40q54 -43 63 -116h-69q-5 40 -33 67q-32 31 -84 31q-68 0 -109 -53q-39 -49 -39 -122q0 -69 41 -123t102 -54q105 0 122 101zM26 356q0 155 109.5 264.5t264.5 109.5
t264.5 -109.5t109.5 -264.5t-109.5 -264.5t-264.5 -109.5t-264.5 109.5t-109.5 264.5zM90 356q0 -129 91.5 -222.5t218.5 -93.5t218.5 93.5t91.5 222.5t-91.5 222.5t-218.5 93.5t-218.5 -93.5t-91.5 -222.5z" />
    <glyph glyph-name="Scommaaccent" horiz-adv-x="667" 
d="M302 -150v90h82v-90q0 -62 -30 -124h-37q19 58 19 124h-34zM616 508l-97 -5q-4 75 -57 115q-48 36 -127 36q-62 0 -105 -22q-54 -28 -54 -85q0 -75 117 -107l218 -58q117 -52 117 -179q0 -106 -86 -167q-77 -54 -188 -54q-136 0 -216 56q-90 64 -99 193l102 9
q7 -182 209 -182q74 0 122 33q54 38 54 109q0 80 -117 113q-109 28 -218 55q-117 47 -117 159q0 97 81 153q72 50 174 50q117 0 191 -53q82 -58 96 -169z" />
    <glyph glyph-name="guillemotleft" unicode="&#xab;" horiz-adv-x="407" 
d="M216 298l136 117v-93l-77 -68l77 -68v-93l-136 117v88zM55 298l136 117v-93l-77 -68l77 -68v-93l-136 117v88z" />
    <glyph glyph-name="logicalnot" unicode="&#xac;" horiz-adv-x="600" 
d="M483 108v209h-436v70h506v-279h-70z" />
    <glyph glyph-name="registered" unicode="&#xae;" horiz-adv-x="800" 
d="M264 136v440h163q145 0 145 -123q0 -107 -107 -125l123 -192h-73l-121 191h-66v-191h-64zM328 518v-133h76q49 0 70 10q34 15 34 58q0 65 -98 65h-82zM26 356q0 155 109.5 264.5t264.5 109.5t264.5 -109.5t109.5 -264.5t-109.5 -264.5t-264.5 -109.5t-264.5 109.5
t-109.5 264.5zM90 356q0 -129 91.5 -222.5t218.5 -93.5t218.5 93.5t91.5 222.5t-91.5 222.5t-218.5 93.5t-218.5 -93.5t-91.5 -222.5z" />
    <glyph glyph-name="Zdotaccent" unicode="&#x17b;" horiz-adv-x="611" 
d="M262 804v100h88v-100h-88zM22 0v90l445 540h-410v82h513v-88l-447 -542h466v-82h-567z" />
    <glyph glyph-name="degree" unicode="&#xb0;" horiz-adv-x="400" 
d="M109 543q0 -35 28 -63t63 -28t63 28t28 63t-28 63t-63 28t-63 -28t-28 -63zM57 543q0 59 42 101t101 42t101 -42t42 -101t-42 -101t-101 -42t-101 42t-42 101z" />
    <glyph glyph-name="plusminus" unicode="&#xb1;" horiz-adv-x="600" 
d="M265 103v166h-218v70h218v167h70v-167h218v-70h-218v-166h-70zM47 0v70h506v-70h-506z" />
    <glyph glyph-name="ogonek" unicode="&#x2db;" horiz-adv-x="204" 
d="M156 -169v-46q-24 -9 -51 -9q-44 0 -74.5 26.5t-30.5 70.5q0 56 100 127h64q-88 -95 -88 -131q0 -47 40 -47q22 0 40 9z" />
    <glyph glyph-name="lslash" unicode="&#x142;" horiz-adv-x="204" 
d="M61 0v344l-64 -47v67l64 47v301h82v-242l64 46v-67l-64 -46v-403h-82z" />
    <glyph glyph-name="acute" unicode="&#xb4;" horiz-adv-x="204" 
d="M41 582l89 141h108l-130 -141h-67z" />
    <glyph glyph-name="mu" unicode="&#xb5;" horiz-adv-x="519" 
d="M456 478v-478h-82v64h-2q-49 -76 -140 -76q-58 0 -87 24v-236h-82v702h82v-315q0 -99 101 -99q57 0 92.5 34.5t35.5 91.5v288h82z" />
    <glyph glyph-name="mu" unicode="&#x3bc;" horiz-adv-x="519" 
d="M456 478v-478h-82v64h-2q-49 -76 -140 -76q-58 0 -87 24v-236h-82v702h82v-315q0 -99 101 -99q57 0 92.5 34.5t35.5 91.5v288h82z" />
    <glyph glyph-name="paragraph" unicode="&#xb6;" horiz-adv-x="600" 
d="M271 -163v495q-90 0 -149.5 55t-59.5 133q0 94 59 143t166 49h228v-875h-58v829h-128v-829h-58z" />
    <glyph glyph-name="periodcentered" unicode="&#xb7;" horiz-adv-x="278" 
d="M82 310q0 26 16 42.5t41 16.5t41 -16.5t16 -42.5t-16 -43t-41 -17t-41 17t-16 43z" />
    <glyph glyph-name="periodcentered" unicode="&#x2219;" horiz-adv-x="278" 
d="M82 310q0 26 16 42.5t41 16.5t41 -16.5t16 -42.5t-16 -43t-41 -17t-41 17t-16 43z" />
    <glyph glyph-name="cedilla" unicode="&#xb8;" horiz-adv-x="204" 
d="M-5 -203l17 40q37 -15 65 -15q56 0 56 40t-48 40q-16 0 -39 -7l-17 19l64 86h47l-46 -62h2q5 0 15 2t15 2q35 0 59 -19.5t24 -54.5q0 -43 -36 -70q-33 -23 -78 -23q-47 0 -100 22z" />
    <glyph glyph-name="aogonek" unicode="&#x105;" horiz-adv-x="500" 
d="M343 178v55q-105 -14 -137 -24q-90 -27 -90 -84q0 -73 92 -73q59 0 97 34t38 92zM458 -167v-46q-24 -9 -51 -9q-44 0 -74.5 26.5t-30.5 70.5q0 53 100 126q-40 13 -51 61q-67 -74 -170 -74q-60 0 -105 35q-48 38 -48 97q0 103 115 140q57 19 200 27v42q0 55 -30 77
q-25 20 -82 20q-93 0 -98 -98l-82 5q16 157 181 157q193 0 193 -148v-222q0 -54 35 -54q12 0 25 5v-68l-22 -5q-85 -91 -85 -127q0 -47 40 -47q22 0 40 9z" />
    <glyph glyph-name="scommaaccent" horiz-adv-x="481" 
d="M202 -150v90h82v-90q0 -62 -30 -124h-37q19 58 19 124h-34zM31 157l88 11q0 -61 43 -91q36 -25 93 -25q107 0 107 82q0 48 -81 68l-150 36q-81 33 -81 113q0 68 58 106q50 33 122 33q69 0 127 -32q78 -43 78 -124l-82 -11q0 50 -36 78q-33 25 -83 25q-102 0 -102 -71
q0 -43 82 -63q142 -35 154 -40q82 -36 82 -117q0 -71 -64 -111q-58 -36 -143 -36q-86 0 -141 39q-63 44 -71 130z" />
    <glyph glyph-name="guillemotright" unicode="&#xbb;" horiz-adv-x="407" 
d="M191 210l-136 -117v93l77 68l-77 68v93l136 -117v-88zM352 210l-136 -117v93l77 68l-77 68v93l136 -117v-88z" />
    <glyph glyph-name="Lcaron" unicode="&#x13d;" 
d="M292 623v90h82v-90q0 -62 -30 -124h-37q19 58 19 124h-34zM71 0v712h94v-630h355v-82h-449z" />
    <glyph glyph-name="hungarumlaut" unicode="&#x2dd;" horiz-adv-x="204" 
d="M-51 582l89 141h109l-131 -141h-67zM131 582l89 141h109l-133 -141h-65z" />
    <glyph glyph-name="lcaron" unicode="&#x13e;" horiz-adv-x="281" 
d="M191 622v90h82v-90q0 -62 -30 -124h-37q19 58 19 124h-34zM61 0v712h82v-712h-82z" />
    <glyph glyph-name="zdotaccent" unicode="&#x17c;" horiz-adv-x="426" 
d="M181 586v100h88v-100h-88zM23 0v70l273 338h-248v70h349v-68l-277 -340h283v-70h-380z" />
    <glyph glyph-name="Racute" unicode="&#x154;" horiz-adv-x="667" 
d="M262 790l89 141h108l-130 -141h-67zM71 0v712h322q98 0 157 -42q72 -52 72 -163q0 -172 -165 -199l196 -308h-114l-192 302h-182v-302h-94zM165 630v-246h213q150 0 150 123t-150 123h-213z" />
    <glyph glyph-name="Aacute" unicode="&#xc1;" horiz-adv-x="648" 
d="M263 790l89 141h108l-130 -141h-67zM9 0l272 712h100l258 -712h-101l-76 218h-270l-82 -218h-101zM433 300l-102 295h-2l-108 -295h212z" />
    <glyph glyph-name="Acircumflex" unicode="&#xc2;" horiz-adv-x="648" 
d="M9 0l272 712h100l258 -712h-101l-76 218h-270l-82 -218h-101zM433 300l-102 295h-2l-108 -295h212zM178 790l99 141h92l101 -141h-81l-66 95l-66 -95h-79z" />
    <glyph glyph-name="Abreve" unicode="&#x102;" horiz-adv-x="648" 
d="M9 0l272 712h100l258 -712h-101l-76 218h-270l-82 -218h-101zM433 300l-102 295h-2l-108 -295h212zM170 931h52q10 -77 102 -77q84 0 102 77h52q-8 -64 -47.5 -99.5t-103.5 -35.5q-146 0 -157 135z" />
    <glyph glyph-name="Adieresis" unicode="&#xc4;" horiz-adv-x="648" 
d="M9 0l272 712h100l258 -712h-101l-76 218h-270l-82 -218h-101zM433 300l-102 295h-2l-108 -295h212zM200 804v100h88v-100h-88zM360 804v100h88v-100h-88z" />
    <glyph glyph-name="Lacute" unicode="&#x139;" 
d="M71 790l89 141h108l-130 -141h-67zM71 0v712h94v-630h355v-82h-449z" />
    <glyph glyph-name="Cacute" unicode="&#x106;" horiz-adv-x="778" 
d="M347 790l89 141h108l-130 -141h-67zM730 510l-98 -18q-18 72 -81.5 117t-143.5 45q-125 0 -194 -90q-62 -81 -62 -208t62 -208q69 -90 194 -90q92 0 156 58t77 153l99 -12q-24 -123 -118 -199t-214 -76q-165 0 -261.5 103t-96.5 271t96.5 271t261.5 103q118 0 203 -55
q89 -58 120 -165z" />
    <glyph glyph-name="Ccedilla" unicode="&#xc7;" horiz-adv-x="778" 
d="M322 -86l52 70q-154 10 -241 115q-84 100 -84 257q0 168 95 269q97 105 263 105q117 0 201 -54q91 -58 122 -166l-98 -18q-18 74 -82.5 118t-142.5 44q-125 0 -193 -89q-63 -81 -63 -209t63 -209q68 -89 193 -89q94 0 157 58.5t76 152.5l99 -12q-22 -117 -110.5 -193
t-207.5 -81l-34 -45h2q5 0 15 2t15 2q35 0 59 -19.5t24 -54.5q0 -43 -36 -70q-33 -23 -78 -23q-46 0 -100 22l17 40q36 -15 65 -15q56 0 56 40t-48 40q-17 0 -39 -7z" />
    <glyph glyph-name="Ccaron" unicode="&#x10c;" horiz-adv-x="778" 
d="M347 790l-99 141h80l65 -95l66 95h81l-101 -141h-92zM730 510l-98 -18q-18 72 -81.5 117t-143.5 45q-125 0 -194 -90q-62 -81 -62 -208t62 -208q69 -90 194 -90q92 0 156 58t77 153l99 -12q-24 -123 -118 -199t-214 -76q-165 0 -261.5 103t-96.5 271t96.5 271t261.5 103
q118 0 203 -55q89 -58 120 -165z" />
    <glyph glyph-name="Eacute" unicode="&#xc9;" horiz-adv-x="611" 
d="M245 790l89 141h108l-130 -141h-67zM71 0v712h500v-82h-406v-220h353v-82h-353v-246h416v-82h-510z" />
    <glyph glyph-name="Eogonek" unicode="&#x118;" horiz-adv-x="611" 
d="M531 -169v-46q-24 -9 -51 -9q-44 0 -74.5 26.5t-30.5 70.5q0 56 100 127h-404v712h500v-82h-406v-220h353v-82h-353v-246h416v-82h-42q-88 -95 -88 -131q0 -47 40 -47q22 0 40 9z" />
    <glyph glyph-name="Edieresis" unicode="&#xcb;" horiz-adv-x="611" 
d="M71 0v712h500v-82h-406v-220h353v-82h-353v-246h416v-82h-510zM182 804v100h88v-100h-88zM342 804v100h88v-100h-88z" />
    <glyph glyph-name="Ecaron" unicode="&#x11a;" horiz-adv-x="611" 
d="M71 0v712h500v-82h-406v-220h353v-82h-353v-246h416v-82h-510zM279 790l-99 141h80l65 -95l66 95h81l-101 -141h-92z" />
    <glyph glyph-name="Iacute" unicode="&#xcd;" horiz-adv-x="258" 
d="M67 790l89 141h108l-130 -141h-67zM82 0v712h94v-712h-94z" />
    <glyph glyph-name="Icircumflex" unicode="&#xce;" horiz-adv-x="258" 
d="M82 0v712h94v-712h-94zM-16 790l99 141h92l101 -141h-81l-66 95l-66 -95h-79z" />
    <glyph glyph-name="Dcaron" unicode="&#x10e;" horiz-adv-x="704" 
d="M275 790l-99 141h80l65 -95l66 95h81l-101 -141h-92zM71 0v712h269q157 0 239 -100q76 -93 76 -260q0 -159 -78 -252q-83 -100 -237 -100h-269zM165 630v-548h159q229 0 229 279q0 269 -221 269h-167z" />
    <glyph glyph-name="Dcroat" unicode="&#x110;" horiz-adv-x="704" 
d="M71 0v340h-68v70h68v302h269q157 0 239 -100q76 -93 76 -260q0 -159 -78 -252q-83 -100 -237 -100h-269zM165 340v-258h159q229 0 229 279q0 269 -221 269h-167v-220h204v-70h-204z" />
    <glyph glyph-name="Nacute" unicode="&#x143;" horiz-adv-x="704" 
d="M293 790l89 141h108l-130 -141h-67zM71 0v712h95l377 -562h2v562h88v-712h-94l-378 561h-2v-561h-88z" />
    <glyph glyph-name="Ncaron" unicode="&#x147;" horiz-adv-x="704" 
d="M71 0v712h95l377 -562h2v562h88v-712h-94l-378 561h-2v-561h-88zM305 790l-99 141h80l65 -95l66 95h81l-101 -141h-92z" />
    <glyph glyph-name="Oacute" unicode="&#xd3;" horiz-adv-x="814" 
d="M49 356q0 168 96.5 271t261.5 103t261.5 -103t96.5 -271t-96.5 -271t-261.5 -103t-261.5 103t-96.5 271zM151 356q0 -127 62 -208q69 -90 194 -90t194 90q62 81 62 208t-62 208q-69 90 -194 90t-194 -90q-62 -81 -62 -208zM344 790l89 141h108l-130 -141h-67z" />
    <glyph glyph-name="Ocircumflex" unicode="&#xd4;" horiz-adv-x="814" 
d="M49 356q0 168 96.5 271t261.5 103t261.5 -103t96.5 -271t-96.5 -271t-261.5 -103t-261.5 103t-96.5 271zM151 356q0 -127 62 -208q69 -90 194 -90t194 90q62 81 62 208t-62 208q-69 90 -194 90t-194 -90q-62 -81 -62 -208zM261 790l99 141h92l101 -141h-81l-66 95
l-66 -95h-79z" />
    <glyph glyph-name="Ohungarumlaut" unicode="&#x150;" horiz-adv-x="814" 
d="M49 356q0 168 96.5 271t261.5 103t261.5 -103t96.5 -271t-96.5 -271t-261.5 -103t-261.5 103t-96.5 271zM151 356q0 -127 62 -208q69 -90 194 -90t194 90q62 81 62 208t-62 208q-69 90 -194 90t-194 -90q-62 -81 -62 -208zM261 790l89 141h109l-131 -141h-67zM443 790
l89 141h109l-133 -141h-65z" />
    <glyph glyph-name="Odieresis" unicode="&#xd6;" horiz-adv-x="814" 
d="M49 356q0 168 96.5 271t261.5 103t261.5 -103t96.5 -271t-96.5 -271t-261.5 -103t-261.5 103t-96.5 271zM151 356q0 -127 62 -208q69 -90 194 -90t194 90q62 81 62 208t-62 208q-69 90 -194 90t-194 -90q-62 -81 -62 -208zM283 804v100h88v-100h-88zM443 804v100h88v-100
h-88z" />
    <glyph glyph-name="multiply" unicode="&#xd7;" horiz-adv-x="600" 
d="M482 22l-182 182l-181 -182l-50 49l182 182l-182 182l50 49l181 -181l182 181l49 -49l-181 -182l181 -182z" />
    <glyph glyph-name="Rcaron" unicode="&#x158;" horiz-adv-x="667" 
d="M268 790l-99 141h80l65 -95l66 95h81l-101 -141h-92zM71 0v712h322q98 0 157 -42q72 -52 72 -163q0 -172 -165 -199l196 -308h-114l-192 302h-182v-302h-94zM165 630v-246h213q150 0 150 123t-150 123h-213z" />
    <glyph glyph-name="Uring" unicode="&#x16e;" horiz-adv-x="684" 
d="M613 712v-478q0 -120 -72 -186t-199 -66t-199 66t-72 186v478h94v-462q0 -186 177 -186t177 186v462h94zM240 875q0 42 30 72t72 30t72 -30t30 -72t-30 -72t-72 -30t-72 30t-30 72zM280 875q0 -25 18.5 -43.5t43.5 -18.5t43.5 18.5t18.5 43.5t-18.5 43.5t-43.5 18.5
t-43.5 -18.5t-18.5 -43.5z" />
    <glyph glyph-name="Uacute" unicode="&#xda;" horiz-adv-x="684" 
d="M613 712v-478q0 -120 -72 -186t-199 -66t-199 66t-72 186v478h94v-462q0 -186 177 -186t177 186v462h94zM281 790l89 141h108l-130 -141h-67z" />
    <glyph glyph-name="Uhungarumlaut" unicode="&#x170;" horiz-adv-x="684" 
d="M613 712v-478q0 -120 -72 -186t-199 -66t-199 66t-72 186v478h94v-462q0 -186 177 -186t177 186v462h94zM192 790l89 141h109l-131 -141h-67zM374 790l89 141h109l-133 -141h-65z" />
    <glyph glyph-name="Udieresis" unicode="&#xdc;" horiz-adv-x="684" 
d="M613 712v-478q0 -120 -72 -186t-199 -66t-199 66t-72 186v478h94v-462q0 -186 177 -186t177 186v462h94zM219 804v100h88v-100h-88zM379 804v100h88v-100h-88z" />
    <glyph glyph-name="Yacute" unicode="&#xdd;" horiz-adv-x="628" 
d="M252 790l89 141h108l-130 -141h-67zM267 0v328l-256 384h113l190 -295l190 295h113l-256 -384v-328h-94z" />
    <glyph glyph-name="Tcommaaccent" unicode="&#x162;" 
d="M238 -150v90h82v-90q0 -62 -30 -124h-37q19 58 19 124h-34zM231 0v630h-214v82h522v-82h-214v-630h-94z" />
    <glyph glyph-name="germandbls" unicode="&#xdf;" 
d="M505 237q0 -249 -218 -249q-41 0 -94 16v80q53 -20 101 -20q129 0 129 165q0 92 -68 129q-51 28 -155 28v77h18q11 -1 17 -1q133 0 133 99q0 93 -110 93q-113 0 -113 -118v-536h-82v532q0 94 51 146t143 52q193 0 193 -169q0 -45 -23 -81.5t-63 -51.5v-2q71 -14 108 -67
q33 -49 33 -122z" />
    <glyph glyph-name="racute" unicode="&#x155;" horiz-adv-x="333" 
d="M121 573l89 141h108l-130 -141h-67zM63 0v478h82v-82h2q29 48 67.5 68t101.5 20v-90q-32 2 -55 2q-55 0 -88 -43q-28 -38 -28 -85v-268h-82z" />
    <glyph glyph-name="aacute" unicode="&#xe1;" horiz-adv-x="500" 
d="M189 572l89 141h108l-130 -141h-67zM343 178v55q-122 -17 -164 -33q-63 -25 -63 -75q0 -73 92 -73q59 0 97 34t38 92zM343 287v42q0 52 -25.5 74.5t-86.5 22.5q-93 0 -98 -98l-82 5q16 157 181 157q193 0 193 -148v-222q0 -54 35 -54q12 0 25 5v-68q-28 -7 -51 -7
q-67 0 -83 66q-67 -74 -170 -74q-64 0 -108.5 38.5t-44.5 93.5q0 92 84 129q65 29 231 38z" />
    <glyph glyph-name="acircumflex" unicode="&#xe2;" horiz-adv-x="500" 
d="M343 178v55q-122 -17 -164 -33q-63 -25 -63 -75q0 -73 92 -73q59 0 97 34t38 92zM343 287v42q0 52 -25.5 74.5t-86.5 22.5q-93 0 -98 -98l-82 5q16 157 181 157q193 0 193 -148v-222q0 -54 35 -54q12 0 25 5v-68q-28 -7 -51 -7q-67 0 -83 66q-67 -74 -170 -74
q-64 0 -108.5 38.5t-44.5 93.5q0 92 84 129q65 29 231 38zM105 572l99 141h92l101 -141h-81l-66 95l-66 -95h-79z" />
    <glyph glyph-name="abreve" unicode="&#x103;" horiz-adv-x="500" 
d="M343 178v55q-122 -17 -164 -33q-63 -25 -63 -75q0 -73 92 -73q59 0 97 34t38 92zM343 287v42q0 52 -25.5 74.5t-86.5 22.5q-93 0 -98 -98l-82 5q16 157 181 157q193 0 193 -148v-222q0 -54 35 -54q12 0 25 5v-68q-28 -7 -51 -7q-67 0 -83 66q-67 -74 -170 -74
q-64 0 -108.5 38.5t-44.5 93.5q0 92 84 129q65 29 231 38zM95 711h52q10 -77 102 -77q84 0 102 77h52q-8 -64 -47.5 -99.5t-103.5 -35.5q-146 0 -157 135z" />
    <glyph glyph-name="cacute" unicode="&#x107;" horiz-adv-x="519" 
d="M218 572l89 141h108l-130 -141h-67zM486 329l-88 -9q-9 49 -43.5 77.5t-83.5 28.5q-79 0 -118 -61q-31 -50 -31 -127q0 -78 33 -128q39 -58 114 -58q61 0 98 34.5t39 94.5l88 -7q-10 -86 -70.5 -136t-151.5 -50q-113 0 -175.5 67t-62.5 179q0 114 62 185t175 71
q79 0 136 -40q62 -43 79 -121z" />
    <glyph glyph-name="ccedilla" unicode="&#xe7;" horiz-adv-x="519" 
d="M187 -86l56 76q-100 9 -156 77q-53 65 -53 167q0 114 61 183q63 73 176 73q80 0 138 -41q60 -44 77 -120l-88 -9q-9 48 -43.5 77t-83.5 29q-77 0 -116 -58q-33 -49 -33 -130q0 -79 33 -128q39 -58 114 -58q61 0 98 34.5t39 94.5l88 -7q-10 -82 -65 -131t-139 -54l-38 -51
h2q5 0 15 2t15 2q35 0 59 -19.5t24 -54.5q0 -43 -36 -70q-33 -23 -78 -23q-47 0 -100 22l17 40q36 -15 65 -15q56 0 56 40t-48 40q-17 0 -39 -7z" />
    <glyph glyph-name="ccaron" unicode="&#x10d;" horiz-adv-x="519" 
d="M217 571l-99 141h80l65 -95l66 95h81l-101 -141h-92zM486 329l-88 -9q-9 49 -43.5 77.5t-83.5 28.5q-79 0 -118 -61q-31 -50 -31 -127q0 -78 33 -128q39 -58 114 -58q61 0 98 34.5t39 94.5l88 -7q-10 -86 -70.5 -136t-151.5 -50q-113 0 -175.5 67t-62.5 179q0 114 62 185
t175 71q79 0 136 -40q62 -43 79 -121z" />
    <glyph glyph-name="eacute" unicode="&#xe9;" horiz-adv-x="519" 
d="M200 573l89 141h108l-130 -141h-67zM485 221h-363q0 -74 37 -120q39 -49 107 -49q107 0 134 107l81 -10q-46 -159 -218 -161q-106 -1 -169 72q-60 69 -60 175q0 120 57.5 187.5t170.5 67.5q108 0 168 -72q55 -67 55 -178v-19zM122 285h275q-18 141 -144 141
q-57 0 -94 -43q-33 -40 -37 -98z" />
    <glyph glyph-name="eogonek" unicode="&#x119;" horiz-adv-x="519" 
d="M122 285h275q-18 141 -144 141q-57 0 -94 -43q-33 -39 -37 -98zM345 -168v-46q-24 -9 -51 -9q-44 0 -74.5 26.5t-30.5 70.5q0 52 82 114h-8q-107 -1 -169 70q-60 68 -60 177q0 118 54 184q59 71 174 71q117 0 174 -79q49 -69 49 -190h-363q0 -72 35 -118q39 -51 109 -51
q107 0 134 107l81 -10q-33 -116 -134 -149q-82 -93 -82 -130q0 -47 40 -47q22 0 40 9z" />
    <glyph glyph-name="edieresis" unicode="&#xeb;" horiz-adv-x="519" 
d="M485 221h-363q0 -74 37 -120q39 -49 107 -49q107 0 134 107l81 -10q-46 -159 -218 -161q-106 -1 -169 72q-60 69 -60 175q0 120 57.5 187.5t170.5 67.5q108 0 168 -72q55 -67 55 -178v-19zM122 285h275q-18 141 -144 141q-57 0 -94 -43q-33 -40 -37 -98zM136 587v100h88
v-100h-88zM296 587v100h88v-100h-88z" />
    <glyph glyph-name="ecaron" unicode="&#x11b;" horiz-adv-x="519" 
d="M216 570l-99 141h80l65 -95l66 95h81l-101 -141h-92zM485 221h-363q0 -74 37 -120q39 -49 107 -49q107 0 134 107l81 -10q-46 -159 -218 -161q-106 -1 -169 72q-60 69 -60 175q0 120 57.5 187.5t170.5 67.5q108 0 168 -72q55 -67 55 -178v-19zM122 285h275
q-18 141 -144 141q-57 0 -94 -43q-33 -40 -37 -98z" />
    <glyph glyph-name="iacute" unicode="&#xed;" horiz-adv-x="204" 
d="M41 573l89 141h108l-130 -141h-67zM61 0v478h82v-478h-82z" />
    <glyph glyph-name="icircumflex" unicode="&#xee;" horiz-adv-x="204" 
d="M61 0v478h82v-478h-82zM-44 572l99 141h92l101 -141h-81l-66 95l-66 -95h-79z" />
    <glyph glyph-name="dcaron" unicode="&#x10f;" horiz-adv-x="637" 
d="M547 623v90h82v-90q0 -62 -30 -124h-37q19 58 19 124h-34zM499 712v-712h-82v57h-2q-49 -69 -146 -69q-123 0 -184 78q-51 65 -51 173q0 106 53 174q60 77 175 77q101 0 153 -72h2v294h82zM122 239q0 -78 35 -126q39 -55 114 -55t114 55q35 48 35 126q0 75 -39 126
q-42 55 -110 55q-75 0 -114 -55q-35 -48 -35 -126z" />
    <glyph glyph-name="dcroat" unicode="&#x111;" 
d="M122 239q0 -77 35 -126q39 -55 114 -55t114 55q35 49 35 126q0 73 -37 124q-42 57 -112 57q-75 0 -114 -55q-35 -49 -35 -126zM216 582v52h201v78h82v-78h51v-52h-51v-582h-82v57h-2q-49 -69 -146 -69q-115 0 -176 69q-59 65 -59 182q0 112 57 179q61 72 171 72
q101 0 153 -72h2v164h-201z" />
    <glyph glyph-name="nacute" unicode="&#x144;" horiz-adv-x="519" 
d="M63 0v478h82v-64h2q49 76 140 76q169 0 169 -175v-315h-82v307q0 107 -101 107q-57 0 -92.5 -34.5t-35.5 -91.5v-288h-82zM219 569l89 141h108l-130 -141h-67z" />
    <glyph glyph-name="ncaron" unicode="&#x148;" horiz-adv-x="519" 
d="M223 573l-99 141h80l65 -95l66 95h81l-101 -141h-92zM63 0v478h82v-64h2q49 76 140 76q169 0 169 -175v-315h-82v307q0 107 -101 107q-57 0 -92.5 -34.5t-35.5 -91.5v-288h-82z" />
    <glyph glyph-name="oacute" unicode="&#xf3;" horiz-adv-x="536" 
d="M207 573l89 141h108l-130 -141h-67zM34 239q0 111 63 181t171 70t171 -70t63 -181t-63 -181t-171 -70t-171 70t-63 181zM122 239q0 -74 29 -123q37 -64 117 -64t117 64q29 49 29 123t-29 123q-37 64 -117 64t-117 -64q-29 -49 -29 -123z" />
    <glyph glyph-name="ocircumflex" unicode="&#xf4;" horiz-adv-x="536" 
d="M34 239q0 111 63 181t171 70t171 -70t63 -181t-63 -181t-171 -70t-171 70t-63 181zM122 239q0 -74 29 -123q37 -64 117 -64t117 64q29 49 29 123t-29 123q-37 64 -117 64t-117 -64q-29 -49 -29 -123zM122 573l99 141h92l101 -141h-81l-66 95l-66 -95h-79z" />
    <glyph glyph-name="ohungarumlaut" unicode="&#x151;" horiz-adv-x="536" 
d="M34 239q0 111 63 181t171 70t171 -70t63 -181t-63 -181t-171 -70t-171 70t-63 181zM122 239q0 -74 29 -123q37 -64 117 -64t117 64q29 49 29 123t-29 123q-37 64 -117 64t-117 -64q-29 -49 -29 -123zM121 573l89 141h109l-131 -141h-67zM303 573l89 141h109l-133 -141
h-65z" />
    <glyph glyph-name="odieresis" unicode="&#xf6;" horiz-adv-x="536" 
d="M34 239q0 111 63 181t171 70t171 -70t63 -181t-63 -181t-171 -70t-171 70t-63 181zM122 239q0 -74 29 -123q37 -64 117 -64t117 64q29 49 29 123t-29 123q-37 64 -117 64t-117 -64q-29 -49 -29 -123zM144 584v100h88v-100h-88zM304 584v100h88v-100h-88z" />
    <glyph glyph-name="divide" unicode="&#xf7;" horiz-adv-x="600" 
d="M47 218v70h506v-70h-506zM240 458q0 25 17.5 42.5t42.5 17.5q24 0 42 -18t18 -42q0 -23 -18 -41.5t-41 -18.5q-25 0 -43 17.5t-18 42.5zM240 48q0 25 17.5 42.5t42.5 17.5q24 0 42 -18t18 -42q0 -23 -18 -41.5t-41 -18.5q-25 0 -43 17.5t-18 42.5z" />
    <glyph glyph-name="rcaron" unicode="&#x159;" horiz-adv-x="333" 
d="M135 572l-99 141h80l65 -95l66 95h81l-101 -141h-92zM63 0v478h82v-82h2q29 48 67.5 68t101.5 20v-90q-32 2 -55 2q-55 0 -88 -43q-28 -38 -28 -85v-268h-82z" />
    <glyph glyph-name="uring" unicode="&#x16f;" horiz-adv-x="519" 
d="M456 478v-478h-82v64h-2q-49 -76 -140 -76q-169 0 -169 175v315h82v-315q0 -99 101 -99q57 0 92.5 34.5t35.5 91.5v288h82zM157 657q0 42 30 72t72 30t72 -30t30 -72t-30 -72t-72 -30t-72 30t-30 72zM197 657q0 -25 18.5 -43.5t43.5 -18.5t43.5 18.5t18.5 43.5
t-18.5 43.5t-43.5 18.5t-43.5 -18.5t-18.5 -43.5z" />
    <glyph glyph-name="uacute" unicode="&#xfa;" horiz-adv-x="519" 
d="M456 478v-478h-82v64h-2q-49 -76 -140 -76q-169 0 -169 175v315h82v-315q0 -99 101 -99q57 0 92.5 34.5t35.5 91.5v288h82zM201 575l89 141h108l-130 -141h-67z" />
    <glyph glyph-name="uhungarumlaut" unicode="&#x171;" horiz-adv-x="519" 
d="M456 478v-478h-82v64h-2q-49 -76 -140 -76q-169 0 -169 175v315h82v-315q0 -99 101 -99q57 0 92.5 34.5t35.5 91.5v288h82zM113 572l89 141h109l-131 -141h-67zM295 572l89 141h109l-133 -141h-65z" />
    <glyph glyph-name="udieresis" unicode="&#xfc;" horiz-adv-x="519" 
d="M456 478v-478h-82v64h-2q-49 -76 -140 -76q-169 0 -169 175v315h82v-315q0 -99 101 -99q57 0 92.5 34.5t35.5 91.5v288h82zM136 586v100h88v-100h-88zM296 586v100h88v-100h-88z" />
    <glyph glyph-name="yacute" unicode="&#xfd;" horiz-adv-x="444" 
d="M166 572l89 141h108l-130 -141h-67zM222 117l125 361h84l-207 -583q-23 -64 -47 -92q-35 -39 -95 -39q-29 0 -69 14v71q30 -9 53 -9q53 0 77 67l33 92l-161 479h87l118 -361h2z" />
    <glyph glyph-name="tcommaaccent" unicode="&#x163;" horiz-adv-x="278" 
d="M122 -150v90h82v-90q0 -62 -30 -124h-37q19 58 19 124h-34zM7 408v70h79v149h82v-149h89v-70h-89v-304q0 -23 4 -32q7 -14 29 -14q23 0 51 10v-70q-45 -10 -81 -10q-57 0 -74 27q-11 17 -11 67v326h-79z" />
    <glyph glyph-name="dotaccent" unicode="&#x2d9;" horiz-adv-x="204" 
d="M58 596v100h88v-100h-88z" />
    <glyph glyph-name="kcommaaccent" unicode="&#x137;" horiz-adv-x="481" 
d="M217 -150v90h82v-90q0 -62 -30 -124h-37q19 58 19 124h-34zM63 0v712h82v-439l188 203h99l-174 -189l215 -287h-103l-168 228l-57 -61v-167h-82z" />
    <glyph glyph-name="Gcommaaccent" unicode="&#x122;" horiz-adv-x="815" 
d="M368 -150v90h82v-90q0 -62 -30 -124h-37q19 58 19 124h-34zM662 -6v105h-2q-78 -117 -253 -117q-165 0 -261.5 103t-96.5 271q0 148 93 256q102 118 265 118q117 0 205 -53q92 -56 129 -157l-94 -25q-53 153 -240 153q-115 0 -188 -86q-68 -81 -68 -200q0 -127 62 -208
q69 -90 194 -90q115 0 182 58q71 60 71 171h-246v82h330v-381h-82z" />
    <glyph glyph-name="Kcommaaccent" unicode="&#x136;" horiz-adv-x="648" 
d="M295 -150v90h82v-90q0 -62 -30 -124h-37q19 58 19 124h-34zM71 0v712h94v-345l339 345h116l-286 -294l297 -418h-114l-248 350l-104 -102v-248h-94z" />
    <glyph glyph-name="Idotaccent" unicode="&#x130;" horiz-adv-x="258" 
d="M82 0v712h94v-712h-94zM85 804v100h88v-100h-88z" />
    <glyph glyph-name="lcommaaccent" unicode="&#x13c;" horiz-adv-x="204" 
d="M61 0v712h82v-712h-82zM61 -150v90h82v-90q0 -62 -30 -124h-37q19 58 19 124h-34z" />
    <glyph glyph-name="gcommaaccent" unicode="&#x123;" 
d="M310 662v-90h-82v90q0 62 30 124h37q-19 -58 -19 -124h34zM263 420q-66 0 -105 -44q-42 -48 -42 -137q0 -78 38 -128q40 -53 109 -53t113 56q43 53 41 128q-4 178 -154 178zM417 412v66h82v-482q0 -220 -220 -220q-94 0 -152 40q-65 46 -70 135h88q-1 -55 38 -84
q36 -27 93 -27q91 0 123 57q18 34 18 109v68h-2q-67 -86 -163 -86q-82 0 -140 49q-78 66 -78 202q0 111 53 178q58 73 166 73q115 0 162 -77z" />
    <glyph glyph-name="ncommaaccent" unicode="&#x149;" horiz-adv-x="519" 
d="M218 -150v90h82v-90q0 -62 -30 -124h-37q19 58 19 124h-34zM63 0v478h82v-64h2q49 76 140 76q169 0 169 -175v-315h-82v307q0 107 -101 107q-57 0 -92.5 -34.5t-35.5 -91.5v-288h-82z" />
    <glyph glyph-name="Lcommaaccent" unicode="&#x13b;" 
d="M255 -150v90h82v-90q0 -62 -30 -124h-37q19 58 19 124h-34zM71 0v712h94v-630h355v-82h-449z" />
    <glyph glyph-name="rcommaaccent" unicode="&#x157;" horiz-adv-x="333" 
d="M64 -150v90h82v-90q0 -62 -30 -124h-37q19 58 19 124h-34zM63 0v478h82v-82h2q29 48 67.5 68t101.5 20v-90q-32 2 -55 2q-55 0 -88 -43q-28 -38 -28 -85v-268h-82z" />
    <glyph glyph-name="Rcommaaccent" unicode="&#x156;" horiz-adv-x="667" 
d="M303 -150v90h82v-90q0 -62 -30 -124h-37q19 58 19 124h-34zM71 0v712h322q98 0 157 -42q72 -52 72 -163q0 -172 -165 -199l196 -308h-114l-192 302h-182v-302h-94zM165 630v-246h213q150 0 150 123t-150 123h-213z" />
    <glyph glyph-name="Edotaccent" unicode="&#x116;" horiz-adv-x="611" 
d="M282 804v100h88v-100h-88zM71 0v712h500v-82h-406v-220h353v-82h-353v-246h416v-82h-510z" />
    <glyph glyph-name="edotaccent" unicode="&#x117;" horiz-adv-x="519" 
d="M215 587v100h88v-100h-88zM485 221h-363q0 -74 37 -120q39 -49 107 -49q107 0 134 107l81 -10q-46 -159 -218 -161q-106 -1 -169 72q-60 69 -60 175q0 120 57.5 187.5t170.5 67.5q108 0 168 -72q55 -67 55 -178v-19zM122 285h275q-18 141 -144 141q-57 0 -94 -43
q-33 -40 -37 -98z" />
    <glyph glyph-name="commaaccent" unicode="&#x326;" horiz-adv-x="278" 
d="M98 -150v90h82v-90q0 -62 -30 -124h-37q19 58 19 124h-34z" />
    <glyph glyph-name="Ncommaaccent" unicode="&#x145;" horiz-adv-x="704" 
d="M311 -150v90h82v-90q0 -62 -30 -124h-37q19 58 19 124h-34zM71 0v712h95l377 -562h2v562h88v-712h-94l-378 561h-2v-561h-88z" />
    <glyph glyph-name="uogonek" unicode="&#x173;" horiz-adv-x="519" 
d="M437 -169v-46q-24 -9 -51 -9q-44 0 -74.5 26.5t-30.5 70.5q0 56 100 127h-7v64h-2q-49 -76 -140 -76q-169 0 -169 175v315h82v-315q0 -99 101 -99q57 0 92.5 34.5t35.5 91.5v288h82v-478h-11q-88 -95 -88 -131q0 -47 40 -47q22 0 40 9z" />
    <glyph glyph-name="Uogonek" unicode="&#x172;" horiz-adv-x="684" 
d="M416 -187v-46q-24 -9 -51 -9q-44 0 -74.5 26.5t-30.5 70.5q0 56 97 127h-15q-124 0 -196 63q-75 66 -75 189v478h94v-462q0 -186 177 -186t177 186v462h94v-478q0 -197 -179 -241q-98 -107 -98 -142q0 -47 40 -47q22 0 40 9z" />
    <glyph glyph-name="umacron" unicode="&#x16b;" horiz-adv-x="519" 
d="M122 622v58h274v-58h-274zM456 478v-478h-82v64h-2q-49 -76 -140 -76q-169 0 -169 175v315h82v-315q0 -99 101 -99q57 0 92.5 34.5t35.5 91.5v288h82z" />
    <glyph glyph-name="Umacron" unicode="&#x16a;" horiz-adv-x="684" 
d="M205 830v58h274v-58h-274zM613 712v-478q0 -120 -72 -186t-199 -66t-199 66t-72 186v478h94v-462q0 -186 177 -186t177 186v462h94z" />
    <glyph glyph-name="scedilla" unicode="&#x15f;" horiz-adv-x="481" 
d="M128 -203l17 40q37 -15 65 -15q56 0 56 40t-48 40q-16 0 -39 -7l-17 19l56 75q-78 6 -127 46q-53 44 -60 122l88 11q0 -58 40 -89q36 -27 96 -27q107 0 107 82q0 48 -81 69q-75 18 -150 37q-81 33 -81 111q0 68 58 106q50 33 122 33q79 0 137 -38q68 -43 68 -118l-82 -11
q0 50 -36 78q-32 25 -83 25q-102 0 -102 -71q0 -43 82 -63q143 -37 154 -41q82 -37 82 -116q0 -69 -60 -109q-50 -32 -125 -37l-38 -51h2q5 0 15 2t15 2q35 0 59 -19.5t24 -54.5q0 -43 -36 -70q-33 -23 -78 -23q-47 0 -100 22z" />
    <glyph glyph-name="Scedilla" unicode="&#x15e;" horiz-adv-x="667" 
d="M235 -203l17 40q37 -15 65 -15q56 0 56 40t-48 40q-16 0 -39 -7l-17 19l51 69q-265 15 -281 248l102 9q7 -182 209 -182q75 0 122 33q54 37 54 109q0 79 -117 113q-48 14 -149 38q-23 5 -69 17q-54 18 -85.5 60.5t-31.5 98.5q0 98 81 154q72 49 174 49q116 0 191 -53
q82 -58 96 -169l-97 -5q-4 76 -57 115q-49 36 -127 36q-63 0 -105 -22q-54 -28 -54 -85q0 -73 117 -107q59 -17 161 -43q19 -4 57 -15q55 -20 86 -69t31 -110q0 -104 -82 -164q-71 -53 -179 -57l-33 -44h2q5 0 15 2t15 2q35 0 59 -19.5t24 -54.5q0 -43 -36 -70
q-33 -23 -78 -23q-47 0 -100 22z" />
    <glyph glyph-name="omacron" unicode="&#x14d;" horiz-adv-x="536" 
d="M34 239q0 111 63 181t171 70t171 -70t63 -181t-63 -181t-171 -70t-171 70t-63 181zM122 239q0 -74 29 -123q37 -64 117 -64t117 64q29 49 29 123t-29 123q-37 64 -117 64t-117 -64q-29 -49 -29 -123zM131 622v58h274v-58h-274z" />
    <glyph glyph-name="Omacron" unicode="&#x14c;" horiz-adv-x="814" 
d="M270 830v58h274v-58h-274zM49 356q0 168 96.5 271t261.5 103t261.5 -103t96.5 -271t-96.5 -271t-261.5 -103t-261.5 103t-96.5 271zM151 356q0 -127 62 -208q69 -90 194 -90t194 90q62 81 62 208t-62 208q-69 90 -194 90t-194 -90q-62 -81 -62 -208z" />
    <glyph glyph-name="iogonek" unicode="&#x12f;" horiz-adv-x="204" 
d="M61 618v94h82v-94h-82zM129 -169v-46q-24 -9 -51 -9q-44 0 -74.5 26.5t-30.5 70.5q0 56 100 127h-12v478h82v-478h-6q-88 -95 -88 -131q0 -47 40 -47q22 0 40 9z" />
    <glyph glyph-name="Iogonek" unicode="&#x12e;" horiz-adv-x="258" 
d="M156 -169v-46q-24 -9 -51 -9q-44 0 -74.5 26.5t-30.5 70.5q0 56 100 127h-18v712h94v-712h-12q-88 -95 -88 -131q0 -47 40 -47q22 0 40 9z" />
    <glyph glyph-name="imacron" unicode="&#x12b;" horiz-adv-x="204" 
d="M61 0v478h82v-478h-82zM-35 622v58h274v-58h-274z" />
    <glyph glyph-name="Imacron" unicode="&#x12a;" horiz-adv-x="258" 
d="M-7 830v58h274v-58h-274zM82 0v712h94v-712h-94z" />
    <glyph glyph-name="gbreve" unicode="&#x11f;" 
d="M108 710h52q10 -77 102 -77q84 0 102 77h52q-8 -64 -47.5 -99.5t-103.5 -35.5q-146 0 -157 135zM263 420q-66 0 -105 -44q-42 -48 -42 -137q0 -78 38 -128q40 -53 109 -53t113 56q43 53 41 128q-4 178 -154 178zM417 412v66h82v-482q0 -220 -220 -220q-94 0 -152 40
q-65 46 -70 135h88q-1 -55 38 -84q36 -27 93 -27q91 0 123 57q18 34 18 109v68h-2q-67 -86 -163 -86q-82 0 -140 49q-78 66 -78 202q0 111 53 178q58 73 166 73q115 0 162 -77z" />
    <glyph glyph-name="Gbreve" unicode="&#x11e;" horiz-adv-x="815" 
d="M246 931h52q10 -77 102 -77q84 0 102 77h52q-8 -64 -47.5 -99.5t-103.5 -35.5q-146 0 -157 135zM662 -6v105h-2q-78 -117 -253 -117q-165 0 -261.5 103t-96.5 271q0 148 93 256q102 118 265 118q117 0 205 -53q92 -56 129 -157l-94 -25q-53 153 -240 153q-115 0 -188 -86
q-68 -81 -68 -200q0 -127 62 -208q69 -90 194 -90q115 0 182 58q71 60 71 171h-246v82h330v-381h-82z" />
    <glyph glyph-name="emacron" unicode="&#x113;" horiz-adv-x="519" 
d="M122 622v58h274v-58h-274zM485 221h-363q0 -74 37 -120q39 -49 107 -49q107 0 134 107l81 -10q-46 -159 -218 -161q-106 -1 -169 72q-60 69 -60 175q0 120 57.5 187.5t170.5 67.5q108 0 168 -72q55 -67 55 -178v-19zM122 285h275q-18 141 -144 141q-57 0 -94 -43
q-33 -40 -37 -98z" />
    <glyph glyph-name="Emacron" unicode="&#x112;" horiz-adv-x="611" 
d="M190 830v58h274v-58h-274zM71 0v712h500v-82h-406v-220h353v-82h-353v-246h416v-82h-510z" />
    <glyph glyph-name="amacron" unicode="&#x101;" horiz-adv-x="500" 
d="M118 622v58h274v-58h-274zM343 178v55q-122 -17 -164 -33q-63 -25 -63 -75q0 -73 92 -73q59 0 97 34t38 92zM343 287v42q0 52 -25.5 74.5t-86.5 22.5q-93 0 -98 -98l-82 5q16 157 181 157q193 0 193 -148v-222q0 -54 35 -54q12 0 25 5v-68q-28 -7 -51 -7q-67 0 -83 66
q-67 -74 -170 -74q-64 0 -108.5 38.5t-44.5 93.5q0 92 84 129q65 29 231 38z" />
    <glyph glyph-name="Amacron" unicode="&#x100;" horiz-adv-x="648" 
d="M187 830v58h274v-58h-274zM9 0l272 712h100l258 -712h-101l-76 218h-270l-82 -218h-101zM433 300l-102 295h-2l-108 -295h212z" />
    <glyph glyph-name="Ydieresis" unicode="&#x178;" horiz-adv-x="628" 
d="M190 804v100h88v-100h-88zM350 804v100h88v-100h-88zM267 0v328l-256 384h113l190 -295l190 295h113l-256 -384v-328h-94z" />
    <glyph glyph-name="lozenge" unicode="&#x25ca;" horiz-adv-x="494" 
d="M272 0h-60l-194 377l194 368h60l194 -368zM406 377l-164 314l-164 -314l164 -323z" />
    <glyph glyph-name="Delta" unicode="&#x394;" horiz-adv-x="612" 
d="M326 688l282 -688h-602zM290 517l-218 -468h412z" />
    <glyph glyph-name="Delta" unicode="&#x2206;" horiz-adv-x="612" 
d="M326 688l282 -688h-602zM290 517l-218 -468h412z" />
    <glyph glyph-name="radical" unicode="&#x221a;" horiz-adv-x="549" 
d="M26 417l-16 33l146 72l197 -403l127 798l35 -5l-150 -950l-243 502z" />
    <glyph glyph-name="summation" unicode="&#x2211;" horiz-adv-x="713" 
d="M617 745l6 -159h-20q-22 71 -50.5 92.5t-102.5 21.5h-263l273 -358l-294 -339h371q60 0 89 29q21 20 46 84h23q-31 -128 -43 -224q-69 11 -77 11h-503q-10 0 -29.5 -1.5t-28.5 -1.5l349 398l-347 454l93 -6q5 0 11 -1h497z" />
    <glyph glyph-name="partialdiff" unicode="&#x2202;" horiz-adv-x="494" 
d="M104 667l-39 50q66 29 131 29q131 0 204 -116q62 -98 62 -237q0 -147 -52 -263q-67 -151 -195 -151q-82 0 -135.5 58t-53.5 141t54 151q57 73 138 73q47 0 85 -19q23 -12 71 -49q11 62 11 125q0 83 -32 149q-39 82 -112 90q-9 1 -31 1q-36 0 -106 -32zM366 299
q-33 37 -46 46q-26 18 -62 18q-69 0 -111 -76q-35 -64 -35 -139q0 -139 90 -139q129 0 164 290z" />
    <glyph glyph-name="greaterequal" unicode="&#x2265;" horiz-adv-x="549" 
d="M526 55v-55h-497v55h497zM526 409v-62l-497 -230v62l433 199l-433 199v62z" />
    <glyph glyph-name="lessequal" unicode="&#x2264;" horiz-adv-x="549" 
d="M29 0v55h497v-55h-497zM29 347v62l497 230v-62l-433 -199l433 -199v-62z" />
    <glyph glyph-name="notequal" unicode="&#x2260;" horiz-adv-x="549" 
d="M402 549l49 -28l-76 -136h165v-55h-195l-78 -139h273v-55h-303l-90 -161l-49 28l74 133h-157v55h188l77 139h-265v55h296z" />
    <glyph glyph-name="ydieresis" unicode="&#xff;" horiz-adv-x="444" 
d="M98 586v100h88v-100h-88zM258 586v100h88v-100h-88zM222 117l125 361h84l-207 -583q-23 -64 -47 -92q-35 -39 -95 -39q-29 0 -69 14v71q30 -9 53 -9q53 0 77 67l33 92l-161 479h87l118 -361h2z" />
    <glyph glyph-name="thorn" unicode="&#xfe;" 
d="M57 712h82v-291h1q51 69 147 69q235 0 235 -251q0 -108 -50 -173q-60 -78 -178 -78q-100 0 -153 72h-2v-284h-82v936zM434 239q0 78 -35 126q-39 55 -114 55t-114 -55q-35 -48 -35 -126q0 -75 39 -126q42 -55 110 -55q75 0 114 55q35 48 35 126z" />
    <glyph glyph-name="ucircumflex" unicode="&#xfb;" horiz-adv-x="519" 
d="M114 572l99 141h92l101 -141h-81l-66 95l-66 -95h-79zM456 478v-478h-82v64h-2q-49 -76 -140 -76q-169 0 -169 175v315h82v-315q0 -99 101 -99q57 0 92.5 34.5t35.5 91.5v288h82z" />
    <glyph glyph-name="ugrave" unicode="&#xf9;" horiz-adv-x="519" 
d="M456 478v-478h-82v64h-2q-49 -76 -140 -76q-169 0 -169 175v315h82v-315q0 -99 101 -99q57 0 92.5 34.5t35.5 91.5v288h82zM254 572l-130 141h108l89 -141h-67z" />
    <glyph glyph-name="otilde" unicode="&#xf5;" horiz-adv-x="536" 
d="M146 581h-48q4 47 31 77.5t73 30.5q26 0 72 -18.5t62 -18.5q54 0 54 45h48q-6 -46 -31 -76q-29 -33 -73 -33q-25 0 -72 18.5t-72 18.5q-16 0 -30 -14t-14 -30zM34 239q0 111 63 181t171 70t171 -70t63 -181t-63 -181t-171 -70t-171 70t-63 181zM122 239q0 -74 29 -123
q37 -64 117 -64t117 64q29 49 29 123t-29 123q-37 64 -117 64t-117 -64q-29 -49 -29 -123z" />
    <glyph glyph-name="ograve" unicode="&#xf2;" horiz-adv-x="536" 
d="M34 239q0 111 63 181t171 70t171 -70t63 -181t-63 -181t-171 -70t-171 70t-63 181zM122 239q0 -74 29 -123q37 -64 117 -64t117 64q29 49 29 123t-29 123q-37 64 -117 64t-117 -64q-29 -49 -29 -123zM262 572l-130 141h108l89 -141h-67z" />
    <glyph glyph-name="ntilde" unicode="&#xf1;" horiz-adv-x="519" 
d="M138 581h-48q4 47 31 77.5t73 30.5q26 0 72 -18.5t62 -18.5q54 0 54 45h48q-6 -46 -31 -76q-29 -33 -73 -33q-25 0 -72 18.5t-72 18.5q-16 0 -30 -14t-14 -30zM63 0v478h82v-64h2q49 76 140 76q169 0 169 -175v-315h-82v307q0 107 -101 107q-57 0 -92.5 -34.5
t-35.5 -91.5v-288h-82z" />
    <glyph glyph-name="eth" unicode="&#xf0;" horiz-adv-x="536" 
d="M144 542l-34 34l97 54q-12 11 -79 50l64 50q45 -22 91 -57l101 57l34 -34l-95 -54q179 -150 179 -372q0 -125 -56 -200q-62 -82 -178 -82q-108 0 -171 70t-63 181t63 181t171 70q64 0 105 -46v3q-43 97 -124 154zM122 239q0 -74 29 -123q37 -64 117 -64t117 64
q29 49 29 123t-29 123q-37 64 -117 64t-117 -64q-29 -49 -29 -123z" />
    <glyph glyph-name="idieresis" unicode="&#xef;" horiz-adv-x="204" 
d="M61 0v478h82v-478h-82zM-22 586v100h88v-100h-88zM138 586v100h88v-100h-88z" />
    <glyph glyph-name="igrave" unicode="&#xec;" horiz-adv-x="204" 
d="M61 0v478h82v-478h-82zM96 572l-130 141h108l89 -141h-67z" />
    <glyph glyph-name="ecircumflex" unicode="&#xea;" horiz-adv-x="519" 
d="M114 572l99 141h92l101 -141h-81l-66 95l-66 -95h-79zM485 221h-363q0 -74 37 -120q39 -49 107 -49q107 0 134 107l81 -10q-46 -159 -218 -161q-106 -1 -169 72q-60 69 -60 175q0 120 57.5 187.5t170.5 67.5q108 0 168 -72q55 -67 55 -178v-19zM122 285h275
q-18 141 -144 141q-57 0 -94 -43q-33 -40 -37 -98z" />
    <glyph glyph-name="egrave" unicode="&#xe8;" horiz-adv-x="519" 
d="M485 221h-363q0 -74 37 -120q39 -49 107 -49q107 0 134 107l81 -10q-46 -159 -218 -161q-106 -1 -169 72q-60 69 -60 175q0 120 57.5 187.5t170.5 67.5q108 0 168 -72q55 -67 55 -178v-19zM122 285h275q-18 141 -144 141q-57 0 -94 -43q-33 -40 -37 -98zM254 572
l-130 141h108l89 -141h-67z" />
    <glyph glyph-name="aring" unicode="&#xe5;" horiz-adv-x="500" 
d="M343 178v55q-122 -17 -164 -33q-63 -25 -63 -75q0 -73 92 -73q59 0 97 34t38 92zM343 287v42q0 52 -25.5 74.5t-86.5 22.5q-93 0 -98 -98l-82 5q16 157 181 157q193 0 193 -148v-222q0 -54 35 -54q12 0 25 5v-68q-28 -7 -51 -7q-67 0 -83 66q-67 -74 -170 -74
q-64 0 -108.5 38.5t-44.5 93.5q0 92 84 129q65 29 231 38zM148 657q0 42 30 72t72 30t72 -30t30 -72t-30 -72t-72 -30t-72 30t-30 72zM188 657q0 -25 18.5 -43.5t43.5 -18.5t43.5 18.5t18.5 43.5t-18.5 43.5t-43.5 18.5t-43.5 -18.5t-18.5 -43.5z" />
    <glyph glyph-name="atilde" unicode="&#xe3;" horiz-adv-x="500" 
d="M343 178v55q-122 -17 -164 -33q-63 -25 -63 -75q0 -73 92 -73q59 0 97 34t38 92zM343 287v42q0 52 -25.5 74.5t-86.5 22.5q-93 0 -98 -98l-82 5q16 157 181 157q193 0 193 -148v-222q0 -54 35 -54q12 0 25 5v-68q-28 -7 -51 -7q-67 0 -83 66q-67 -74 -170 -74
q-64 0 -108.5 38.5t-44.5 93.5q0 92 84 129q65 29 231 38zM128 581h-48q4 47 31 77.5t73 30.5q26 0 72 -18.5t62 -18.5q54 0 54 45h48q-6 -46 -31 -76q-29 -33 -73 -33q-25 0 -72 18.5t-72 18.5q-16 0 -30 -14t-14 -30z" />
    <glyph glyph-name="agrave" unicode="&#xe0;" horiz-adv-x="500" 
d="M244 572l-130 141h108l89 -141h-67zM343 178v55q-122 -17 -164 -33q-63 -25 -63 -75q0 -73 92 -73q59 0 97 34t38 92zM343 287v42q0 52 -25.5 74.5t-86.5 22.5q-93 0 -98 -98l-82 5q16 157 181 157q193 0 193 -148v-222q0 -54 35 -54q12 0 25 5v-68q-28 -7 -51 -7
q-67 0 -83 66q-67 -74 -170 -74q-64 0 -108.5 38.5t-44.5 93.5q0 92 84 129q65 29 231 38z" />
    <glyph glyph-name="Thorn" unicode="&#xde;" horiz-adv-x="630" 
d="M71 0v712h94v-104h262q90 0 139 -59q47 -55 47 -146q0 -88 -53 -145.5t-141 -57.5h-254v-200h-94zM165 526v-244h218q136 0 136 122t-123 122h-231z" />
    <glyph glyph-name="Ucircumflex" unicode="&#xdb;" horiz-adv-x="684" 
d="M613 712v-478q0 -120 -72 -186t-199 -66t-199 66t-72 186v478h94v-462q0 -186 177 -186t177 186v462h94zM196 790l99 141h92l101 -141h-81l-66 95l-66 -95h-79z" />
    <glyph glyph-name="Ugrave" unicode="&#xd9;" horiz-adv-x="684" 
d="M613 712v-478q0 -120 -72 -186t-199 -66t-199 66t-72 186v478h94v-462q0 -186 177 -186t177 186v462h94zM336 790l-130 141h108l89 -141h-67z" />
    <glyph glyph-name="Otilde" unicode="&#xd5;" horiz-adv-x="814" 
d="M285 799h-48q4 47 31 77.5t73 30.5q26 0 72 -18.5t62 -18.5q54 0 54 45h48q-6 -46 -31 -76q-29 -33 -73 -33q-25 0 -72 18.5t-72 18.5q-16 0 -30 -14t-14 -30zM49 356q0 168 96.5 271t261.5 103t261.5 -103t96.5 -271t-96.5 -271t-261.5 -103t-261.5 103t-96.5 271z
M151 356q0 -127 62 -208q69 -90 194 -90t194 90q62 81 62 208t-62 208q-69 90 -194 90t-194 -90q-62 -81 -62 -208z" />
    <glyph glyph-name="Ograve" unicode="&#xd2;" horiz-adv-x="814" 
d="M49 356q0 168 96.5 271t261.5 103t261.5 -103t96.5 -271t-96.5 -271t-261.5 -103t-261.5 103t-96.5 271zM151 356q0 -127 62 -208q69 -90 194 -90t194 90q62 81 62 208t-62 208q-69 90 -194 90t-194 -90q-62 -81 -62 -208zM401 790l-130 141h108l89 -141h-67z" />
    <glyph glyph-name="Ntilde" unicode="&#xd1;" horiz-adv-x="704" 
d="M230 799h-48q4 47 31 77.5t73 30.5q26 0 72 -18.5t62 -18.5q54 0 54 45h48q-6 -46 -31 -76q-29 -33 -73 -33q-25 0 -72 18.5t-72 18.5q-16 0 -30 -14t-14 -30zM71 0v712h95l377 -562h2v562h88v-712h-94l-378 561h-2v-561h-88z" />
    <glyph glyph-name="Eth" unicode="&#xd0;" horiz-adv-x="704" 
d="M71 0v340h-68v70h68v302h269q157 0 239 -100q76 -93 76 -260q0 -159 -78 -252q-83 -100 -237 -100h-269zM165 340v-258h159q229 0 229 279q0 269 -221 269h-167v-220h204v-70h-204z" />
    <glyph glyph-name="Idieresis" unicode="&#xcf;" horiz-adv-x="258" 
d="M6 804v100h88v-100h-88zM166 804v100h88v-100h-88zM82 0v712h94v-712h-94z" />
    <glyph glyph-name="Igrave" unicode="&#xcc;" horiz-adv-x="258" 
d="M82 0v712h94v-712h-94zM124 790l-130 141h108l89 -141h-67z" />
    <glyph glyph-name="Ecircumflex" unicode="&#xca;" horiz-adv-x="611" 
d="M71 0v712h500v-82h-406v-220h353v-82h-353v-246h416v-82h-510zM160 790l99 141h92l101 -141h-81l-66 95l-66 -95h-79z" />
    <glyph glyph-name="Egrave" unicode="&#xc8;" horiz-adv-x="611" 
d="M71 0v712h500v-82h-406v-220h353v-82h-353v-246h416v-82h-510zM298 790l-130 141h108l89 -141h-67z" />
    <glyph glyph-name="Aring" unicode="&#xc5;" horiz-adv-x="648" 
d="M9 0l272 712h100l258 -712h-101l-76 218h-270l-82 -218h-101zM433 300l-102 295h-2l-108 -295h212zM229 900q0 42 30 72t72 30t72 -30t30 -72t-30 -72t-72 -30t-72 30t-30 72zM269 900q0 -25 18.5 -43.5t43.5 -18.5t43.5 18.5t18.5 43.5t-18.5 43.5t-43.5 18.5
t-43.5 -18.5t-18.5 -43.5z" />
    <glyph glyph-name="Atilde" unicode="&#xc3;" horiz-adv-x="648" 
d="M9 0l272 712h100l258 -712h-101l-76 218h-270l-82 -218h-101zM433 300l-102 295h-2l-108 -295h212zM202 799h-48q4 47 31 77.5t73 30.5q26 0 72 -18.5t62 -18.5q54 0 54 45h48q-6 -46 -31 -76q-29 -33 -73 -33q-25 0 -72 18.5t-72 18.5q-16 0 -30 -14t-14 -30z" />
    <glyph glyph-name="Agrave" unicode="&#xc0;" horiz-adv-x="648" 
d="M9 0l272 712h100l258 -712h-101l-76 218h-270l-82 -218h-101zM433 300l-102 295h-2l-108 -295h212zM318 790l-130 141h108l89 -141h-67z" />
    <glyph glyph-name="minus" unicode="&#xad;" horiz-adv-x="600" 
d="M47 218v70h506v-70h-506z" />
    <glyph glyph-name="minus" unicode="&#x2212;" horiz-adv-x="600" 
d="M47 218v70h506v-70h-506z" />
    <glyph glyph-name="threesuperior" unicode="&#xb3;" horiz-adv-x="361" 
d="M139 450v67h22q13 -1 20 -1q70 0 70 49q0 57 -68 57q-79 0 -77 -78l-70 3q5 139 148 139q71 0 110 -38q33 -32 33 -78q0 -67 -52 -83v-2q65 -24 65 -97q0 -45 -28 -76q-40 -44 -130 -44q-74 0 -117 35t-44 104h70q8 -75 92 -75q81 0 81 61q0 59 -85 59q-26 0 -40 -2z" />
    <glyph glyph-name="twosuperior" unicode="&#xb2;" horiz-adv-x="361" 
d="M40 274v62q72 35 134 93q73 70 73 125q0 68 -70 68q-67 0 -67 -61q0 -17 6 -51h-70q-6 26 -6 49q0 127 141 127q64 0 103 -36t39 -95q0 -67 -68 -134q-47 -47 -111 -81v-2h184v-64h-288z" />
    <glyph glyph-name="onesuperior" unicode="&#xb9;" horiz-adv-x="361" 
d="M160 274v286h-88v52q48 3 69 13q32 15 41 55h54v-406h-76z" />
    <glyph glyph-name="threequarters" unicode="&#xbe;" horiz-adv-x="834" 
d="M677 0v84h-191v61l205 261h62v-258h54v-64h-54v-84h-76zM677 148v155h-2l-119 -155h121zM225 -32l430 744h69l-430 -744h-69zM173 450v67h22q13 -1 20 -1q70 0 70 49q0 57 -68 57q-79 0 -77 -78l-70 3q5 139 148 139q71 0 110 -38q33 -32 33 -78q0 -67 -52 -83v-2
q65 -24 65 -97q0 -45 -28 -76q-40 -44 -130 -44q-74 0 -117 35t-44 104h70q8 -75 92 -75q81 0 81 61q0 59 -85 59q-26 0 -40 -2z" />
    <glyph glyph-name="onehalf" unicode="&#xbd;" horiz-adv-x="834" 
d="M118 -32l430 744h69l-430 -744h-69zM143 274v286h-88v52q49 3 72 14q29 15 38 54h54v-406h-76zM474 0v62q72 35 134 93q73 70 73 125q0 68 -70 68q-67 0 -67 -61q0 -17 6 -51h-70q-6 26 -6 49q0 127 141 127q64 0 103 -36t39 -95q0 -67 -68 -134q-47 -47 -111 -81v-2h184
v-64h-288z" />
    <glyph glyph-name="onequarter" unicode="&#xbc;" horiz-adv-x="834" 
d="M677 0v84h-191v61l205 261h62v-258h54v-64h-54v-84h-76zM677 148v155h-2l-119 -155h121zM165 -32l430 744h69l-430 -744h-69zM143 274v286h-88v52q49 3 72 14q29 15 38 54h54v-406h-76z" />
    <glyph glyph-name="oe" unicode="&#x153;" horiz-adv-x="870" 
d="M747 154l82 -12q-18 -73 -81 -115q-58 -39 -132 -39q-125 0 -181 92q-55 -92 -176 -92q-102 0 -163.5 70.5t-61.5 180.5t61.5 180.5t163.5 70.5q132 0 179 -86q62 86 167 86q119 0 178 -79q53 -71 53 -196h-358q-2 -66 39 -114q42 -51 108 -51q96 0 122 104zM259 426
q-74 0 -109 -64q-28 -49 -28 -123t28 -123q35 -64 109 -64t109 64q28 49 28 123t-28 123q-35 64 -109 64zM478 279h270q-6 60 -42 102q-39 45 -96 45q-54 0 -93 -46t-39 -101z" />
    <glyph glyph-name="oslash" unicode="&#xf8;" horiz-adv-x="536" 
d="M135 152l236 230q-37 44 -103 44q-75 0 -114 -58q-32 -50 -32 -129q0 -51 13 -87zM398 336l-238 -233q36 -51 108 -51q75 0 114 58q32 50 32 129q0 54 -16 97zM31 50l42 41q-39 62 -39 148q0 110 62.5 180.5t171.5 70.5q96 0 157 -56l44 43l37 -35l-48 -47
q44 -64 44 -156q0 -110 -61 -179q-64 -72 -173 -72q-98 0 -163 62l-39 -38z" />
    <glyph glyph-name="dotlessi" unicode="&#x131;" horiz-adv-x="204" 
d="M61 0v478h82v-478h-82z" />
    <glyph glyph-name="ae" unicode="&#xe6;" horiz-adv-x="815" 
d="M436 279h257q-7 61 -39 102q-37 45 -94 45q-55 0 -90.5 -45.5t-33.5 -101.5zM691 154l82 -12q-18 -73 -81 -115q-58 -39 -132 -39q-75 0 -129 42q-21 16 -49 53q-49 -54 -91 -74.5t-109 -20.5q-64 0 -109 37.5t-45 89.5q0 89 70 129q63 35 190 35h66q0 147 -112 147
q-52 0 -76.5 -22.5t-32.5 -75.5l-82 5q27 157 181 157q118 0 164 -85q61 85 162 85q108 0 168 -81q55 -74 55 -194h-345q-1 -66 32 -112q37 -50 101 -51q97 -1 122 102zM354 215h-55q-183 0 -183 -90q0 -71 92 -71q69 0 109 51q37 45 37 110z" />
    <glyph glyph-name="ordmasculine" unicode="&#xba;" horiz-adv-x="349" 
d="M23 535q0 68 41.5 109.5t109.5 41.5q69 0 110.5 -41t41.5 -110q0 -68 -42 -109t-110 -41t-109.5 41t-41.5 109zM87 535q0 -104 87 -104q88 0 88 104q0 105 -88 105q-87 0 -87 -105z" />
    <glyph glyph-name="OE" unicode="&#x152;" horiz-adv-x="1148" 
d="M618 0v79q-91 -97 -234 -97q-155 0 -247 108q-88 104 -88 266q0 156 87 261q93 113 249 113q152 0 233 -88v70h504v-82h-410v-220h330v-82h-330v-246h419v-82h-513zM151 356q0 -122 59 -205q67 -93 185 -93q106 0 166 83q57 80 57 215q0 128 -45 204q-57 94 -178 94
q-118 0 -185 -93q-59 -83 -59 -205z" />
    <glyph glyph-name="Oslash" unicode="&#xd8;" horiz-adv-x="814" 
d="M185 194l402 386q-68 74 -180 74q-125 0 -193 -89q-63 -81 -63 -209q0 -93 34 -162zM627 522l-402 -388q68 -76 182 -76q125 0 193 89q63 81 63 209q0 93 -36 166zM45 59l69 66q-65 96 -65 231q0 168 95 269q97 105 263 105q152 0 245 -88l68 66l50 -49l-72 -69
q67 -94 67 -234q0 -168 -95 -269q-97 -105 -263 -105q-150 0 -247 89l-65 -62z" />
    <glyph glyph-name="ordfeminine" unicode="&#xaa;" horiz-adv-x="325" 
d="M220 499v29q-77 -11 -102 -20q-40 -13 -40 -41q0 -36 59 -36q43 0 60 11q23 15 23 57zM220 568v21q0 28 -15 39.5t-53 11.5q-61 0 -65 -51l-52 3q10 94 118 94q125 0 125 -89v-119q0 -28 4 -38t20 -9q5 0 15 3v-44q-17 -5 -29 -5q-46 0 -59 44q-41 -44 -110 -44
q-41 0 -70 23t-29 56q0 64 75 87q27 8 125 17z" />
    <glyph glyph-name="AE" unicode="&#xc6;" horiz-adv-x="1056" 
d="M519 0v234h-253l-157 -234h-109l483 712h540v-82h-410v-232h312v-82h-312v-234h426v-82h-520zM519 316v302h-2l-196 -302h198z" />
    <glyph glyph-name="ring" unicode="&#x2da;" horiz-adv-x="204" 
d="M0 667q0 42 30 72t72 30t72 -30t30 -72t-30 -72t-72 -30t-72 30t-30 72zM40 667q0 -25 18.5 -43.5t43.5 -18.5t43.5 18.5t18.5 43.5t-18.5 43.5t-43.5 18.5t-43.5 -18.5t-18.5 -43.5z" />
    <glyph glyph-name="macron" unicode="&#xaf;" horiz-adv-x="204" 
d="M-35 622v58h274v-58h-274z" />
    <glyph glyph-name="macron" unicode="&#x2c9;" horiz-adv-x="204" 
d="M-35 622v58h274v-58h-274z" />
    <glyph glyph-name="tilde" unicode="&#x2dc;" horiz-adv-x="204" 
d="M-20 591h-48q4 47 31 77.5t73 30.5q26 0 72 -18.5t62 -18.5q54 0 54 45h48q-6 -46 -31 -76q-29 -33 -73 -33q-25 0 -72 18.5t-72 18.5q-16 0 -30 -14t-14 -30z" />
    <glyph glyph-name="circumflex" unicode="&#x2c6;" horiz-adv-x="204" 
d="M-44 582l99 141h92l101 -141h-81l-66 95l-66 -95h-79z" />
    <glyph glyph-name="questiondown" unicode="&#xbf;" horiz-adv-x="574" 
d="M332 334v-238h-37q-155 0 -155 -130q0 -51 42.5 -88.5t96.5 -37.5q146 0 149 166h88q1 -108 -63 -175t-165 -67q-99 0 -162 55q-68 58 -68 160q0 86 53 140t139 59v156h82zM335 488v-94h-88v94h88z" />
    <glyph glyph-name="fl" unicode="&#xf002;" horiz-adv-x="463" 
d="M86 0v408h-79v70h79l-1 62q0 86 23 123q30 49 111 49q20 0 52 -6v-62q-26 4 -45 4q-58 0 -58 -67v-103h89v-70h-89v-408h-82zM320 0v712h82v-712h-82z" />
    <glyph glyph-name="fi" unicode="&#xf001;" horiz-adv-x="463" 
d="M86 0v408h-79v70h79v85q0 78 32 113.5t101 35.5q20 0 52 -6v-62q-26 4 -45 4q-58 0 -58 -67v-103h89v-70h-89v-408h-82zM320 0v478h82v-478h-82zM320 618v94h82v-94h-82z" />
    <glyph glyph-name="florin" unicode="&#x192;" 
d="M58 -212l7 74q24 -10 55 -10q36 0 50 22t21 83l36 312h-111l5 64h112l24 210q16 143 125 143q42 0 84 -14l-12 -71q-31 9 -62 9q-27 0 -40 -19t-19 -76l-20 -182h112l-4 -64h-116l-36 -314q-12 -101 -41 -140t-94 -39q-40 0 -76 12z" />
    <glyph glyph-name="yen" unicode="&#xa5;" 
d="M237 0v165h-146v58h146v85h-146v58h113l-195 314h100l169 -282l169 282h100l-195 -314h113v-58h-146v-85h146v-58h-146v-165h-82z" />
    <glyph glyph-name="fraction" unicode="&#x2044;" horiz-adv-x="167" 
d="M-166 -32l430 744h69l-430 -744h-69z" />
    <glyph glyph-name="sterling" unicode="&#xa3;" 
d="M77 75q0 -23 39 -23q36 0 48 23q-34 22 -52 22q-35 0 -35 -22zM26 273v64h105q-67 77 -67 153q0 90 70 146q63 50 149 50q214 0 224 -189l-88 -14q-12 127 -132 127q-57 0 -92 -39q-29 -33 -29 -73t26 -85q24 -38 49 -76h192v-64h-161q13 -43 13 -80q0 -43 -26 -85
q70 -32 109 -32q43 0 66 33q21 29 21 74h88q-3 -85 -45 -135q-45 -54 -124 -54q-47 0 -153 53q-45 -53 -108 -53q-43 0 -70 20q-30 21 -30 62q0 48 38 70q27 15 62 15q39 0 82 -24q8 21 8 39q0 46 -28 97h-149z" />
    <glyph glyph-name="cent" unicode="&#xa2;" 
d="M253 53v370q-62 -12 -92 -70q-25 -47 -25 -115q0 -70 27 -118q30 -56 90 -67zM253 -114v103q-98 9 -151.5 75.5t-53.5 169.5q0 106 53.5 174.5t151.5 78.5v99h58v-98q70 -6 120 -45q54 -42 69 -114l-88 -9q-16 88 -101 104v-372q104 18 109 129l88 -7q-10 -80 -63 -129.5
t-134 -56.5v-102h-58z" />
    <glyph glyph-name="exclamdown" unicode="&#xa1;" horiz-adv-x="296" 
d="M164 341l25 -270v-295h-82v295l25 270h32zM104 394v94h88v-94h-88z" />
    <glyph glyph-name="HT" horiz-adv-x="278" 
 />
    <glyph glyph-name="nonmarkingreturn" horiz-adv-x="278" 
 />
    <glyph glyph-name="nonbreakingspace" unicode="&#xa0;" horiz-adv-x="278" 
 />
    <glyph glyph-name="infinity" unicode="&#x221e;" horiz-adv-x="713" 
d="M357 297q55 50 87 71q56 36 103 36q58 0 100 -41t42 -98q0 -55 -40 -98t-94 -43q-58 0 -109 33q-31 19 -89 74q-58 -55 -89 -74q-51 -33 -109 -33q-54 0 -94 43t-40 98q0 57 42 98t100 41q47 0 103 -36q32 -21 87 -71zM324 264q-105 88 -158 88q-37 0 -63.5 -27.5
t-26.5 -65.5q0 -36 28.5 -61.5t65.5 -25.5q42 0 85 31q20 14 69 61zM390 264q49 -47 69 -61q43 -31 85 -31q37 0 65.5 25.5t28.5 61.5q0 38 -26.5 65.5t-63.5 27.5q-53 0 -158 -88z" />
    <glyph glyph-name="product" unicode="&#x220f;" horiz-adv-x="823" 
d="M706 629v-626q0 -48 25 -66q21 -15 72 -15v-23h-306v23q50 0 71 15q25 18 25 66v693h-358v-693q0 -48 25 -66q21 -15 72 -15v-23h-307v23q51 0 72 15q25 18 25 66v626q0 99 -95 99v23h773v-23q-94 0 -94 -99z" />
    <glyph glyph-name="pi" unicode="&#x3c0;" horiz-adv-x="549" 
d="M335 401h-113q-11 -130 -17 -176q-11 -100 -29 -175q-16 -69 -65 -69q-22 0 -38 16t-16 38q0 20 35.5 64.5t39.5 72.5l29 229h-47q-33 0 -53 -18q-10 -9 -34 -45h-17q26 71 47 100q36 49 92 49h373v-86h-126q-12 -117 -12 -235q0 -35 15 -60q17 -30 50 -30q51 0 60 75h21
q-1 -62 -29 -110q-34 -57 -91 -57q-52 0 -78 66q-19 49 -19 110q0 37 22 241z" />
    <glyph glyph-name="integral" unicode="&#x222b;" horiz-adv-x="274" 
d="M62 -107q-24 0 -42 18t-18 42q0 16 14 30t30 14q14 0 31 -16.5t23 -16.5q26 0 26 97q0 54 -3 161.5t-3 158.5v224q0 311 103 311q27 0 47.5 -15t20.5 -41q0 -19 -15.5 -31.5t-35.5 -12.5q-14 0 -29.5 12t-21.5 12q-18 0 -18 -22t4 -56q6 -47 7 -56q9 -110 9 -332
q0 -383 -65 -456q-22 -25 -64 -25z" />
    <glyph glyph-name="Omega" unicode="&#x3a9;" horiz-adv-x="768" 
d="M313 152l16 -152h-295v162h15q7 -33 20.5 -47t45.5 -14h158l-2 28q-101 30 -157 97q-60 70 -60 172q0 133 101 214q94 76 230 76q137 0 230 -75q101 -81 101 -215q0 -102 -60 -172q-56 -67 -157 -97l-2 -28h158q32 0 47 15q12 13 19 46h15v-162h-295l16 152q37 15 56 29
q86 62 86 221q0 113 -49 179q-56 75 -165 75t-165 -75q-49 -66 -49 -179q0 -159 86 -221q19 -14 56 -29z" />
    <glyph glyph-name="Omega" unicode="&#x2126;" horiz-adv-x="768" 
d="M313 152l16 -152h-295v162h15q7 -33 20.5 -47t45.5 -14h158l-2 28q-101 30 -157 97q-60 70 -60 172q0 133 101 214q94 76 230 76q137 0 230 -75q101 -81 101 -215q0 -102 -60 -172q-56 -67 -157 -97l-2 -28h158q32 0 47 15q12 13 19 46h15v-162h-295l16 152q37 15 56 29
q86 62 86 221q0 113 -49 179q-56 75 -165 75t-165 -75q-49 -66 -49 -179q0 -159 86 -221q19 -14 56 -29z" />
    <glyph glyph-name="approxequal" unicode="&#x2248;" horiz-adv-x="549" 
d="M490 394l37 -24q-47 -79 -141 -79q-40 0 -115.5 27.5t-115.5 27.5q-34 0 -57 -17q-13 -9 -41 -43l-43 27q60 79 144 79q38 0 118 -26t109 -26q69 0 105 54zM490 243l37 -24q-47 -79 -141 -79q-40 0 -115.5 27.5t-115.5 27.5q-34 0 -57 -17q-13 -9 -41 -43l-43 27
q60 79 144 79q38 0 118 -26t109 -26q69 0 105 54z" />
    <glyph glyph-name="approxequal" unicode="&#x22f2;" horiz-adv-x="549" 
d="M490 394l37 -24q-47 -79 -141 -79q-40 0 -115.5 27.5t-115.5 27.5q-34 0 -57 -17q-13 -9 -41 -43l-43 27q60 79 144 79q38 0 118 -26t109 -26q69 0 105 54zM490 243l37 -24q-47 -79 -141 -79q-40 0 -115.5 27.5t-115.5 27.5q-34 0 -57 -17q-13 -9 -41 -43l-43 27
q60 79 144 79q38 0 118 -26t109 -26q69 0 105 54z" />
    <glyph glyph-name="leftcommaaccent" unicode="&#x312;" horiz-adv-x="278" 
d="M180 672v-90h-82v90q0 62 30 124h37q-19 -58 -19 -124h34z" />
    </font>
</defs>
</svg>
