<?xml version="1.0" standalone="no"?>
<!DOCTYPE svg PUBLIC "-//W3C//DTD SVG 1.1//EN" "http://www.w3.org/Graphics/SVG/1.1/DTD/svg11.dtd" >
<svg xmlns="http://www.w3.org/2000/svg" width="100%" height="100%">
<metadata>
Created by FontXChange 20110222 at Fri Apr 27 22:24:56 2018
 By jasecoop
The digitally encoded machine readable outline data for producing the Typefaces licensed to you is copyrighted (C), 1998 by and the property of Heidelberger Druckmaschinen AG and/or its subsidiaries. All rights reserved.
</metadata>
<defs>
<font id="AkzidenzGroteskCEBlack" horiz-adv-x="556" >
  <font-face 
    font-family="AkzidenzGroteskCEBlack"
    font-weight="700"
    font-stretch="normal"
    units-per-em="1000"
    panose-1="0 0 9 0 0 0 0 0 0 0"
    ascent="800"
    descent="-200"
    x-height="532"
    cap-height="712"
    bbox="-168 -336 1105 1012"
    underline-thickness="50"
    underline-position="-75"
    unicode-range="U+0020-F002"
  />
<missing-glyph horiz-adv-x="500" 
d="M63 0v956h375v-956h-375zM125 63h250v831h-250v-831z" />
    <glyph glyph-name="lacute" unicode="fi" horiz-adv-x="296" 
d="M48 800l99 150h181l-160 -150h-120zM226 0h-156v712h156v-712z" />
    <glyph glyph-name="cacute" unicode="fl" 
d="M208 592l99 150h181l-160 -150h-120zM535 416l-120 -63q-34 73 -100 73q-60 0 -90.5 -40t-30.5 -120q0 -72 29 -114q32 -46 92 -46q79 0 111 78l112 -57q-37 -65 -98 -102q-64 -39 -139 -39q-122 0 -194 73q-75 75 -75 207q0 129 77 206q73 74 187 74q168 0 239 -130z
" />
    <glyph glyph-name=".notdef" horiz-adv-x="500" 
d="M63 0v956h375v-956h-375zM125 63h250v831h-250v-831z" />
    <glyph glyph-name=".null" horiz-adv-x="0" 
 />
    <glyph glyph-name="glyph2" horiz-adv-x="278" 
 />
    <glyph glyph-name="space" unicode=" " horiz-adv-x="278" 
 />
    <glyph glyph-name="exclam" unicode="!" horiz-adv-x="296" 
d="M181 242h-66l-48 258v212h162v-212zM229 0h-162v168h162v-168z" />
    <glyph glyph-name="quotedbl" unicode="&#x22;" horiz-adv-x="481" 
d="M272 368v344h120v-344h-120zM89 368v344h120v-344h-120z" />
    <glyph glyph-name="numbersign" unicode="#" 
d="M245 395l-14 -108h80l14 108h-80zM87 0l26 185h-80v102h94l14 108h-80v102h95l25 185h104l-25 -185h80l25 185h104l-26 -185h80v-102h-94l-14 -108h80v-102h-95l-25 -185h-104l25 185h-79l-26 -185h-104z" />
    <glyph glyph-name="dollar" unicode="$" 
d="M518 624l-103 -106q-65 46 -134 46q-47 0 -70.5 -15t-23.5 -46t67 -52l115 -36q85 -27 124 -69q48 -51 48 -142q0 -90 -63 -150.5t-157 -67.5v-121h-90v121q-133 2 -238 94l108 109q75 -71 175 -71q49 0 73 19.5t24 58.5q0 32 -26 51q-17 13 -59 26l-113 36
q-80 25 -116 65q-40 44 -40 117q0 89 61 146q59 54 151 59v121h90v-121q111 -5 197 -72z" />
    <glyph glyph-name="percent" unicode="%" horiz-adv-x="889" 
d="M214 -14l389 735l59 -25l-390 -735zM231 412q24 0 35.5 24.5t11.5 72.5q0 49 -11.5 73t-35.5 24q-23 0 -35 -24t-12 -73q0 -48 12 -72.5t35 -24.5zM658 76q24 0 35.5 24.5t11.5 72.5q0 49 -11.5 73t-35.5 24q-23 0 -35 -24t-12 -73q0 -48 12 -72.5t35 -24.5zM231 322
q-64 0 -101 45q-42 49 -42 142t42 142q37 45 101 45t102 -45q41 -49 41 -142t-41 -142q-38 -45 -102 -45zM658 -14q-64 0 -101 45q-42 49 -42 142t42 142q37 45 101 45t102 -45q41 -49 41 -142t-41 -142q-38 -45 -102 -45z" />
    <glyph glyph-name="ampersand" unicode="&#x26;" horiz-adv-x="685" 
d="M380 395l91 -139q26 42 37 109l129 -48q-36 -112 -81 -172q28 -31 74 -31q16 0 34 2v-116h-91q-70 0 -114 49q-79 -55 -193 -55q-118 0 -187 72q-58 59 -58 134q0 92 47 151q39 48 127 91q-43 59 -43 128q0 70 56 112q50 38 123 38q79 0 129 -39q55 -43 55 -119
q0 -103 -135 -167zM382 151l-121 182q-84 -55 -84 -115q0 -39 26 -70q29 -34 73 -34q64 0 106 37zM383 567q0 23 -12.5 34t-38.5 11q-18 0 -33 -12t-15 -30q0 -25 32 -78q67 32 67 75z" />
    <glyph glyph-name="quotesingle" unicode="'" horiz-adv-x="278" 
d="M79 368v344h120v-344h-120z" />
    <glyph glyph-name="parenleft" unicode="(" horiz-adv-x="352" 
d="M341 -108l-52 -60q-131 102 -190 204q-63 109 -63 246q0 262 251 450l52 -53q-85 -83 -121 -172q-38 -92 -38 -225q0 -241 161 -390z" />
    <glyph glyph-name="parenright" unicode=")" horiz-adv-x="352" 
d="M63 -168l-52 60q161 149 161 390q0 133 -38 225q-36 89 -121 172l52 53q251 -188 251 -450q0 -137 -63 -246q-59 -102 -190 -204z" />
    <glyph glyph-name="asterisk" unicode="*" horiz-adv-x="352" 
d="M50 441l59 86l-99 26l22 79l103 -27v107h78v-107l103 35l26 -77l-101 -31l64 -87l-66 -48l-62 86l-61 -86z" />
    <glyph glyph-name="plus" unicode="+" horiz-adv-x="600" 
d="M240 313v193h120v-193h193v-120h-193v-193h-120v193h-193v120h193z" />
    <glyph glyph-name="comma" unicode="," horiz-adv-x="278" 
d="M61 -176v73q63 17 63 103h-66v168h162v-168q0 -72 -47 -120q-42 -42 -112 -56z" />
    <glyph glyph-name="hyphen" unicode="-" horiz-adv-x="352" 
d="M300 204h-248v144h248v-144z" />
    <glyph glyph-name="hyphen" unicode="&#x2010;" horiz-adv-x="352" 
d="M300 204h-248v144h248v-144z" />
    <glyph glyph-name="period" unicode="." horiz-adv-x="278" 
d="M220 0h-162v168h162v-168z" />
    <glyph glyph-name="slash" unicode="/" horiz-adv-x="481" 
d="M26 -20l309 752h120l-309 -752h-120z" />
    <glyph glyph-name="zero" unicode="0" 
d="M371 341q0 128 -25 182q-21 47 -68 47q-46 0 -69.5 -57t-23.5 -172q0 -126 24 -179q21 -50 69 -50q47 0 69 47q24 54 24 182zM521 341q0 -188 -77 -280q-64 -75 -166 -75t-166 75q-77 92 -77 280q0 179 74 273q65 82 169 82q106 0 168 -75q75 -91 75 -280z" />
    <glyph glyph-name="one" unicode="1" 
d="M377 682v-682h-162v498q-44 -17 -146 -23v108q136 4 181 99h127z" />
    <glyph glyph-name="two" unicode="2" 
d="M501 132v-132h-466v120q193 152 245.5 218t52.5 152q0 43 -15.5 64.5t-46.5 21.5q-33 0 -50 -26.5t-17 -79.5q0 -15 3 -41l-165 15v29q0 88 58 152q64 71 168 71q105 0 169 -55t64 -150q0 -107 -57 -182q-49 -65 -201 -177h258z" />
    <glyph glyph-name="three" unicode="3" 
d="M233 302v114h35q34 0 51 18.5t17 54.5q0 41 -16.5 61t-50.5 20q-65 0 -71 -98l-156 13q6 103 73 159q63 52 165 52q101 0 160 -46q64 -50 64 -143q0 -54 -25.5 -90.5t-77.5 -56.5q63 -19 94.5 -58.5t31.5 -99.5q0 -116 -84 -171q-68 -45 -175 -45q-127 0 -185 63
q-54 58 -54 182l160 13q-4 -14 -4 -35q0 -48 20.5 -72.5t61.5 -24.5t61.5 23t20.5 68q0 50 -21 74.5t-64 24.5h-31z" />
    <glyph glyph-name="four" unicode="4" 
d="M287 271l-2 237l-155 -237h157zM16 157v120l281 405h152v-411h91v-114h-90v-157h-163v157h-271z" />
    <glyph glyph-name="five" unicode="5" 
d="M56 322l44 360h392l-11 -132h-259l-17 -120q43 36 110 36q90 0 148 -64t58 -165q0 -105 -63 -173q-71 -78 -199 -78q-117 0 -176 65q-54 59 -54 163l156 7v-22q0 -42 23.5 -67.5t54.5 -25.5q45 0 69 37q21 32 21 81q0 64 -21.5 96t-64.5 32q-52 0 -75 -53z" />
    <glyph glyph-name="six" unicode="6" 
d="M514 508l-160 -16q-10 78 -63 78q-56 0 -79 -61q-18 -47 -21 -143h3q23 36 59 53.5t84 17.5q79 0 131 -50q60 -58 60 -163q0 -107 -67 -172.5t-174 -65.5q-109 0 -173 68q-79 84 -79 262q0 190 66 285t197 95q185 0 216 -188zM372 218q0 43 -20 69q-22 30 -62 30
q-36 0 -58.5 -26.5t-22.5 -72.5q0 -53 20.5 -79.5t60.5 -26.5q41 0 61.5 26.5t20.5 79.5z" />
    <glyph glyph-name="seven" unicode="7" 
d="M61 550v132h483v-126q-91 -94 -157 -243q-70 -160 -79 -313h-188q62 316 263 550h-322z" />
    <glyph glyph-name="eight" unicode="8" 
d="M344 493q0 42 -16.5 62.5t-49.5 20.5t-49.5 -20.5t-16.5 -62.5t16.5 -63t49.5 -21t49.5 21t16.5 63zM521 196q0 -107 -70 -161q-63 -49 -173 -49t-173 49q-70 54 -70 161q0 59 33.5 102t90.5 58q-44 19 -70.5 61t-26.5 92q0 94 56 140.5t168 46.5q93 0 148 -44
q60 -49 60 -143q0 -50 -26.5 -92t-70.5 -63q57 -13 90.5 -56t33.5 -102zM359 204q0 49 -20 73t-61 24q-40 0 -60.5 -24t-20.5 -73t20.5 -73.5t60.5 -24.5q41 0 61 24.5t20 73.5z" />
    <glyph glyph-name="nine" unicode="9" 
d="M42 174l160 16q10 -78 63 -78q56 0 79 61q18 47 21 143h-3q-23 -35 -58.5 -53t-84.5 -18q-79 0 -131 50q-60 58 -60 163q0 107 67 172.5t174 65.5q109 0 173 -68q79 -84 79 -262q0 -190 -65.5 -285t-197.5 -95q-185 0 -216 188zM184 464q0 -43 20 -69q22 -30 62 -30
q36 0 58.5 26.5t22.5 72.5q0 53 -20 79.5t-61 26.5t-61.5 -26.5t-20.5 -79.5z" />
    <glyph glyph-name="colon" unicode=":" horiz-adv-x="278" 
d="M220 356h-162v168h162v-168zM220 0h-162v168h162v-168z" />
    <glyph glyph-name="semicolon" unicode=";" horiz-adv-x="278" 
d="M61 -176v73q63 17 63 103h-66v168h162v-168q0 -72 -47 -120q-42 -42 -112 -56zM220 356h-162v168h162v-168z" />
    <glyph glyph-name="less" unicode="&#x3c;" horiz-adv-x="600" 
d="M553 107v-115l-506 214v94l506 214v-115l-351 -146z" />
    <glyph glyph-name="equal" unicode="=" horiz-adv-x="600" 
d="M553 425v-120h-506v120h506zM553 201v-120h-506v120h506z" />
    <glyph glyph-name="greater" unicode="&#x3e;" horiz-adv-x="600" 
d="M47 107l351 146l-351 146v115l506 -214v-94l-506 -214v115z" />
    <glyph glyph-name="question" unicode="?" horiz-adv-x="611" 
d="M332 245h-126v31q0 51 50 94q45 33 91 67q50 41 50 88q0 39 -27.5 59t-67.5 20q-52 0 -84.5 -35t-34.5 -89l-141 47q55 191 264 191q135 0 205 -58q58 -49 58 -124q0 -86 -82 -147l-128 -95q-24 -18 -27 -49zM350 0h-162v168h162v-168z" />
    <glyph glyph-name="at" unicode="@" horiz-adv-x="800" 
d="M494 352q0 47 -29 73q-23 20 -50 20q-42 0 -74 -28q-35 -30 -35 -73q0 -42 24 -67t62 -25t70 28t32 72zM622 129l99 3q-112 -152 -297 -152q-164 0 -278 106t-114 267t112.5 270t273.5 109q137 0 241 -83q109 -88 109 -216q0 -147 -108 -230q-78 -59 -150 -59
q-53 0 -56 50q-43 -50 -97 -50q-69 0 -117 51.5t-48 134.5q0 86 55 150q59 67 148 67q40 0 70.5 -14t51.5 -43l10 48h95l-45 -240q-5 -27 -5 -35q0 -21 18 -21q35 0 63 42q31 46 31 115q0 115 -74 179t-196 64q-130 0 -207 -84q-73 -80 -73 -204q0 -127 81.5 -205.5
t210.5 -78.5q116 0 196 59z" />
    <glyph glyph-name="A" unicode="A" horiz-adv-x="722" 
d="M3 0l263 712h184l269 -712h-191l-36 112h-263l-36 -112h-190zM271 244h178l-90 294z" />
    <glyph glyph-name="B" unicode="B" horiz-adv-x="722" 
d="M69 0v712h348q121 0 181 -45.5t60 -137.5q0 -63 -37 -104t-112 -59q78 -6 124 -45q51 -43 51 -118q0 -101 -72.5 -152t-218.5 -51h-324zM241 300v-168h145q60 0 90 21t30 62q0 45 -19.5 65t-68.5 20h-177zM239 580v-148h148q47 0 70 18.5t23 55.5q0 43 -24 60
q-21 14 -69 14h-148z" />
    <glyph glyph-name="C" unicode="C" horiz-adv-x="704" 
d="M682 546l-142 -71q-18 49 -59.5 78t-88.5 29q-79 0 -125 -53q-51 -59 -51 -173q0 -92 39 -152q47 -74 143 -74q39 0 82.5 27.5t63.5 72.5l141 -68q-46 -84 -122 -133t-165 -49q-164 0 -265 113q-95 106 -95 263q0 158 90 263q96 113 256 113q194 0 298 -186z" />
    <glyph glyph-name="D" unicode="D" horiz-adv-x="741" 
d="M64 0v712h276q171 0 263 -83q100 -90 100 -273t-100 -273q-92 -83 -263 -83h-276zM242 562v-412h102q91 0 136 51.5t45 154.5t-45.5 154.5t-136.5 51.5h-101z" />
    <glyph glyph-name="E" unicode="E" horiz-adv-x="648" 
d="M623 0h-554v712h524v-138h-346v-130h323v-138h-323v-168h376v-138z" />
    <glyph glyph-name="F" unicode="F" horiz-adv-x="630" 
d="M69 0v712h544v-138h-366v-150h339v-138h-339v-286h-178z" />
    <glyph glyph-name="G" unicode="G" horiz-adv-x="759" 
d="M715 554l-148 -65q-53 93 -168 93q-85 0 -132 -54q-51 -59 -51 -172q0 -106 47 -166t136 -60q56 0 100 30q52 36 58 99h-158v138h308v-397h-138v64q-73 -84 -207 -84q-157 0 -243 105q-81 100 -81 268q0 169 88 271q93 108 261 108q221 0 328 -178z" />
    <glyph glyph-name="H" unicode="H" horiz-adv-x="759" 
d="M69 0v712h178v-256h265v256h178v-712h-178v300h-265v-300h-178z" />
    <glyph glyph-name="I" unicode="I" horiz-adv-x="316" 
d="M69 0v712h178v-712h-178z" />
    <glyph glyph-name="J" unicode="J" horiz-adv-x="407" 
d="M19 0v144h74q42 0 56 19q11 15 11 53v496h178v-554q0 -158 -170 -158h-149z" />
    <glyph glyph-name="K" unicode="K" horiz-adv-x="741" 
d="M69 0v712h178v-284l255 284h236l-259 -270l267 -442h-198l-194 316l-107 -109v-207h-178z" />
    <glyph glyph-name="L" unicode="L" 
d="M69 0v712h178v-562h278v-150h-456z" />
    <glyph glyph-name="M" unicode="M" horiz-adv-x="907" 
d="M65 0v712h261l128 -529l130 529h258v-712h-168l-2 553l-141 -553h-157l-147 553v-553h-162z" />
    <glyph glyph-name="N" unicode="N" horiz-adv-x="741" 
d="M69 0v712h180l261 -455v455h162v-712h-178l-263 448v-448h-162z" />
    <glyph glyph-name="O" unicode="O" horiz-adv-x="796" 
d="M580 356q0 94 -41 155q-49 71 -141 71q-83 0 -130 -53q-52 -58 -52 -173q0 -92 39 -152q47 -74 143 -74q92 0 141 72q41 61 41 154zM758 356q0 -157 -95 -263q-101 -113 -265 -113t-265 113q-95 106 -95 263t95 263q101 113 265 113t265 -113q95 -106 95 -263z" />
    <glyph glyph-name="P" unicode="P" horiz-adv-x="704" 
d="M247 580v-218h150q57 0 85 33q25 29 25 75q0 55 -28.5 82.5t-86.5 27.5h-145zM69 0v712h353q132 0 197.5 -60t65.5 -181q0 -93 -57 -156q-77 -85 -240 -85h-139v-230h-180z" />
    <glyph glyph-name="Q" unicode="Q" horiz-adv-x="796" 
d="M580 356q0 94 -41 155q-49 71 -141 71q-83 0 -130 -53q-52 -58 -52 -173q0 -92 39 -152q47 -74 143 -74q92 0 141 72q41 61 41 154zM814 61l-52 -127q-51 4 -110 35q-46 25 -77 54q-40 -21 -84 -32t-93 -11q-164 0 -265 113q-95 106 -95 263t95 263q101 113 265 113
t265 -113q95 -106 95 -263q0 -68 -18.5 -127t-55.5 -110q12 -18 50.5 -35.5t79.5 -22.5z" />
    <glyph glyph-name="R" unicode="R" horiz-adv-x="722" 
d="M247 580v-192h163q48 0 71.5 24t23.5 72t-23.5 72t-71.5 24h-163zM69 0v712h356q129 0 193.5 -58.5t64.5 -175.5q0 -69 -40 -120.5t-107 -71.5l163 -286h-199l-140 256h-113v-256h-178z" />
    <glyph glyph-name="S" unicode="S" horiz-adv-x="685" 
d="M2 125l136 88q99 -89 206 -89q46 0 84 18q49 23 49 64q0 50 -80 63l-148 24q-204 33 -204 196q0 121 89 186q78 57 202 57q191 0 314 -137l-135 -97q-74 90 -191 90q-35 0 -66 -19q-35 -21 -35 -53q0 -52 99 -68l68 -11q123 -20 183 -59q76 -50 76 -144q0 -143 -113 -207
q-83 -47 -213 -47q-188 0 -321 145z" />
    <glyph glyph-name="T" unicode="T" horiz-adv-x="574" 
d="M12 574v138h550v-138h-186v-574h-178v574h-186z" />
    <glyph glyph-name="U" unicode="U" horiz-adv-x="741" 
d="M672 712v-464q0 -134 -100 -207q-83 -61 -202 -61q-118 0 -201 61q-100 73 -100 207v464h178v-449q0 -69 31 -104t92 -35q62 0 93 35t31 104v449h178z" />
    <glyph glyph-name="V" unicode="V" horiz-adv-x="685" 
d="M244 0l-238 712h189l147 -508l150 508h187l-246 -712h-189z" />
    <glyph glyph-name="W" unicode="W" horiz-adv-x="1000" 
d="M192 0l-186 712h178l109 -508l125 508h163l132 -508l106 508h175l-184 -712h-185l-129 487l-126 -487h-178z" />
    <glyph glyph-name="X" unicode="X" horiz-adv-x="778" 
d="M6 0l274 383l-235 329h216l130 -217l129 217h213l-234 -329l273 -383h-218l-164 266l-169 -266h-215z" />
    <glyph glyph-name="Y" unicode="Y" horiz-adv-x="722" 
d="M272 0v332l-270 380h208l151 -246l151 246h208l-270 -380v-332h-178z" />
    <glyph glyph-name="Z" unicode="Z" horiz-adv-x="685" 
d="M258 138h389v-138h-611v133l396 441h-365v138h582v-139z" />
    <glyph glyph-name="bracketleft" unicode="[" horiz-adv-x="352" 
d="M338 -148h-266v860h266v-84h-134v-692h134v-84z" />
    <glyph glyph-name="backslash" unicode="\" horiz-adv-x="481" 
d="M335 -20l-309 752h120l309 -752h-120z" />
    <glyph glyph-name="bracketright" unicode="]" horiz-adv-x="352" 
d="M280 -148h-266v84h134v692h-134v84h266v-860z" />
    <glyph glyph-name="asciicircum" unicode="^" horiz-adv-x="600" 
d="M189 317h-116l174 365h106l174 -365h-117l-110 248z" />
    <glyph glyph-name="underscore" unicode="_" horiz-adv-x="500" 
d="M500 -125h-500v50h500v-50z" />
    <glyph glyph-name="grave" unicode="`" horiz-adv-x="278" 
d="M180 742l99 -150h-120l-160 150h181z" />
    <glyph glyph-name="a" unicode="a" horiz-adv-x="593" 
d="M369 222v37l-105 -30q-75 -21 -75 -69q0 -30 18.5 -45t54.5 -15q48 0 77.5 31.5t29.5 90.5zM519 392v-281q0 -75 14 -111h-144q-8 25 -12 55q-19 -30 -69 -50q-46 -19 -91 -19q-79 0 -127 41q-51 43 -51 117q0 91 73 138q62 40 200 59l57 8v44q0 29 -18.5 43t-55.5 14
q-38 0 -57 -16t-25 -55h-150q5 167 219 167q117 0 173 -32q64 -37 64 -122z" />
    <glyph glyph-name="b" unicode="b" horiz-adv-x="630" 
d="M70 0v712h156v-229q29 32 65.5 47.5t80.5 15.5q92 0 154 -60q73 -71 72 -204q-1 -151 -70 -227q-62 -69 -169 -69q-42 0 -77 16.5t-62 49.5v-52h-150zM225 266q0 -83 27.5 -124.5t81.5 -41.5q111 0 108 166q-1 82 -23 121q-26 45 -85 45q-54 0 -81.5 -41.5t-27.5 -124.5z
" />
    <glyph glyph-name="c" unicode="c" 
d="M535 416l-120 -63q-34 73 -100 73q-60 0 -90.5 -40t-30.5 -120q0 -72 29 -114q32 -46 92 -46q79 0 111 78l112 -57q-37 -65 -98 -102q-64 -39 -139 -39q-122 0 -194 73q-75 75 -75 207q0 129 77 206q73 74 187 74q168 0 239 -130z" />
    <glyph glyph-name="d" unicode="d" horiz-adv-x="630" 
d="M560 712v-712h-150l-2 52q-26 -33 -61.5 -49.5t-81.5 -16.5q-102 0 -163 66q-68 72 -70 210q-2 146 72 221q61 63 154 63q46 0 82.5 -14t63.5 -42v222h156zM404 277q0 78 -27 116.5t-82 38.5q-53 0 -80 -41.5t-27 -124.5t27 -124.5t80 -41.5q55 0 82 44.5t27 132.5z" />
    <glyph glyph-name="e" unicode="e" horiz-adv-x="593" 
d="M554 234h-366q1 -70 40 -105q31 -29 76 -29q41 0 70 23q23 18 60 71l117 -61q-79 -147 -258 -147q-121 0 -192 76q-69 72 -69 188q0 140 69.5 218t191.5 78q136 0 203 -94q57 -81 58 -218zM186 330h212q-3 53 -38 80q-28 22 -68 22q-38 0 -67 -25q-34 -28 -39 -77z" />
    <glyph glyph-name="f" unicode="f" horiz-adv-x="352" 
d="M90 0v426h-82v96h82v52q0 146 152 146q68 0 102 -12v-114q-55 0 -61 -1q-37 -6 -37 -37v-34h96v-96h-96v-426h-156z" />
    <glyph glyph-name="g" unicode="g" horiz-adv-x="611" 
d="M393 532h144v-533q0 -87 -63.5 -131t-191.5 -44q-244 0 -245 184h162q1 -82 90 -82q50 0 71 16q26 20 26 74v61q-22 -22 -59 -33t-88 -11q-105 0 -159 77q-48 67 -48 177q0 106 52 178q57 81 157 81q48 0 86 -14t66 -42v42zM387 289q0 74 -32 112q-27 31 -69 31
q-49 0 -73.5 -35.5t-24.5 -107.5q0 -71 24 -106.5t72 -35.5q66 0 89 50q14 31 14 92z" />
    <glyph glyph-name="h" unicode="h" horiz-adv-x="611" 
d="M70 0v712h156l2 -230q21 29 66 47q41 17 80 17q84 0 125.5 -43t41.5 -129v-374h-156v319q0 51 -19.5 76t-58.5 25q-40 0 -60.5 -30.5t-20.5 -91.5v-298h-156z" />
    <glyph glyph-name="i" unicode="i" horiz-adv-x="296" 
d="M70 532h156v-532h-156v532zM226 592h-156v120h156v-120z" />
    <glyph glyph-name="j" unicode="j" horiz-adv-x="296" 
d="M226 532v-562q0 -62 -29 -101q-34 -45 -102 -45h-93v126h35q17 0 25 12t8 36v534h156zM70 592v120h156v-120h-156z" />
    <glyph glyph-name="k" unicode="k" horiz-adv-x="593" 
d="M226 0h-156v712h156v-359l162 179h191l-182 -202l197 -330h-178l-132 215l-58 -59v-156z" />
    <glyph glyph-name="l" unicode="l" horiz-adv-x="296" 
d="M226 0h-156v712h156v-712z" />
    <glyph glyph-name="m" unicode="m" horiz-adv-x="926" 
d="M70 0v532h156v-47q26 31 64.5 46t89.5 15q44 0 79.5 -17.5t61.5 -53.5q35 36 78 53.5t93 17.5q59 0 102 -24q62 -36 62 -116v-406h-156v311q0 57 -18.5 83t-61.5 26q-38 0 -58.5 -25.5t-20.5 -67.5v-327h-156v333q0 44 -19 65.5t-57 21.5q-41 0 -62 -22t-21 -67v-331
h-156z" />
    <glyph glyph-name="n" unicode="n" horiz-adv-x="611" 
d="M70 0v532h156v-47q26 31 64.5 46t89.5 15q81 0 121 -38t40 -115v-393h-156v333q0 44 -19 65.5t-57 21.5q-41 0 -62 -22t-21 -67v-331h-156z" />
    <glyph glyph-name="o" unicode="o" horiz-adv-x="630" 
d="M315 426q-64 0 -97 -46q-30 -42 -30 -114t30 -114q33 -46 97 -46t95.5 41.5t31.5 124.5q0 68 -30 109q-34 45 -97 45zM315 546q127 0 205 -74t78 -206t-78 -206t-205 -74t-205 74t-78 206t78 206t205 74z" />
    <glyph glyph-name="p" unicode="p" horiz-adv-x="611" 
d="M63 -176v708h144l2 -49q25 32 60.5 47.5t81.5 15.5q99 0 161 -67q67 -72 67 -195q0 -148 -59 -223t-168 -75q-38 0 -71.5 12t-61.5 36v-210h-156zM215 266q0 -83 27 -124.5t81 -41.5t81 46t27 137q0 61 -24 102q-28 47 -82 47q-55 0 -84 -49q-26 -44 -26 -117z" />
    <glyph glyph-name="q" unicode="q" horiz-adv-x="611" 
d="M548 532v-708h-156l-2 210q-27 -24 -59.5 -36t-71.5 -12q-109 0 -168 75t-59 223q0 123 67 195q62 67 161 67q47 0 83 -15.5t61 -47.5v49h144zM396 266q0 73 -26 117q-29 49 -84 49q-54 0 -82 -47q-24 -41 -24 -102q0 -91 27 -137t81 -46t81 41.5t27 124.5z" />
    <glyph glyph-name="r" unicode="r" horiz-adv-x="389" 
d="M70 0v532h156v-54q52 49 146 56l1 -138l-17 -2q-73 -9 -100 -25q-30 -18 -30 -61v-308h-156z" />
    <glyph glyph-name="s" unicode="s" 
d="M511 469l-96 -94q-22 26 -67 42q-40 15 -80 15q-33 0 -50 -10t-17 -31q0 -35 82 -52q122 -26 151 -39q82 -38 82 -124q0 -97 -76 -147q-65 -43 -164 -43q-84 0 -144 26q-55 23 -116 79l97 84q78 -75 168 -75q43 0 64 13.5t21 40.5q0 32 -82 48q-120 25 -151 39
q-82 37 -82 119q0 93 72 143q61 43 153 43q120 0 235 -77z" />
    <glyph glyph-name="t" unicode="t" horiz-adv-x="352" 
d="M333 522v-96h-93v-261q0 -26 12.5 -39.5t36.5 -13.5q23 0 47 3v-123q-60 -6 -100 -6q-90 0 -126 51q-26 37 -26 109v280h-76v96h76v154h156v-154h93z" />
    <glyph glyph-name="u" unicode="u" horiz-adv-x="611" 
d="M541 532v-532h-156v47q-26 -30 -64.5 -45.5t-89.5 -15.5q-80 0 -120.5 38.5t-40.5 114.5v393h156v-348q0 -36 19 -54t57 -18q42 0 62.5 21t20.5 62v337h156z" />
    <glyph glyph-name="v" unicode="v" horiz-adv-x="519" 
d="M180 0l-180 532h167l94 -376l92 376h166l-182 -532h-157z" />
    <glyph glyph-name="w" unicode="w" horiz-adv-x="796" 
d="M157 0l-159 532h162l73 -376l78 376h169l72 -376l83 376h163l-177 -532h-153l-78 347l-79 -347h-154z" />
    <glyph glyph-name="x" unicode="x" horiz-adv-x="519" 
d="M13 532h179l68 -150l70 150h179l-163 -252l175 -280h-172l-91 172l-87 -172h-173l174 277z" />
    <glyph glyph-name="y" unicode="y" horiz-adv-x="500" 
d="M41 -176v122q36 -2 53 -2q72 0 72 39q0 13 -14 57l-156 492h164l88 -406l87 406h169l-187 -567q-23 -70 -52 -101q-37 -40 -101 -40h-123z" />
    <glyph glyph-name="z" unicode="z" horiz-adv-x="574" 
d="M77 412v120h451v-126l-283 -286h281v-120h-480v126l283 286h-252z" />
    <glyph glyph-name="braceleft" unicode="{" horiz-adv-x="333" 
d="M331 712v-90h-42q-58 0 -58 -71v-171q0 -51 -41 -77q-28 -18 -67 -22q39 -2 67 -20q41 -26 41 -77v-171q0 -71 58 -71h42v-90h-87q-60 0 -99 33q-46 38 -46 111v174q0 61 -97 61v102q97 0 97 61v174q0 73 46 111q39 33 99 33h87z" />
    <glyph glyph-name="bar" unicode="|" horiz-adv-x="222" 
d="M51 -214v1000h120v-1000h-120z" />
    <glyph glyph-name="braceright" unicode="}" horiz-adv-x="333" 
d="M2 -148v90h42q58 0 58 71v171q0 51 41 77q28 18 67 22q-39 2 -67 20q-41 26 -41 77v171q0 71 -58 71h-42v90h87q60 0 100 -33q45 -38 45 -111v-174q0 -61 97 -61v-102q-97 0 -97 -61v-174q0 -73 -45 -111q-40 -33 -100 -33h-87z" />
    <glyph glyph-name="asciitilde" unicode="~" horiz-adv-x="600" 
d="M105 157l-36 102q45 85 125 85q41 0 111 -31q82 -36 102 -36q41 0 88 72l36 -102q-30 -42 -50 -59q-34 -27 -75 -27q-43 0 -102 33q-65 36 -115 36q-49 0 -84 -73z" />
    <glyph glyph-name="uni20AC" 
d="M222 429h278l-44 -56h-240l-1 -23l1 -24h222l-40 -56h-176q27 -171 156 -171q38 0 65.5 15.5t70.5 60.5v-144q-70 -48 -147 -48q-120 0 -192 73.5t-89 213.5h-84l53 56h27q-1 7 -1 24q0 16 1 23h-81l54 56h32q44 289 276 289q124 0 214 -100l-75 -94q-67 76 -133 76
q-124 0 -147 -171z" />
    <glyph glyph-name="quotesinglbase" unicode="&#x201a;" horiz-adv-x="278" 
d="M61 -176v73q63 17 63 103h-66v168h162v-168q0 -72 -47 -120q-42 -42 -112 -56z" />
    <glyph glyph-name="quotedblbase" unicode="&#x201e;" horiz-adv-x="481" 
d="M46 -176v73q63 17 63 103h-66v168h162v-168q0 -72 -47 -120q-42 -42 -112 -56zM279 -176v73q63 17 63 103h-66v168h162v-168q0 -72 -47 -120q-42 -42 -112 -56z" />
    <glyph glyph-name="ellipsis" unicode="&#x2026;" horiz-adv-x="1000" 
d="M89 0v168h162v-168h-162zM419 0v168h162v-168h-162zM749 0v168h162v-168h-162z" />
    <glyph glyph-name="dagger" unicode="&#x2020;" 
d="M209 -124v470h-186v132h186v234h138v-234h186v-132h-186v-470h-138z" />
    <glyph glyph-name="daggerdbl" unicode="&#x2021;" 
d="M209 -124v183h-161v126h161v232h-161v126h161v169h138v-169h161v-126h-161v-232h161v-126h-161v-183h-138z" />
    <glyph glyph-name="perthousand" unicode="&#x2030;" horiz-adv-x="1000" 
d="M122 -14l389 735l59 -25l-390 -735zM525 70q24 0 35.5 24t11.5 72q0 41 -13.5 68.5t-33.5 27.5q-23 0 -35 -24t-12 -72t12 -72t35 -24zM155 420q24 0 35.5 24t11.5 72q0 41 -13.5 68.5t-33.5 27.5q-23 0 -35 -24t-12 -72t12 -72t35 -24zM525 -14q-61 0 -99 50t-38 130
q0 93 45 141q37 39 92 39q59 0 94 -39q43 -47 43 -141t-44 -141q-37 -39 -93 -39zM155 336q-61 0 -99 50t-38 130q0 93 45 141q37 39 92 39q59 0 94 -39q43 -47 43 -141t-44 -141q-37 -39 -93 -39zM845 -14q-61 0 -99 50t-38 130q0 93 45 141q37 39 92 39q59 0 94 -39
q43 -47 43 -141t-44 -141q-37 -39 -93 -39zM845 70q24 0 35.5 24t11.5 72q0 41 -13.5 68.5t-33.5 27.5q-23 0 -35 -24t-12 -72t12 -72t35 -24z" />
    <glyph glyph-name="Scaron" unicode="&#x160;" horiz-adv-x="685" 
d="M419 763h-153l-114 150h128l62 -82l61 82h131zM2 125l136 88q99 -89 206 -89q46 0 84 18q49 23 49 64q0 50 -80 63l-148 24q-204 33 -204 196q0 121 89 186q78 57 202 57q191 0 314 -137l-135 -97q-74 90 -191 90q-35 0 -66 -19q-35 -21 -35 -53q0 -52 99 -68l68 -11
q123 -20 183 -59q76 -50 76 -144q0 -143 -113 -207q-83 -47 -213 -47q-188 0 -321 145z" />
    <glyph glyph-name="guilsinglleft" unicode="&#x2039;" horiz-adv-x="222" 
d="M39 214v124l144 114v-128l-60 -48l60 -48v-128z" />
    <glyph glyph-name="Sacute" unicode="&#x15a;" horiz-adv-x="685" 
d="M246 800l99 150h181l-160 -150h-120zM2 125l136 88q99 -89 206 -89q46 0 84 18q49 23 49 64q0 50 -80 63l-148 24q-204 33 -204 196q0 121 89 186q78 57 202 57q191 0 314 -137l-135 -97q-74 90 -191 90q-35 0 -66 -19q-35 -21 -35 -53q0 -52 99 -68l68 -11
q123 -20 183 -59q76 -50 76 -144q0 -143 -113 -207q-83 -47 -213 -47q-188 0 -321 145z" />
    <glyph glyph-name="Tcaron" unicode="&#x164;" horiz-adv-x="574" 
d="M363 763h-153l-114 150h128l62 -82l61 82h131zM12 574v138h550v-138h-186v-574h-178v574h-186z" />
    <glyph glyph-name="Zcaron" unicode="&#x17d;" horiz-adv-x="685" 
d="M439 761h-153l-114 150h128l62 -82l61 82h131zM258 138h389v-138h-611v133l396 441h-365v138h582v-139z" />
    <glyph glyph-name="Zacute" unicode="&#x179;" horiz-adv-x="685" 
d="M282 800l99 150h181l-160 -150h-120zM258 138h389v-138h-611v133l396 441h-365v138h582v-139z" />
    <glyph glyph-name="quoteleft" unicode="&#x2018;" horiz-adv-x="278" 
d="M217 712v-73q-63 -17 -63 -103h66v-168h-162v168q0 72 47 120q42 42 112 56z" />
    <glyph glyph-name="quoteright" unicode="&#x2019;" horiz-adv-x="278" 
d="M61 368v73q63 17 63 103h-66v168h162v-168q0 -72 -47 -119q-42 -43 -112 -57z" />
    <glyph glyph-name="quotedblleft" unicode="&#x201c;" horiz-adv-x="481" 
d="M202 712v-73q-63 -17 -63 -103h66v-168h-162v168q0 72 47 120q42 42 112 56zM435 712v-73q-63 -17 -63 -103h66v-168h-162v168q0 72 47 120q42 42 112 56z" />
    <glyph glyph-name="quotedblright" unicode="&#x201d;" horiz-adv-x="481" 
d="M46 368v73q63 17 63 103h-66v168h162v-168q0 -72 -47 -119q-42 -43 -112 -57zM279 368v73q63 17 63 103h-66v168h162v-168q0 -72 -47 -119q-42 -43 -112 -57z" />
    <glyph glyph-name="bullet" unicode="&#x2022;" horiz-adv-x="500" 
d="M72 356q0 74 52.5 126t125.5 52q74 0 126 -52t52 -126q0 -73 -52 -125.5t-126 -52.5q-73 0 -125.5 52.5t-52.5 125.5z" />
    <glyph glyph-name="endash" unicode="&#x2013;" horiz-adv-x="500" 
d="M500 207h-500v138h500v-138z" />
    <glyph glyph-name="emdash" unicode="&#x2014;" horiz-adv-x="1000" 
d="M130 207v138h740v-138h-740z" />
    <glyph glyph-name="trademark" unicode="&#x2122;" horiz-adv-x="1000" 
d="M130 300v322h-112v90h344v-90h-112v-322h-120zM814 300l-2 268l-91 -268h-88l-93 268v-268h-108v412h156l89 -240l89 240h156v-412h-108z" />
    <glyph glyph-name="scaron" unicode="&#x161;" 
d="M354 623h-153l-114 150h128l62 -82l61 82h131zM511 469l-96 -94q-22 26 -67 42q-40 15 -80 15q-33 0 -50 -10t-17 -31q0 -35 82 -52q122 -26 151 -39q82 -38 82 -124q0 -97 -76 -147q-65 -43 -164 -43q-84 0 -144 26q-55 23 -116 79l97 84q78 -75 168 -75q43 0 64 13.5
t21 40.5q0 32 -82 48q-120 25 -151 39q-82 37 -82 119q0 93 72 143q61 43 153 43q120 0 235 -77z" />
    <glyph glyph-name="guilsinglright" unicode="&#x203a;" horiz-adv-x="222" 
d="M183 338v-124l-144 -114v128l60 48l-60 48v128z" />
    <glyph glyph-name="sacute" unicode="&#x15b;" 
d="M179 592l99 150h181l-160 -150h-120zM511 469l-96 -94q-22 26 -67 42q-40 15 -80 15q-33 0 -50 -10t-17 -31q0 -35 82 -52q122 -26 151 -39q82 -38 82 -124q0 -97 -76 -147q-65 -43 -164 -43q-84 0 -144 26q-55 23 -116 79l97 84q78 -75 168 -75q43 0 64 13.5t21 40.5
q0 32 -82 48q-120 25 -151 39q-82 37 -82 119q0 93 72 143q61 43 153 43q120 0 235 -77z" />
    <glyph glyph-name="tcaron" unicode="&#x165;" horiz-adv-x="413" 
d="M285 536v59q50 13 50 82h-53v135h130v-135q0 -116 -127 -141zM333 522v-96h-93v-261q0 -26 12.5 -39.5t36.5 -13.5q23 0 47 3v-123q-60 -6 -100 -6q-90 0 -126 51q-26 37 -26 109v280h-76v96h76v154h156v-154h93z" />
    <glyph glyph-name="zcaron" unicode="&#x17e;" horiz-adv-x="574" 
d="M377 623h-153l-114 150h128l62 -82l61 82h131zM77 412v120h451v-126l-283 -286h281v-120h-480v126l283 286h-252z" />
    <glyph glyph-name="zacute" unicode="&#x17a;" horiz-adv-x="574" 
d="M211 592l99 150h181l-160 -150h-120zM77 412v120h451v-126l-283 -286h281v-120h-480v126l283 286h-252z" />
    <glyph glyph-name="caron" unicode="&#x2c7;" horiz-adv-x="278" 
d="M215 592h-153l-114 150h128l62 -82l61 82h131z" />
    <glyph glyph-name="breve" unicode="&#x2d8;" horiz-adv-x="278" 
d="M242 750h72q-4 -74 -56 -115q-46 -37 -119 -37q-78 0 -125 39t-50 113h72q9 -68 103 -68q95 0 103 68z" />
    <glyph glyph-name="Lslash" unicode="&#x141;" 
d="M69 0v264l-49 -30v100l49 31v347h178v-238l140 86v-103l-140 -86v-221h278v-150h-456z" />
    <glyph glyph-name="currency" unicode="&#xa4;" 
d="M537 143l-60 -60l-58 58q-24 -24 -59.5 -36t-82.5 -12q-45 0 -80.5 11.5t-61.5 34.5l-57 -57l-61 61l58 58q-46 52 -46 140q0 95 45 141l-57 57l63 63l57 -57q26 22 61 33t79 11q46 0 80 -10.5t56 -31.5l58 58l68 -68l-56 -56q42 -45 42 -140q0 -89 -44 -142zM405 341
q0 61 -39 102q-38 38 -89 38t-89 -38q-39 -41 -39 -102t38.5 -100.5t89.5 -39.5t89.5 39.5t38.5 100.5z" />
    <glyph glyph-name="Aogonek" unicode="&#x104;" horiz-adv-x="722" 
d="M271 244h178l-88 294h-2zM618 0q-89 -81 -89 -128q0 -43 48 -43q39 0 55 32l30 -11q-52 -75 -136 -75q-81 0 -81 79q0 94 121 146h-38l-36 112h-263l-36 -112h-190l263 712h184l269 -712h-101z" />
    <glyph glyph-name="brokenbar" unicode="&#xa6;" horiz-adv-x="222" 
d="M51 -89v250h120v-250h-120zM51 411v250h120v-250h-120z" />
    <glyph glyph-name="section" unicode="&#xa7;" 
d="M521 653l-87 -93q-83 58 -152 58q-26 0 -42.5 -12.5t-16.5 -29.5q0 -23 15 -36q14 -13 62 -36l121 -57q115 -54 115 -165t-101 -162q46 -36 46 -102q0 -76 -62 -121q-57 -41 -147 -41q-142 0 -240 84l96 88q58 -58 143 -58q33 0 49.5 11t16.5 33q0 29 -40 50l-172 92
q-105 56 -105 160q0 56 27 94t80 59q-24 18 -36 44t-12 59q0 72 56.5 116t146.5 44q125 0 239 -79zM203 266l152 -91q28 32 33 39q16 23 16 46q0 40 -55 70l-145 78q-14 0 -33 -24q-20 -25 -19 -47q1 -41 51 -71z" />
    <glyph glyph-name="dieresis" unicode="&#xa8;" horiz-adv-x="278" 
d="M320 602h-150v126h150v-126zM108 602h-150v126h150v-126z" />
    <glyph glyph-name="copyright" unicode="&#xa9;" horiz-adv-x="800" 
d="M582 418h-98q-10 71 -90 71q-46 0 -69 -32.5t-23 -97.5q0 -61 25.5 -97.5t68.5 -36.5q84 0 88 73h101q-10 -75 -59.5 -116t-117.5 -41q-92 0 -150 61.5t-58 153.5q0 95 56 156t150 61q69 0 116.5 -40.5t59.5 -114.5zM24 356q0 156 110 266t266 110t266 -110t110 -266
t-110 -266t-266 -110t-266 110t-110 266zM680 356q0 133 -82 215q-79 79 -198 79t-198 -79q-82 -82 -82 -215t82 -215q79 -79 198 -79t199.5 80.5t80.5 213.5z" />
    <glyph glyph-name="Scommaaccent" horiz-adv-x="685" 
d="M264 -336v59q50 13 50 82h-53v135h130v-135q0 -116 -127 -141zM2 125l136 88q99 -89 206 -89q46 0 84 18q49 23 49 64q0 50 -80 63l-148 24q-204 33 -204 196q0 121 89 186q78 57 202 57q191 0 314 -137l-135 -97q-74 90 -191 90q-35 0 -66 -19q-35 -21 -35 -53
q0 -52 99 -68l68 -11q123 -20 183 -59q76 -50 76 -144q0 -143 -113 -207q-83 -47 -213 -47q-188 0 -321 145z" />
    <glyph glyph-name="guillemotleft" unicode="&#xab;" horiz-adv-x="389" 
d="M31 214v124l144 114v-128l-60 -48l60 -48v-128zM214 214v124l144 114v-128l-60 -48l60 -48v-128z" />
    <glyph glyph-name="logicalnot" unicode="&#xac;" horiz-adv-x="600" 
d="M47 305v120h506v-317h-120v197h-386z" />
    <glyph glyph-name="registered" unicode="&#xae;" horiz-adv-x="800" 
d="M338 324v-172h-90v412h202q62 0 93 -29t31 -88q0 -55 -28 -84t-84 -33l105 -178h-101l-93 172h-35zM339 492v-96h78q28 0 41.5 12t13.5 36q0 31 -16 41q-11 7 -39 7h-78zM680 356q0 133 -82 215q-79 79 -198 79t-198 -79q-82 -82 -82 -215t82 -215q79 -79 198 -79
t199.5 80.5t80.5 213.5zM24 356q0 156 110 266t266 110t266 -110t110 -266t-110 -266t-266 -110t-266 110t-110 266z" />
    <glyph glyph-name="Zdotaccent" unicode="&#x17b;" horiz-adv-x="685" 
d="M284 810v126h150v-126h-150zM258 138h389v-138h-611v133l396 441h-365v138h582v-139z" />
    <glyph glyph-name="degree" unicode="&#xb0;" horiz-adv-x="400" 
d="M49 545q0 62 44.5 106.5t106.5 44.5t106.5 -44.5t44.5 -106.5t-44.5 -106.5t-106.5 -44.5t-106.5 44.5t-44.5 106.5zM115 545q0 -35 25 -60t60 -25t60 25t25 60t-25 60t-60 25t-60 -25t-25 -60z" />
    <glyph glyph-name="plusminus" unicode="&#xb1;" horiz-adv-x="600" 
d="M240 388v118h120v-118h193v-120h-193v-118h-120v118h-193v120h193zM47 0v120h506v-120h-506z" />
    <glyph glyph-name="ogonek" unicode="&#x2db;" horiz-adv-x="278" 
d="M136 0h52q-89 -81 -89 -128q0 -21 12 -32t36 -11q39 0 55 32l30 -11q-52 -75 -136 -75q-40 0 -60.5 20t-20.5 59q0 94 121 146z" />
    <glyph glyph-name="lslash" unicode="&#x142;" horiz-adv-x="296" 
d="M70 0v278l-64 -46v104l64 46v330h156v-217l64 46v-104l-64 -46v-391h-156z" />
    <glyph glyph-name="acute" unicode="&#xb4;" horiz-adv-x="278" 
d="M-1 592l99 150h181l-160 -150h-120z" />
    <glyph glyph-name="mu" unicode="&#xb5;" horiz-adv-x="611" 
d="M541 532v-532h-156v27q-18 -20 -38 -30.5t-41 -10.5q-25 0 -45 8t-35 23v-193h-156v708h156v-333q0 -43 19 -65t57 -22q43 0 65 25q18 20 18 50v345h156z" />
    <glyph glyph-name="mu" unicode="&#x3bc;" horiz-adv-x="611" 
d="M541 532v-532h-156v27q-18 -20 -38 -30.5t-41 -10.5q-25 0 -45 8t-35 23v-193h-156v708h156v-333q0 -43 19 -65t57 -22q43 0 65 25q18 20 18 50v345h156z" />
    <glyph glyph-name="paragraph" unicode="&#xb6;" horiz-adv-x="620" 
d="M253 -124v487q-108 0 -165.5 45t-57.5 126q0 100 71 143q58 35 175 35h314v-836h-120v746h-97v-746h-120z" />
    <glyph glyph-name="periodcentered" unicode="&#xb7;" horiz-adv-x="278" 
d="M46 285q0 38 27.5 65.5t65.5 27.5t65.5 -27.5t27.5 -65.5t-27.5 -65.5t-65.5 -27.5t-65.5 27.5t-27.5 65.5z" />
    <glyph glyph-name="periodcentered" unicode="&#x2219;" horiz-adv-x="278" 
d="M46 285q0 38 27.5 65.5t65.5 27.5t65.5 -27.5t27.5 -65.5t-27.5 -65.5t-65.5 -27.5t-65.5 27.5t-27.5 65.5z" />
    <glyph glyph-name="cedilla" unicode="&#xb8;" horiz-adv-x="278" 
d="M113 -5h56l-41 -62q20 4 36 4q36 0 62 -18q30 -21 30 -57q0 -40 -29 -66q-35 -30 -99 -30t-119 26l21 45q36 -19 81 -19q26 0 39 10t13 29q0 17 -11 25.5t-33 8.5q-27 0 -41 -6l-21 18z" />
    <glyph glyph-name="aogonek" unicode="&#x105;" horiz-adv-x="593" 
d="M369 222v37l-105 -30q-75 -21 -75 -69q0 -60 73 -60q53 0 81 36q26 32 26 86zM455 0q-88 -80 -88 -127q0 -43 48 -43q39 0 55 32l30 -11q-52 -75 -136 -75q-81 0 -81 79q0 93 119 145h-13q-8 25 -10 55h-2q-20 -31 -72 -51q-45 -18 -88 -18q-77 0 -126 40q-52 42 -52 118
q0 112 117 160q54 23 213 45v44q0 57 -74 57q-71 0 -82 -71h-150q5 167 219 167q105 0 159 -25q78 -36 78 -129v-281q0 -75 14 -111h-78z" />
    <glyph glyph-name="scommaaccent" 
d="M208 -336v59q50 13 50 82h-53v135h130v-135q0 -116 -127 -141zM511 469l-96 -94q-22 26 -67 42q-40 15 -80 15q-33 0 -50 -10t-17 -31q0 -35 82 -52q122 -26 151 -39q82 -38 82 -124q0 -97 -76 -147q-65 -43 -164 -43q-84 0 -144 26q-55 23 -116 79l97 84q78 -75 168 -75
q43 0 64 13.5t21 40.5q0 32 -82 48q-120 25 -151 39q-82 37 -82 119q0 93 72 143q61 43 153 43q120 0 235 -77z" />
    <glyph glyph-name="guillemotright" unicode="&#xbb;" horiz-adv-x="389" 
d="M358 337v-123l-144 -114v128l60 48l-60 48v128zM175 337v-123l-144 -114v128l60 48l-60 48v128z" />
    <glyph glyph-name="Lcaron" unicode="&#x13d;" 
d="M336 436v59q50 13 50 82h-53v135h130v-135q0 -116 -127 -141zM69 0v712h178v-562h278v-150h-456z" />
    <glyph glyph-name="hungarumlaut" unicode="&#x2dd;" horiz-adv-x="278" 
d="M-122 592l98 150h181l-159 -150h-120zM121 592l98 150h181l-159 -150h-120z" />
    <glyph glyph-name="lcaron" unicode="&#x13e;" horiz-adv-x="419" 
d="M292 436v59q50 13 50 82h-53v135h130v-135q0 -116 -127 -141zM226 0h-156v712h156v-712z" />
    <glyph glyph-name="zdotaccent" unicode="&#x17c;" horiz-adv-x="574" 
d="M230 602v126h150v-126h-150zM77 412v120h451v-126l-283 -286h281v-120h-480v126l283 286h-252z" />
    <glyph glyph-name="Racute" unicode="&#x154;" horiz-adv-x="722" 
d="M249 800l99 150h181l-160 -150h-120zM247 580v-192h163q48 0 71.5 24t23.5 72t-23.5 72t-71.5 24h-163zM69 0v712h356q129 0 193.5 -58.5t64.5 -175.5q0 -69 -40 -120.5t-107 -71.5l163 -286h-199l-140 256h-113v-256h-178z" />
    <glyph glyph-name="Aacute" unicode="&#xc1;" horiz-adv-x="722" 
d="M266 800l99 150h181l-160 -150h-120zM3 0l263 712h184l269 -712h-191l-36 112h-263l-36 -112h-190zM271 244h178l-90 294z" />
    <glyph glyph-name="Acircumflex" unicode="&#xc2;" horiz-adv-x="722" 
d="M284 950h153l115 -150h-131l-61 82l-62 -82h-128zM3 0l263 712h184l269 -712h-191l-36 112h-263l-36 -112h-190zM271 244h178l-90 294z" />
    <glyph glyph-name="Abreve" unicode="&#x102;" horiz-adv-x="722" 
d="M464 958h72q-4 -74 -56 -115q-46 -37 -119 -37q-78 0 -125 39t-50 113h72q9 -68 103 -68q95 0 103 68zM3 0l263 712h184l269 -712h-191l-36 112h-263l-36 -112h-190zM271 244h178l-90 294z" />
    <glyph glyph-name="Adieresis" unicode="&#xc4;" horiz-adv-x="722" 
d="M541 810h-150v126h150v-126zM329 810h-150v126h150v-126zM3 0l263 712h184l269 -712h-191l-36 112h-263l-36 -112h-190zM271 244h178l-90 294z" />
    <glyph glyph-name="Lacute" unicode="&#x139;" 
d="M69 800l99 150h181l-160 -150h-120zM69 0v712h178v-562h278v-150h-456z" />
    <glyph glyph-name="Cacute" unicode="&#x106;" horiz-adv-x="704" 
d="M291 800l99 150h181l-160 -150h-120zM682 546l-142 -71q-18 49 -59.5 78t-88.5 29q-79 0 -125 -53q-51 -59 -51 -173q0 -92 39 -152q47 -74 143 -74q39 0 82.5 27.5t63.5 72.5l141 -68q-46 -84 -122 -133t-165 -49q-164 0 -265 113q-95 106 -95 263q0 158 90 263
q96 113 256 113q194 0 298 -186z" />
    <glyph glyph-name="Ccedilla" unicode="&#xc7;" horiz-adv-x="704" 
d="M310 -97l48 79q-146 14 -235 121q-85 104 -85 253q0 161 92 266q96 110 254 110q194 0 298 -186l-142 -71q-17 47 -58 77t-90 30q-92 0 -138 -70q-38 -59 -38 -156q0 -96 42 -157q48 -69 140 -69q44 0 86 29.5t60 70.5l141 -68q-44 -79 -113 -126q-73 -51 -159 -55
l-32 -48q20 4 36 4q37 0 64.5 -19.5t27.5 -55.5q0 -50 -41 -75q-34 -21 -87 -21q-64 0 -119 26l21 45q36 -19 81 -19q52 0 52 39q0 34 -44 34q-27 0 -41 -6z" />
    <glyph glyph-name="Ccaron" unicode="&#x10c;" horiz-adv-x="704" 
d="M456 762h-153l-114 150h128l62 -82l61 82h131zM682 546l-142 -71q-18 49 -59.5 78t-88.5 29q-79 0 -125 -53q-51 -59 -51 -173q0 -92 39 -152q47 -74 143 -74q39 0 82.5 27.5t63.5 72.5l141 -68q-46 -84 -122 -133t-165 -49q-164 0 -265 113q-95 106 -95 263
q0 158 90 263q96 113 256 113q194 0 298 -186z" />
    <glyph glyph-name="Eacute" unicode="&#xc9;" horiz-adv-x="648" 
d="M256 800l99 150h181l-160 -150h-120zM623 0h-554v712h524v-138h-346v-130h323v-138h-323v-168h376v-138z" />
    <glyph glyph-name="Eogonek" unicode="&#x118;" horiz-adv-x="648" 
d="M561 0q-89 -81 -89 -128q0 -43 48 -43q39 0 55 32l30 -11q-52 -75 -136 -75q-81 0 -81 79q0 94 121 146h-440v712h524v-138h-346v-130h323v-138h-323v-168h376v-138h-62z" />
    <glyph glyph-name="Edieresis" unicode="&#xcb;" horiz-adv-x="648" 
d="M505 810h-150v126h150v-126zM293 810h-150v126h150v-126zM623 0h-554v712h524v-138h-346v-130h323v-138h-323v-168h376v-138z" />
    <glyph glyph-name="Ecaron" unicode="&#x11a;" horiz-adv-x="648" 
d="M422 763h-153l-114 150h128l62 -82l61 82h131zM623 0h-554v712h524v-138h-346v-130h323v-138h-323v-168h376v-138z" />
    <glyph glyph-name="Iacute" unicode="&#xcd;" horiz-adv-x="316" 
d="M64 800l99 150h181l-160 -150h-120zM69 0v712h178v-712h-178z" />
    <glyph glyph-name="Icircumflex" unicode="&#xce;" horiz-adv-x="316" 
d="M81 950h153l115 -150h-131l-61 82l-62 -82h-128zM69 0v712h178v-712h-178z" />
    <glyph glyph-name="Dcaron" unicode="&#x10e;" horiz-adv-x="741" 
d="M409 763h-153l-114 150h128l62 -82l61 82h131zM64 0v712h276q171 0 263 -83q100 -90 100 -273t-100 -273q-92 -83 -263 -83h-276zM242 562v-412h102q91 0 136 51.5t45 154.5t-45.5 154.5t-136.5 51.5h-101z" />
    <glyph glyph-name="Dcroat" unicode="&#x110;" horiz-adv-x="741" 
d="M64 0v312h-71v120h71v280h276q171 0 263 -83q100 -90 100 -273t-100 -273q-92 -83 -263 -83h-276zM242 312v-162h102q91 0 136 51.5t45 154.5t-45 154.5t-136 51.5h-102v-130h133v-120h-133z" />
    <glyph glyph-name="Nacute" unicode="&#x143;" horiz-adv-x="741" 
d="M281 800l99 150h181l-160 -150h-120zM69 0v712h180l261 -455v455h162v-712h-178l-263 448v-448h-162z" />
    <glyph glyph-name="Ncaron" unicode="&#x147;" horiz-adv-x="741" 
d="M449 763h-153l-114 150h128l62 -82l61 82h131zM69 0v712h180l261 -455v455h162v-712h-178l-263 448v-448h-162z" />
    <glyph glyph-name="Oacute" unicode="&#xd3;" horiz-adv-x="796" 
d="M303 800l99 150h181l-160 -150h-120zM580 356q0 94 -41 155q-49 71 -141 71q-83 0 -130 -53q-52 -58 -52 -173q0 -92 39 -152q47 -74 143 -74q92 0 141 72q41 61 41 154zM758 356q0 -157 -95 -263q-101 -113 -265 -113t-265 113q-95 106 -95 263t95 263q101 113 265 113
t265 -113q95 -106 95 -263z" />
    <glyph glyph-name="Ocircumflex" unicode="&#xd4;" horiz-adv-x="796" 
d="M321 950h153l115 -150h-131l-61 82l-62 -82h-128zM580 356q0 94 -41 155q-49 71 -141 71q-83 0 -130 -53q-52 -58 -52 -173q0 -92 39 -152q47 -74 143 -74q92 0 141 72q41 61 41 154zM758 356q0 -157 -95 -263q-101 -113 -265 -113t-265 113q-95 106 -95 263t95 263
q101 113 265 113t265 -113q95 -106 95 -263z" />
    <glyph glyph-name="Ohungarumlaut" unicode="&#x150;" horiz-adv-x="796" 
d="M191 800l98 150h181l-159 -150h-120zM434 800l98 150h181l-159 -150h-120zM580 356q0 94 -41 155q-49 71 -141 71q-83 0 -130 -53q-52 -58 -52 -173q0 -92 39 -152q47 -74 143 -74q92 0 141 72q41 61 41 154zM758 356q0 -157 -95 -263q-101 -113 -265 -113t-265 113
q-95 106 -95 263t95 263q101 113 265 113t265 -113q95 -106 95 -263z" />
    <glyph glyph-name="Odieresis" unicode="&#xd6;" horiz-adv-x="796" 
d="M580 810h-150v126h150v-126zM368 810h-150v126h150v-126zM580 356q0 94 -41 155q-49 71 -141 71q-83 0 -130 -53q-52 -58 -52 -173q0 -92 39 -152q47 -74 143 -74q92 0 141 72q41 61 41 154zM758 356q0 -157 -95 -263q-101 -113 -265 -113t-265 113q-95 106 -95 263
t95 263q101 113 265 113t265 -113q95 -106 95 -263z" />
    <glyph glyph-name="multiply" unicode="&#xd7;" horiz-adv-x="600" 
d="M218 253l-154 154l82 82l154 -154l154 154l82 -82l-155 -154l155 -154l-82 -82l-154 155l-154 -155l-82 82z" />
    <glyph glyph-name="Rcaron" unicode="&#x158;" horiz-adv-x="722" 
d="M430 763h-153l-114 150h128l62 -82l61 82h131zM247 580v-192h163q48 0 71.5 24t23.5 72t-23.5 72t-71.5 24h-163zM69 0v712h356q129 0 193.5 -58.5t64.5 -175.5q0 -69 -40 -120.5t-107 -71.5l163 -286h-199l-140 256h-113v-256h-178z" />
    <glyph glyph-name="Uring" unicode="&#x16e;" horiz-adv-x="741" 
d="M482 900q0 -46 -33 -79t-79 -33t-79 33t-33 79t33 79t79 33t79 -33t33 -79zM422 900q0 21 -15.5 36.5t-36.5 15.5t-36.5 -16t-15.5 -36t15.5 -36t36.5 -16t36.5 15.5t15.5 36.5zM672 712v-464q0 -134 -100 -207q-83 -61 -202 -61q-118 0 -201 61q-100 73 -100 207v464
h178v-449q0 -69 31 -104t92 -35q62 0 93 35t31 104v449h178z" />
    <glyph glyph-name="Uacute" unicode="&#xda;" horiz-adv-x="741" 
d="M276 800l99 150h181l-160 -150h-120zM672 712v-464q0 -134 -100 -207q-83 -61 -202 -61q-118 0 -201 61q-100 73 -100 207v464h178v-449q0 -69 31 -104t92 -35q62 0 93 35t31 104v449h178z" />
    <glyph glyph-name="Uhungarumlaut" unicode="&#x170;" horiz-adv-x="741" 
d="M162 800l98 150h181l-159 -150h-120zM405 800l98 150h181l-159 -150h-120zM672 712v-464q0 -134 -100 -207q-83 -61 -202 -61q-118 0 -201 61q-100 73 -100 207v464h178v-449q0 -69 31 -104t92 -35q62 0 93 35t31 104v449h178z" />
    <glyph glyph-name="Udieresis" unicode="&#xdc;" horiz-adv-x="741" 
d="M550 810h-150v126h150v-126zM338 810h-150v126h150v-126zM672 712v-464q0 -134 -100 -207q-83 -61 -202 -61q-118 0 -201 61q-100 73 -100 207v464h178v-449q0 -69 31 -104t92 -35q62 0 93 35t31 104v449h178z" />
    <glyph glyph-name="Yacute" unicode="&#xdd;" horiz-adv-x="722" 
d="M266 800l99 150h181l-160 -150h-120zM272 0v332l-270 380h208l151 -246l151 246h208l-270 -380v-332h-178z" />
    <glyph glyph-name="Tcommaaccent" unicode="&#x162;" horiz-adv-x="574" 
d="M228 -336v59q50 13 50 82h-53v135h130v-135q0 -116 -127 -141zM12 574v138h550v-138h-186v-574h-178v574h-186z" />
    <glyph glyph-name="germandbls" unicode="&#xdf;" horiz-adv-x="611" 
d="M70 0v504q0 108 60.5 162t181.5 54q112 0 167.5 -46.5t55.5 -140.5q0 -102 -96 -127q70 -3 105 -50t35 -137q0 -118 -56 -179q-50 -54 -134 -54q-57 0 -101 20v116q32 -16 58 -16q27 0 47 22q30 32 30 105q0 70 -21 98q-26 34 -95 33v84q84 0 84 76q0 44 -19.5 66
t-59.5 22q-43 0 -64.5 -25.5t-21.5 -76.5v-510h-156z" />
    <glyph glyph-name="racute" unicode="&#x155;" horiz-adv-x="389" 
d="M108 592l99 150h181l-160 -150h-120zM70 0v532h156v-54q52 49 146 56l1 -138l-17 -2q-73 -9 -100 -25q-30 -18 -30 -61v-308h-156z" />
    <glyph glyph-name="aacute" unicode="&#xe1;" horiz-adv-x="593" 
d="M201 592l99 150h181l-160 -150h-120zM369 222v37l-105 -30q-75 -21 -75 -69q0 -30 18.5 -45t54.5 -15q48 0 77.5 31.5t29.5 90.5zM519 392v-281q0 -75 14 -111h-144q-8 25 -12 55q-19 -30 -69 -50q-46 -19 -91 -19q-79 0 -127 41q-51 43 -51 117q0 91 73 138
q62 40 200 59l57 8v44q0 29 -18.5 43t-55.5 14q-38 0 -57 -16t-25 -55h-150q5 167 219 167q117 0 173 -32q64 -37 64 -122z" />
    <glyph glyph-name="acircumflex" unicode="&#xe2;" horiz-adv-x="593" 
d="M220 773h153l115 -150h-131l-61 82l-62 -82h-128zM369 222v37l-105 -30q-75 -21 -75 -69q0 -30 18.5 -45t54.5 -15q48 0 77.5 31.5t29.5 90.5zM519 392v-281q0 -75 14 -111h-144q-8 25 -12 55q-19 -30 -69 -50q-46 -19 -91 -19q-79 0 -127 41q-51 43 -51 117q0 91 73 138
q62 40 200 59l57 8v44q0 29 -18.5 43t-55.5 14q-38 0 -57 -16t-25 -55h-150q5 167 219 167q117 0 173 -32q64 -37 64 -122z" />
    <glyph glyph-name="abreve" unicode="&#x103;" horiz-adv-x="593" 
d="M389 738h72q-4 -74 -56 -115q-46 -37 -119 -37q-78 0 -125 39t-50 113h72q9 -68 103 -68q95 0 103 68zM369 222v37l-105 -30q-75 -21 -75 -69q0 -30 18.5 -45t54.5 -15q48 0 77.5 31.5t29.5 90.5zM519 392v-281q0 -75 14 -111h-144q-8 25 -12 55q-19 -30 -69 -50
q-46 -19 -91 -19q-79 0 -127 41q-51 43 -51 117q0 91 73 138q62 40 200 59l57 8v44q0 29 -18.5 43t-55.5 14q-38 0 -57 -16t-25 -55h-150q5 167 219 167q117 0 173 -32q64 -37 64 -122z" />
    <glyph glyph-name="adieresis" unicode="&#xe4;" horiz-adv-x="593" 
d="M478 602h-150v126h150v-126zM266 602h-150v126h150v-126zM369 222v37l-105 -30q-75 -21 -75 -69q0 -30 18.5 -45t54.5 -15q48 0 77.5 31.5t29.5 90.5zM519 392v-281q0 -75 14 -111h-144q-8 25 -12 55q-19 -30 -69 -50q-46 -19 -91 -19q-79 0 -127 41q-51 43 -51 117
q0 91 73 138q62 40 200 59l57 8v44q0 29 -18.5 43t-55.5 14q-38 0 -57 -16t-25 -55h-150q5 167 219 167q117 0 173 -32q64 -37 64 -122z" />
    <glyph glyph-name="ccedilla" unicode="&#xe7;" 
d="M227 -97l52 85q-118 6 -184 84q-63 74 -63 194q0 122 71.5 201t192.5 79q168 0 239 -130l-120 -63q-34 73 -100 73q-121 0 -121 -160q0 -68 26 -109q31 -51 95 -51q79 0 111 78l112 -57q-70 -122 -203 -139l-37 -55q20 4 36 4q37 0 64.5 -19.5t27.5 -55.5q0 -50 -41 -75
q-34 -21 -87 -21q-64 0 -119 26l21 45q36 -19 81 -19q52 0 52 39q0 34 -44 34q-27 0 -41 -6z" />
    <glyph glyph-name="ccaron" unicode="&#x10d;" 
d="M366 623h-153l-114 150h128l62 -82l61 82h131zM535 416l-120 -63q-34 73 -100 73q-60 0 -90.5 -40t-30.5 -120q0 -72 29 -114q32 -46 92 -46q79 0 111 78l112 -57q-37 -65 -98 -102q-64 -39 -139 -39q-122 0 -194 73q-75 75 -75 207q0 129 77 206q73 74 187 74
q168 0 239 -130z" />
    <glyph glyph-name="eacute" unicode="&#xe9;" horiz-adv-x="593" 
d="M202 592l99 150h181l-160 -150h-120zM554 234h-366q1 -70 40 -105q31 -29 76 -29q41 0 70 23q23 18 60 71l117 -61q-79 -147 -258 -147q-121 0 -192 76q-69 72 -69 188q0 140 69.5 218t191.5 78q136 0 203 -94q57 -81 58 -218zM186 330h212q-3 53 -38 80q-28 22 -68 22
q-38 0 -67 -25q-34 -28 -39 -77z" />
    <glyph glyph-name="eogonek" unicode="&#x119;" horiz-adv-x="593" 
d="M186 330h212q-3 46 -31.5 74t-74.5 28q-43 0 -72.5 -29.5t-33.5 -72.5zM463 33q-118 -111 -118 -161q0 -43 48 -43q39 0 55 32l30 -11q-52 -75 -136 -75q-81 0 -81 79q0 86 103 139q-33 -7 -71 -7q-118 0 -189.5 73t-71.5 191q0 132 63 211q69 85 198 85q135 0 202 -92
q58 -80 59 -220h-366q1 -57 29 -94q32 -40 87 -40q43 0 77 29q20 17 53 65l117 -61q-34 -64 -88 -100z" />
    <glyph glyph-name="edieresis" unicode="&#xeb;" horiz-adv-x="593" 
d="M478 602h-150v126h150v-126zM266 602h-150v126h150v-126zM554 234h-366q1 -70 40 -105q31 -29 76 -29q41 0 70 23q23 18 60 71l117 -61q-79 -147 -258 -147q-121 0 -192 76q-69 72 -69 188q0 140 69.5 218t191.5 78q136 0 203 -94q57 -81 58 -218zM186 330h212
q-3 53 -38 80q-28 22 -68 22q-38 0 -67 -25q-34 -28 -39 -77z" />
    <glyph glyph-name="ecaron" unicode="&#x11b;" horiz-adv-x="593" 
d="M369 623h-153l-114 150h128l62 -82l61 82h131zM554 234h-366q1 -70 40 -105q31 -29 76 -29q41 0 70 23q23 18 60 71l117 -61q-79 -147 -258 -147q-121 0 -192 76q-69 72 -69 188q0 140 69.5 218t191.5 78q136 0 203 -94q57 -81 58 -218zM186 330h212q-3 53 -38 80
q-28 22 -68 22q-38 0 -67 -25q-34 -28 -39 -77z" />
    <glyph glyph-name="iacute" unicode="&#xed;" horiz-adv-x="296" 
d="M52 592l99 150h181l-160 -150h-120zM70 532h156v-532h-156v532z" />
    <glyph glyph-name="icircumflex" unicode="&#xee;" horiz-adv-x="296" 
d="M71 773h153l115 -150h-131l-61 82l-62 -82h-128zM70 532h156v-532h-156v532z" />
    <glyph glyph-name="dcaron" unicode="&#x10f;" horiz-adv-x="753" 
d="M626 436v59q50 13 50 82h-53v135h130v-135q0 -116 -127 -141zM560 712v-712h-150l-2 52q-26 -33 -61.5 -49.5t-81.5 -16.5q-102 0 -163 66q-68 72 -70 210q-2 146 72 221q61 63 154 63q46 0 82.5 -14t63.5 -42v222h156zM404 277q0 78 -27 116.5t-82 38.5q-53 0 -80 -41.5
t-27 -124.5t27 -124.5t80 -41.5q55 0 82 44.5t27 132.5z" />
    <glyph glyph-name="dcroat" unicode="&#x111;" horiz-adv-x="630" 
d="M404 277q0 155 -109 155q-107 0 -107 -166t107 -166q109 0 109 177zM620 594h-60v-594h-150v52h-2q-52 -66 -143 -66q-118 0 -179 86q-54 75 -54 198q0 116 53 191q61 85 173 85q92 0 146 -56v104h-170v74h170v44h156v-44h60v-74z" />
    <glyph glyph-name="nacute" unicode="&#x144;" horiz-adv-x="611" 
d="M224 592l99 150h181l-160 -150h-120zM70 0v532h156v-47q26 31 64.5 46t89.5 15q81 0 121 -38t40 -115v-393h-156v333q0 44 -19 65.5t-57 21.5q-41 0 -62 -22t-21 -67v-331h-156z" />
    <glyph glyph-name="ncaron" unicode="&#x148;" horiz-adv-x="611" 
d="M388 623h-153l-114 150h128l62 -82l61 82h131zM70 0v532h156v-47q26 31 64.5 46t89.5 15q81 0 121 -38t40 -115v-393h-156v333q0 44 -19 65.5t-57 21.5q-41 0 -62 -22t-21 -67v-331h-156z" />
    <glyph glyph-name="oacute" unicode="&#xf3;" horiz-adv-x="630" 
d="M221 592l99 150h181l-160 -150h-120zM315 426q-64 0 -97 -46q-30 -42 -30 -114t30 -114q33 -46 97 -46t95.5 41.5t31.5 124.5q0 68 -30 109q-34 45 -97 45zM315 546q127 0 205 -74t78 -206t-78 -206t-205 -74t-205 74t-78 206t78 206t205 74z" />
    <glyph glyph-name="ocircumflex" unicode="&#xf4;" horiz-adv-x="630" 
d="M238 773h153l115 -150h-131l-61 82l-62 -82h-128zM315 426q-64 0 -97 -46q-30 -42 -30 -114t30 -114q33 -46 97 -46t95.5 41.5t31.5 124.5q0 68 -30 109q-34 45 -97 45zM315 546q127 0 205 -74t78 -206t-78 -206t-205 -74t-205 74t-78 206t78 206t205 74z" />
    <glyph glyph-name="ohungarumlaut" unicode="&#x151;" horiz-adv-x="630" 
d="M100 623l98 150h181l-159 -150h-120zM343 623l98 150h181l-159 -150h-120zM315 426q-64 0 -97 -46q-30 -42 -30 -114t30 -114q33 -46 97 -46t95.5 41.5t31.5 124.5q0 68 -30 109q-34 45 -97 45zM315 546q127 0 205 -74t78 -206t-78 -206t-205 -74t-205 74t-78 206t78 206
t205 74z" />
    <glyph glyph-name="odieresis" unicode="&#xf6;" horiz-adv-x="630" 
d="M497 602h-150v126h150v-126zM285 602h-150v126h150v-126zM315 426q-64 0 -97 -46q-30 -42 -30 -114t30 -114q33 -46 97 -46t95.5 41.5t31.5 124.5q0 68 -30 109q-34 45 -97 45zM315 546q127 0 205 -74t78 -206t-78 -206t-205 -74t-205 74t-78 206t78 206t205 74z" />
    <glyph glyph-name="divide" unicode="&#xf7;" horiz-adv-x="600" 
d="M553 193h-506v120h506v-120zM393 46q0 -38 -27.5 -65.5t-65.5 -27.5t-65.5 27.5t-27.5 65.5t27.5 65.5t65.5 27.5t65.5 -27.5t27.5 -65.5zM393 460q0 -38 -27.5 -65.5t-65.5 -27.5t-65.5 27.5t-27.5 65.5t27.5 65.5t65.5 27.5t65.5 -27.5t27.5 -65.5z" />
    <glyph glyph-name="rcaron" unicode="&#x159;" horiz-adv-x="389" 
d="M297 623h-153l-114 150h128l62 -82l61 82h131zM70 0v532h156v-54q52 49 146 56l1 -138l-17 -2q-73 -9 -100 -25q-30 -18 -30 -61v-308h-156z" />
    <glyph glyph-name="uring" unicode="&#x16f;" horiz-adv-x="611" 
d="M417 723q0 -46 -33 -79t-79 -33t-79 33t-33 79t33 79t79 33t79 -33t33 -79zM357 723q0 21 -15.5 36.5t-36.5 15.5t-36.5 -16t-15.5 -36t15.5 -36t36.5 -16t36.5 15.5t15.5 36.5zM541 532v-532h-156v47q-26 -30 -64.5 -45.5t-89.5 -15.5q-80 0 -120.5 38.5t-40.5 114.5
v393h156v-348q0 -36 19 -54t57 -18q42 0 62.5 21t20.5 62v337h156z" />
    <glyph glyph-name="uacute" unicode="&#xfa;" horiz-adv-x="611" 
d="M211 592l99 150h181l-160 -150h-120zM541 532v-532h-156v47q-26 -30 -64.5 -45.5t-89.5 -15.5q-80 0 -120.5 38.5t-40.5 114.5v393h156v-348q0 -36 19 -54t57 -18q42 0 62.5 21t20.5 62v337h156z" />
    <glyph glyph-name="uhungarumlaut" unicode="&#x171;" horiz-adv-x="611" 
d="M101 623l98 150h181l-159 -150h-120zM344 623l98 150h181l-159 -150h-120zM541 532v-532h-156v47q-26 -30 -64.5 -45.5t-89.5 -15.5q-80 0 -120.5 38.5t-40.5 114.5v393h156v-348q0 -36 19 -54t57 -18q42 0 62.5 21t20.5 62v337h156z" />
    <glyph glyph-name="udieresis" unicode="&#xfc;" horiz-adv-x="611" 
d="M487 602h-150v126h150v-126zM275 602h-150v126h150v-126zM541 532v-532h-156v47q-26 -30 -64.5 -45.5t-89.5 -15.5q-80 0 -120.5 38.5t-40.5 114.5v393h156v-348q0 -36 19 -54t57 -18q42 0 62.5 21t20.5 62v337h156z" />
    <glyph glyph-name="yacute" unicode="&#xfd;" horiz-adv-x="500" 
d="M170 592l99 150h181l-160 -150h-120zM41 -176v122q36 -2 53 -2q72 0 72 39q0 13 -14 57l-156 492h164l88 -406l87 406h169l-187 -567q-23 -70 -52 -101q-37 -40 -101 -40h-123z" />
    <glyph glyph-name="tcommaaccent" unicode="&#x163;" horiz-adv-x="352" 
d="M141 -336v59q50 13 50 82h-53v135h130v-135q0 -116 -127 -141zM333 522v-96h-93v-261q0 -26 12.5 -39.5t36.5 -13.5q23 0 47 3v-123q-60 -6 -100 -6q-90 0 -126 51q-26 37 -26 109v280h-76v96h76v154h156v-154h93z" />
    <glyph glyph-name="dotaccent" unicode="&#x2d9;" horiz-adv-x="278" 
d="M64 602v126h150v-126h-150z" />
    <glyph glyph-name="kcommaaccent" unicode="&#x137;" horiz-adv-x="593" 
d="M270 -336v59q50 13 50 82h-53v135h130v-135q0 -116 -127 -141zM226 0h-156v712h156v-359l162 179h191l-182 -202l197 -330h-178l-132 215l-58 -59v-156z" />
    <glyph glyph-name="Gcommaaccent" unicode="&#x122;" horiz-adv-x="759" 
d="M314 -336v59q50 13 50 82h-53v135h130v-135q0 -116 -127 -141zM715 554l-148 -65q-53 93 -168 93q-85 0 -132 -54q-51 -59 -51 -172q0 -106 47 -166t136 -60q56 0 100 30q52 36 58 99h-158v138h308v-397h-138v64q-73 -84 -207 -84q-157 0 -243 105q-81 100 -81 268
q0 169 88 271q93 108 261 108q221 0 328 -178z" />
    <glyph glyph-name="Kcommaaccent" unicode="&#x136;" horiz-adv-x="741" 
d="M335 -336v59q50 13 50 82h-53v135h130v-135q0 -116 -127 -141zM69 0v712h178v-284l255 284h236l-259 -270l267 -442h-198l-194 316l-107 -109v-207h-178z" />
    <glyph glyph-name="Idotaccent" unicode="&#x130;" horiz-adv-x="316" 
d="M83 810v126h150v-126h-150zM69 0v712h178v-712h-178z" />
    <glyph glyph-name="lcommaaccent" unicode="&#x13c;" horiz-adv-x="296" 
d="M86 -336v59q50 13 50 82h-53v135h130v-135q0 -116 -127 -141zM226 0h-156v712h156v-712z" />
    <glyph glyph-name="gcommaaccent" unicode="&#x123;" horiz-adv-x="611" 
d="M349 899v-59q-50 -13 -50 -82h53v-135h-130v135q0 116 127 141zM393 532h144v-533q0 -87 -63.5 -131t-191.5 -44q-244 0 -245 184h162q1 -82 90 -82q50 0 71 16q26 20 26 74v61q-22 -22 -59 -33t-88 -11q-105 0 -159 77q-48 67 -48 177q0 106 52 178q57 81 157 81
q48 0 86 -14t66 -42v42zM387 289q0 74 -32 112q-27 31 -69 31q-49 0 -73.5 -35.5t-24.5 -107.5q0 -71 24 -106.5t72 -35.5q66 0 89 50q14 31 14 92z" />
    <glyph glyph-name="ncommaaccent" unicode="&#x149;" horiz-adv-x="611" 
d="M248 -336v59q50 13 50 82h-53v135h130v-135q0 -116 -127 -141zM70 0v532h156v-47q26 31 64.5 46t89.5 15q81 0 121 -38t40 -115v-393h-156v333q0 44 -19 65.5t-57 21.5q-41 0 -62 -22t-21 -67v-331h-156z" />
    <glyph glyph-name="Lcommaaccent" unicode="&#x13b;" 
d="M235 -336v59q50 13 50 82h-53v135h130v-135q0 -116 -127 -141zM69 0v712h178v-562h278v-150h-456z" />
    <glyph glyph-name="rcommaaccent" unicode="&#x157;" horiz-adv-x="389" 
d="M89 -336v59q50 13 50 82h-53v135h130v-135q0 -116 -127 -141zM70 0v532h156v-54q52 49 146 56l1 -138l-17 -2q-73 -9 -100 -25q-30 -18 -30 -61v-308h-156z" />
    <glyph glyph-name="Rcommaaccent" unicode="&#x156;" horiz-adv-x="722" 
d="M322 -336v59q50 13 50 82h-53v135h130v-135q0 -116 -127 -141zM247 580v-192h163q48 0 71.5 24t23.5 72t-23.5 72t-71.5 24h-163zM69 0v712h356q129 0 193.5 -58.5t64.5 -175.5q0 -69 -40 -120.5t-107 -71.5l163 -286h-199l-140 256h-113v-256h-178z" />
    <glyph glyph-name="Edotaccent" unicode="&#x116;" horiz-adv-x="648" 
d="M271 810v126h150v-126h-150zM623 0h-554v712h524v-138h-346v-130h323v-138h-323v-168h376v-138z" />
    <glyph glyph-name="edotaccent" unicode="&#x117;" horiz-adv-x="593" 
d="M218 602v126h150v-126h-150zM554 234h-366q1 -70 40 -105q31 -29 76 -29q41 0 70 23q23 18 60 71l117 -61q-79 -147 -258 -147q-121 0 -192 76q-69 72 -69 188q0 140 69.5 218t191.5 78q136 0 203 -94q57 -81 58 -218zM186 330h212q-3 53 -38 80q-28 22 -68 22
q-38 0 -67 -25q-34 -28 -39 -77z" />
    <glyph glyph-name="commaaccent" unicode="&#x326;" horiz-adv-x="250" 
d="M63 -336v59q50 13 50 82h-53v135h130v-135q0 -116 -127 -141z" />
    <glyph glyph-name="Ncommaaccent" unicode="&#x145;" horiz-adv-x="741" 
d="M308 -336v59q50 13 50 82h-53v135h130v-135q0 -116 -127 -141zM69 0v712h180l261 -455v455h162v-712h-178l-263 448v-448h-162z" />
    <glyph glyph-name="uogonek" unicode="&#x173;" horiz-adv-x="611" 
d="M447 0q-89 -81 -89 -128q0 -43 48 -43q39 0 55 32l30 -11q-52 -75 -136 -75q-81 0 -81 79q0 94 121 146h-10v47q-52 -61 -154 -61q-161 0 -161 153v393h156v-348q0 -72 76 -72q83 0 83 83v337h156v-532h-94z" />
    <glyph glyph-name="Uogonek" unicode="&#x172;" horiz-adv-x="741" 
d="M441 -14q-95 -86 -95 -134q0 -43 48 -43q39 0 55 32l30 -11q-52 -75 -136 -75q-81 0 -81 79q0 91 120 146h-12q-128 0 -212 69q-89 73 -89 199v464h178v-449q0 -139 123 -139q124 0 124 139v449h178v-464q0 -107 -67 -178q-62 -66 -164 -84z" />
    <glyph glyph-name="umacron" unicode="&#x16b;" horiz-adv-x="611" 
d="M469 584h-326v84h326v-84zM541 532v-532h-156v47q-26 -30 -64.5 -45.5t-89.5 -15.5q-80 0 -120.5 38.5t-40.5 114.5v393h156v-348q0 -36 19 -54t57 -18q42 0 62.5 21t20.5 62v337h156z" />
    <glyph glyph-name="Umacron" unicode="&#x16a;" horiz-adv-x="741" 
d="M533 762h-326v84h326v-84zM672 712v-464q0 -134 -100 -207q-83 -61 -202 -61q-118 0 -201 61q-100 73 -100 207v464h178v-449q0 -69 31 -104t92 -35q62 0 93 35t31 104v449h178z" />
    <glyph glyph-name="scedilla" unicode="&#x15f;" 
d="M297 -13l-35 -54q20 4 36 4q37 0 64.5 -19.5t27.5 -55.5q0 -50 -41 -75q-34 -21 -87 -21q-64 0 -119 26l21 45q36 -19 81 -19q52 0 52 39q0 34 -44 34q-27 0 -41 -6l-21 18l51 84q-122 8 -226 104l97 84q78 -75 168 -75q85 0 85 54q0 31 -82 48q-120 25 -151 40
q-82 38 -82 118q0 91 69 141q62 45 156 45q120 0 235 -77l-96 -94q-22 26 -68 42q-41 15 -79 15q-67 0 -67 -41q0 -34 82 -52q122 -27 151 -40q82 -39 82 -123q0 -91 -67 -141q-58 -43 -152 -48z" />
    <glyph glyph-name="Scedilla" unicode="&#x15e;" horiz-adv-x="685" 
d="M352 -19l-30 -48q20 4 36 4q37 0 64.5 -19.5t27.5 -55.5q0 -50 -41 -75q-34 -21 -87 -21q-64 0 -119 26l21 45q36 -19 81 -19q52 0 52 39q0 34 -44 34q-27 0 -41 -6l-21 18l44 78q-170 10 -293 144l136 88q99 -89 206 -89q46 0 85 18q48 23 48 64q0 51 -112 69
q-170 28 -208 44q-112 48 -112 170q0 121 88 185q78 58 203 58q191 0 314 -137l-135 -97q-74 90 -191 90q-35 0 -65 -18q-36 -22 -36 -54q0 -48 110 -70q169 -33 206 -49q110 -49 110 -163q0 -127 -90 -192q-76 -56 -207 -61z" />
    <glyph glyph-name="omacron" unicode="&#x14d;" horiz-adv-x="630" 
d="M478 628h-326v84h326v-84zM315 426q-64 0 -97 -46q-30 -42 -30 -114t30 -114q33 -46 97 -46t95.5 41.5t31.5 124.5q0 68 -30 109q-34 45 -97 45zM315 546q127 0 205 -74t78 -206t-78 -206t-205 -74t-205 74t-78 206t78 206t205 74z" />
    <glyph glyph-name="Omacron" unicode="&#x14c;" horiz-adv-x="796" 
d="M560 762h-326v84h326v-84zM580 356q0 94 -41 155q-49 71 -141 71q-83 0 -130 -53q-52 -58 -52 -173q0 -92 39 -152q47 -74 143 -74q92 0 141 72q41 61 41 154zM758 356q0 -157 -95 -263q-101 -113 -265 -113t-265 113q-95 106 -95 263t95 263q101 113 265 113t265 -113
q95 -106 95 -263z" />
    <glyph glyph-name="iogonek" unicode="&#x12f;" horiz-adv-x="296" 
d="M226 592h-156v120h156v-120zM163 0q-89 -81 -89 -128q0 -43 48 -43q39 0 55 32l30 -11q-52 -75 -136 -75q-81 0 -81 79q0 94 121 146h-41v532h156v-532h-63z" />
    <glyph glyph-name="Iogonek" unicode="&#x12e;" horiz-adv-x="316" 
d="M171 0q-89 -81 -89 -128q0 -43 48 -43q39 0 55 32l30 -11q-52 -75 -136 -75q-81 0 -81 79q0 94 121 146h-50v712h178v-712h-76z" />
    <glyph glyph-name="imacron" unicode="&#x12b;" horiz-adv-x="296" 
d="M311 628h-326v84h326v-84zM70 532h156v-532h-156v532z" />
    <glyph glyph-name="Imacron" unicode="&#x12a;" horiz-adv-x="316" 
d="M321 762h-326v84h326v-84zM69 0v712h178v-712h-178z" />
    <glyph glyph-name="gbreve" unicode="&#x11f;" horiz-adv-x="611" 
d="M387 738h72q-4 -74 -56 -115q-46 -37 -119 -37q-78 0 -125 39t-50 113h72q9 -68 103 -68q95 0 103 68zM393 532h144v-533q0 -87 -63.5 -131t-191.5 -44q-244 0 -245 184h162q1 -82 90 -82q50 0 71 16q26 20 26 74v61q-22 -22 -59 -33t-88 -11q-105 0 -159 77
q-48 67 -48 177q0 106 52 178q57 81 157 81q48 0 86 -14t66 -42v42zM387 289q0 74 -32 112q-27 31 -69 31q-49 0 -73.5 -35.5t-24.5 -107.5q0 -71 24 -106.5t72 -35.5q66 0 89 50q14 31 14 92z" />
    <glyph glyph-name="Gbreve" unicode="&#x11e;" horiz-adv-x="759" 
d="M491 958h72q-4 -74 -56 -115q-46 -37 -119 -37q-78 0 -125 39t-50 113h72q9 -68 103 -68q95 0 103 68zM715 554l-148 -65q-53 93 -168 93q-85 0 -132 -54q-51 -59 -51 -172q0 -106 47 -166t136 -60q56 0 100 30q52 36 58 99h-158v138h308v-397h-138v64q-73 -84 -207 -84
q-157 0 -243 105q-81 100 -81 268q0 169 88 271q93 108 261 108q221 0 328 -178z" />
    <glyph glyph-name="emacron" unicode="&#x113;" horiz-adv-x="593" 
d="M456 628h-326v84h326v-84zM554 234h-366q1 -70 40 -105q31 -29 76 -29q41 0 70 23q23 18 60 71l117 -61q-79 -147 -258 -147q-121 0 -192 76q-69 72 -69 188q0 140 69.5 218t191.5 78q136 0 203 -94q57 -81 58 -218zM186 330h212q-3 53 -38 80q-28 22 -68 22
q-38 0 -67 -25q-34 -28 -39 -77z" />
    <glyph glyph-name="Emacron" unicode="&#x112;" horiz-adv-x="648" 
d="M510 762h-326v84h326v-84zM623 0h-554v712h524v-138h-346v-130h323v-138h-323v-168h376v-138z" />
    <glyph glyph-name="amacron" unicode="&#x101;" horiz-adv-x="593" 
d="M450 628h-326v84h326v-84zM369 222v37l-105 -30q-75 -21 -75 -69q0 -30 18.5 -45t54.5 -15q48 0 77.5 31.5t29.5 90.5zM519 392v-281q0 -75 14 -111h-144q-8 25 -12 55q-19 -30 -69 -50q-46 -19 -91 -19q-79 0 -127 41q-51 43 -51 117q0 91 73 138q62 40 200 59l57 8v44
q0 29 -18.5 43t-55.5 14q-38 0 -57 -16t-25 -55h-150q5 167 219 167q117 0 173 -32q64 -37 64 -122z" />
    <glyph glyph-name="Amacron" unicode="&#x100;" horiz-adv-x="722" 
d="M524 762h-326v84h326v-84zM3 0l263 712h184l269 -712h-191l-36 112h-263l-36 -112h-190zM271 244h178l-90 294z" />
    <glyph glyph-name="Ydieresis" unicode="&#x178;" horiz-adv-x="722" 
d="M272 0v332l-270 380h208l151 -246l151 246h208l-270 -380v-332h-178zM542 810h-150v126h150v-126zM330 810h-150v126h150v-126z" />
    <glyph glyph-name="lozenge" unicode="&#x25ca;" horiz-adv-x="494" 
d="M272 0h-60l-194 377l194 368h60l194 -368zM406 377l-164 314l-164 -314l164 -323z" />
    <glyph glyph-name="Delta" unicode="&#x394;" horiz-adv-x="612" 
d="M326 688l282 -688h-602zM290 517l-218 -468h412z" />
    <glyph glyph-name="Delta" unicode="&#x2206;" horiz-adv-x="612" 
d="M326 688l282 -688h-602zM290 517l-218 -468h412z" />
    <glyph glyph-name="radical" unicode="&#x221a;" horiz-adv-x="549" 
d="M26 417l-16 33l146 72l197 -403l127 798l35 -5l-150 -950l-243 502z" />
    <glyph glyph-name="summation" unicode="&#x2211;" horiz-adv-x="713" 
d="M617 745l6 -159h-20q-22 71 -50.5 92.5t-102.5 21.5h-263l273 -358l-294 -339h371q59 0 89 29q23 23 46 84h23q-30 -123 -43 -224q-70 11 -77 11h-503q-10 0 -29 -1.5t-29 -1.5l349 398l-347 454l104 -7h497z" />
    <glyph glyph-name="partialdiff" unicode="&#x2202;" horiz-adv-x="494" 
d="M104 667l-39 50q66 29 131 29q130 0 203 -116q63 -99 63 -237q0 -148 -52 -263q-67 -151 -195 -151q-82 0 -135.5 57t-53.5 139q0 85 53 153q56 74 139 74q46 0 84 -19q24 -12 72 -49q11 58 11 120q0 101 -37 165q-45 80 -138 80q-30 0 -106 -32zM366 299q-32 36 -46 46
q-26 18 -62 18q-70 0 -111 -76q-35 -63 -35 -139q0 -139 90 -139q128 0 164 290z" />
    <glyph glyph-name="greaterequal" unicode="&#x2265;" horiz-adv-x="549" 
d="M526 55v-55h-497v55h497zM526 409v-62l-497 -230v62l433 199l-433 199v62z" />
    <glyph glyph-name="lessequal" unicode="&#x2264;" horiz-adv-x="549" 
d="M29 0v55h497v-55h-497zM29 347v62l497 230v-62l-433 -199l433 -199v-62z" />
    <glyph glyph-name="notequal" unicode="&#x2260;" horiz-adv-x="549" 
d="M402 549l49 -28l-76 -136h165v-55h-195l-78 -139h273v-55h-303l-90 -161l-49 28l74 133h-157v55h188l77 139h-265v55h296z" />
    <glyph glyph-name="ydieresis" unicode="&#xff;" horiz-adv-x="500" 
d="M430 602h-150v126h150v-126zM218 602h-150v126h150v-126zM41 -176v122q36 -2 53 -2q72 0 72 39q0 13 -14 57l-156 492h164l88 -406l87 406h169l-187 -567q-23 -70 -52 -101q-37 -40 -101 -40h-123z" />
    <glyph glyph-name="thorn" unicode="&#xfe;" horiz-adv-x="611" 
d="M63 -176v888h156v-209q27 22 59.5 32.5t69.5 10.5q106 0 167 -67q64 -70 64 -195q0 -147 -62 -222.5t-172 -75.5q-35 0 -74 15.5t-52 32.5v-210h-156zM423 266q0 83 -27 124.5t-81 41.5t-81 -41.5t-27 -124.5t27 -124.5t81 -41.5t81 41.5t27 124.5z" />
    <glyph glyph-name="ucircumflex" unicode="&#xfb;" horiz-adv-x="611" 
d="M229 773h153l115 -150h-131l-61 82l-62 -82h-128zM541 532v-532h-156v47q-26 -30 -64.5 -45.5t-89.5 -15.5q-80 0 -120.5 38.5t-40.5 114.5v393h156v-348q0 -36 19 -54t57 -18q42 0 62.5 21t20.5 62v337h156z" />
    <glyph glyph-name="ugrave" unicode="&#xf9;" horiz-adv-x="611" 
d="M231 -14zM302 742l99 -150h-120l-160 150h181zM541 532v-532h-156v47q-52 -61 -154 -61q-161 0 -161 153v393h156v-348q0 -72 76 -72q83 0 83 83v337h156z" />
    <glyph glyph-name="otilde" unicode="&#xf5;" horiz-adv-x="630" 
d="M197 629h-71q7 52 37 89q35 43 84 43q29 0 80 -20t64 -20q34 0 43 40h70q-4 -48 -28 -82q-32 -45 -91 -45q-37 0 -83 18.5t-61 18.5q-36 0 -44 -42zM315 426q-64 0 -97 -46q-30 -42 -30 -114t30 -114q33 -46 97 -46t95.5 41.5t31.5 124.5q0 68 -30 109q-34 45 -97 45z
M315 546q127 0 205 -74t78 -206t-78 -206t-205 -74t-205 74t-78 206t78 206t205 74z" />
    <glyph glyph-name="ograve" unicode="&#xf2;" horiz-adv-x="630" 
d="M311 742l99 -150h-120l-160 150h181zM315 426q-64 0 -97 -46q-30 -42 -30 -114t30 -114q33 -46 97 -46t95.5 41.5t31.5 124.5q0 68 -30 109q-34 45 -97 45zM315 546q127 0 205 -74t78 -206t-78 -206t-205 -74t-205 74t-78 206t78 206t205 74z" />
    <glyph glyph-name="ntilde" unicode="&#xf1;" horiz-adv-x="611" 
d="M188 629h-71q7 52 37 89q35 43 84 43q29 0 80 -20t64 -20q34 0 43 40h70q-4 -48 -28 -82q-32 -45 -91 -45q-37 0 -83 18.5t-61 18.5q-36 0 -44 -42zM70 0v532h156v-47q26 31 64.5 46t89.5 15q81 0 121 -38t40 -115v-393h-156v333q0 44 -19 65.5t-57 21.5q-41 0 -62 -22
t-21 -67v-331h-156z" />
    <glyph glyph-name="eth" unicode="&#xf0;" horiz-adv-x="630" 
d="M315 399q-64 0 -97 -43q-30 -39 -30 -107q0 -66 32 -106q35 -43 95 -43q59 0 94 43q33 40 33 106q0 68 -30 107q-33 43 -97 43zM124 695l115 79l91 -59l100 59l56 -49l-97 -56q104 -85 151 -169q58 -103 58 -242q0 -143 -95 -215q-75 -57 -188 -57q-128 0 -204 68
q-79 70 -79 195t79 196q76 68 204 68q37 0 64 -17l2 2q-43 54 -113 101l-96 -56l-56 49l89 51z" />
    <glyph glyph-name="idieresis" unicode="&#xef;" horiz-adv-x="296" 
d="M326 602h-150v126h150v-126zM114 602h-150v126h150v-126zM70 532h156v-532h-156v532z" />
    <glyph glyph-name="igrave" unicode="&#xec;" horiz-adv-x="296" 
d="M144 742l99 -150h-120l-160 150h181zM70 532h156v-532h-156v532z" />
    <glyph glyph-name="ecircumflex" unicode="&#xea;" horiz-adv-x="593" 
d="M220 773h153l115 -150h-131l-61 82l-62 -82h-128zM554 234h-366q1 -70 40 -105q31 -29 76 -29q41 0 70 23q23 18 60 71l117 -61q-79 -147 -258 -147q-121 0 -192 76q-69 72 -69 188q0 140 69.5 218t191.5 78q136 0 203 -94q57 -81 58 -218zM186 330h212q-3 53 -38 80
q-28 22 -68 22q-38 0 -67 -25q-34 -28 -39 -77z" />
    <glyph glyph-name="egrave" unicode="&#xe8;" horiz-adv-x="593" 
d="M292 742l99 -150h-120l-160 150h181zM554 234h-366q1 -70 40 -105q31 -29 76 -29q41 0 70 23q23 18 60 71l117 -61q-79 -147 -258 -147q-121 0 -192 76q-69 72 -69 188q0 140 69.5 218t191.5 78q136 0 203 -94q57 -81 58 -218zM186 330h212q-3 53 -38 80q-28 22 -68 22
q-38 0 -67 -25q-34 -28 -39 -77z" />
    <glyph glyph-name="aring" unicode="&#xe5;" horiz-adv-x="593" 
d="M409 723q0 -46 -33 -79t-79 -33t-79 33t-33 79t33 79t79 33t79 -33t33 -79zM349 723q0 21 -15.5 36.5t-36.5 15.5t-36.5 -16t-15.5 -36t15.5 -36t36.5 -16t36.5 15.5t15.5 36.5zM369 222v37l-105 -30q-75 -21 -75 -69q0 -30 18.5 -45t54.5 -15q48 0 77.5 31.5t29.5 90.5z
M519 392v-281q0 -75 14 -111h-144q-8 25 -12 55q-19 -30 -69 -50q-46 -19 -91 -19q-79 0 -127 41q-51 43 -51 117q0 91 73 138q62 40 200 59l57 8v44q0 29 -18.5 43t-55.5 14q-38 0 -57 -16t-25 -55h-150q5 167 219 167q117 0 173 -32q64 -37 64 -122z" />
    <glyph glyph-name="atilde" unicode="&#xe3;" horiz-adv-x="593" 
d="M179 629h-71q7 52 37 89q35 43 84 43q29 0 80 -20t64 -20q34 0 43 40h70q-4 -48 -28 -82q-32 -45 -91 -45q-37 0 -83 18.5t-61 18.5q-36 0 -44 -42zM369 222v37l-105 -30q-75 -21 -75 -69q0 -30 18.5 -45t54.5 -15q48 0 77.5 31.5t29.5 90.5zM519 392v-281q0 -75 14 -111
h-144q-8 25 -12 55q-19 -30 -69 -50q-46 -19 -91 -19q-79 0 -127 41q-51 43 -51 117q0 91 73 138q62 40 200 59l57 8v44q0 29 -18.5 43t-55.5 14q-38 0 -57 -16t-25 -55h-150q5 167 219 167q117 0 173 -32q64 -37 64 -122z" />
    <glyph glyph-name="agrave" unicode="&#xe0;" horiz-adv-x="593" 
d="M292 742l99 -150h-120l-160 150h181zM369 222v37l-105 -30q-75 -21 -75 -69q0 -30 18.5 -45t54.5 -15q48 0 77.5 31.5t29.5 90.5zM519 392v-281q0 -75 14 -111h-144q-8 25 -12 55q-19 -30 -69 -50q-46 -19 -91 -19q-79 0 -127 41q-51 43 -51 117q0 91 73 138
q62 40 200 59l57 8v44q0 29 -18.5 43t-55.5 14q-38 0 -57 -16t-25 -55h-150q5 167 219 167q117 0 173 -32q64 -37 64 -122z" />
    <glyph glyph-name="Thorn" unicode="&#xde;" horiz-adv-x="704" 
d="M247 505v-218h150q57 0 85 33q25 29 25 75q0 55 -28.5 82.5t-86.5 27.5h-145zM69 0v712h177v-75h176q132 0 197.5 -60t65.5 -181q0 -93 -57 -156q-77 -85 -240 -85h-139v-155h-180z" />
    <glyph glyph-name="Ucircumflex" unicode="&#xdb;" horiz-adv-x="741" 
d="M294 950h153l115 -150h-131l-61 82l-62 -82h-128zM672 712v-464q0 -134 -100 -207q-83 -61 -202 -61q-118 0 -201 61q-100 73 -100 207v464h178v-449q0 -69 31 -104t92 -35q62 0 93 35t31 104v449h178z" />
    <glyph glyph-name="Ugrave" unicode="&#xd9;" horiz-adv-x="741" 
d="M367 950l99 -150h-120l-160 150h181zM672 712v-464q0 -134 -100 -207q-83 -61 -202 -61q-118 0 -201 61q-100 73 -100 207v464h178v-449q0 -69 31 -104t92 -35q62 0 93 35t31 104v449h178z" />
    <glyph glyph-name="Otilde" unicode="&#xd5;" horiz-adv-x="796" 
d="M280 806h-71q7 52 37 89q35 43 84 43q29 0 80 -20t64 -20q34 0 43 40h70q-4 -48 -28 -82q-32 -45 -91 -45q-37 0 -83 18.5t-61 18.5q-36 0 -44 -42zM580 356q0 94 -41 155q-49 71 -141 71q-83 0 -130 -53q-52 -58 -52 -173q0 -92 39 -152q47 -74 143 -74q92 0 141 72
q41 61 41 154zM758 356q0 -157 -95 -263q-101 -113 -265 -113t-265 113q-95 106 -95 263t95 263q101 113 265 113t265 -113q95 -106 95 -263z" />
    <glyph glyph-name="Ograve" unicode="&#xd2;" horiz-adv-x="796" 
d="M394 950l99 -150h-120l-160 150h181zM580 356q0 94 -41 155q-49 71 -141 71q-83 0 -130 -53q-52 -58 -52 -173q0 -92 39 -152q47 -74 143 -74q92 0 141 72q41 61 41 154zM758 356q0 -157 -95 -263q-101 -113 -265 -113t-265 113q-95 106 -95 263t95 263q101 113 265 113
t265 -113q95 -106 95 -263z" />
    <glyph glyph-name="Ntilde" unicode="&#xd1;" horiz-adv-x="741" 
d="M253 806h-71q7 52 37 89q35 43 84 43q29 0 80 -20t64 -20q34 0 43 40h70q-4 -48 -28 -82q-32 -45 -91 -45q-37 0 -83 18.5t-61 18.5q-36 0 -44 -42zM69 0v712h180l261 -455v455h162v-712h-178l-263 448v-448h-162z" />
    <glyph glyph-name="Eth" unicode="&#xd0;" horiz-adv-x="741" 
d="M64 0v312h-71v120h71v280h276q171 0 263 -83q100 -90 100 -273t-100 -273q-92 -83 -263 -83h-276zM242 312v-162h102q91 0 136 51.5t45 154.5t-45 154.5t-136 51.5h-102v-130h133v-120h-133z" />
    <glyph glyph-name="Idieresis" unicode="&#xcf;" horiz-adv-x="316" 
d="M339 810h-150v126h150v-126zM127 810h-150v126h150v-126zM69 0v712h178v-712h-178z" />
    <glyph glyph-name="Igrave" unicode="&#xcc;" horiz-adv-x="316" 
d="M154 950l99 -150h-120l-160 150h181zM69 0v712h178v-712h-178z" />
    <glyph glyph-name="Ecircumflex" unicode="&#xca;" horiz-adv-x="648" 
d="M623 0h-554v712h524v-138h-346v-130h323v-138h-323v-168h376v-138zM247 950h153l115 -150h-131l-61 82l-62 -82h-128z" />
    <glyph glyph-name="Egrave" unicode="&#xc8;" horiz-adv-x="648" 
d="M347 950l99 -150h-120l-160 150h181zM623 0h-554v712h524v-138h-346v-130h323v-138h-323v-168h376v-138z" />
    <glyph glyph-name="Aring" unicode="&#xc5;" horiz-adv-x="722" 
d="M473 900q0 -46 -33 -79t-79 -33t-79 33t-33 79t33 79t79 33t79 -33t33 -79zM413 900q0 21 -15.5 36.5t-36.5 15.5t-36.5 -16t-15.5 -36t15.5 -36t36.5 -16t36.5 15.5t15.5 36.5zM3 0l263 712h184l269 -712h-191l-36 112h-263l-36 -112h-190zM271 244h178l-90 294z" />
    <glyph glyph-name="Atilde" unicode="&#xc3;" horiz-adv-x="722" 
d="M243 806h-71q7 52 37 89q35 43 84 43q29 0 80 -20t64 -20q34 0 43 40h70q-4 -48 -28 -82q-32 -45 -91 -45q-37 0 -83 18.5t-61 18.5q-36 0 -44 -42zM3 0l263 712h184l269 -712h-191l-36 112h-263l-36 -112h-190zM271 244h178l-90 294z" />
    <glyph glyph-name="Agrave" unicode="&#xc0;" horiz-adv-x="722" 
d="M358 950l99 -150h-120l-160 150h181zM3 0l263 712h184l269 -712h-191l-36 112h-263l-36 -112h-190zM271 244h178l-90 294z" />
    <glyph glyph-name="minus" unicode="&#xad;" horiz-adv-x="600" 
d="M553 193h-506v120h506v-120z" />
    <glyph glyph-name="minus" unicode="&#x2212;" horiz-adv-x="600" 
d="M553 193h-506v120h506v-120z" />
    <glyph glyph-name="threesuperior" unicode="&#xb3;" horiz-adv-x="361" 
d="M135 568l-109 4q14 124 157 124q66 0 107.5 -30t41.5 -83q0 -29 -20 -53t-49 -35q42 -11 63 -33.5t21 -57.5q0 -69 -62 -103q-45 -26 -107 -26q-82 0 -123 37.5t-41 112.5l108 6v-13q0 -29 14 -44t42 -15q19 0 34 14t15 35t-15 34.5t-40 13.5h-23v72h21q24 0 36 11t12 33
q0 23 -10 34.5t-30 11.5q-38 0 -43 -50z" />
    <glyph glyph-name="twosuperior" unicode="&#xb2;" horiz-adv-x="361" 
d="M326 365v-84h-308v72q128 97 150 120q44 45 44 101q0 18 -12 31t-24 13q-17 0 -30 -15t-13 -39q0 -21 3 -33l-111 9v23q0 53 34 89q40 44 116 44q63 0 104 -29q47 -34 47 -93q0 -60 -35 -105t-123 -104h158z" />
    <glyph glyph-name="onesuperior" unicode="&#xb9;" horiz-adv-x="361" 
d="M268 690v-409h-114v289q-37 -15 -89 -15v72q87 0 118 63h85z" />
    <glyph glyph-name="threequarters" unicode="&#xbe;" horiz-adv-x="834" 
d="M659 163l-2 144l-106 -144h108zM479 91v77l180 241h108v-246h56v-72h-56v-91h-108v91h-180zM203 -36l415 754h88l-415 -754h-88zM135 568l-109 4q14 124 157 124q66 0 107.5 -30t41.5 -83q0 -29 -20 -53t-49 -35q42 -11 63 -33.5t21 -57.5q0 -69 -62 -103
q-45 -26 -107 -26q-82 0 -123 37.5t-41 112.5l108 6v-13q0 -29 14 -44t42 -15q19 0 34 14t15 35t-15 34.5t-40 13.5h-23v72h21q24 0 36 11t12 33q0 23 -10 34.5t-30 11.5q-38 0 -43 -50z" />
    <glyph glyph-name="onehalf" unicode="&#xbd;" horiz-adv-x="834" 
d="M150 -36l415 754h88l-415 -754h-88zM268 690v-409h-114v289q-37 -15 -89 -15v72q87 0 118 63h85zM801 84v-84h-308v72q128 97 150 120q44 45 44 101q0 18 -12 31t-24 13q-17 0 -30 -15t-13 -39q0 -21 3 -33l-111 9v23q0 53 34 89q40 44 116 44q63 0 104 -29
q47 -34 47 -93q0 -60 -35 -105t-123 -104h158z" />
    <glyph glyph-name="onequarter" unicode="&#xbc;" horiz-adv-x="834" 
d="M659 163l-2 144l-106 -144h108zM479 91v77l180 241h108v-246h56v-72h-56v-91h-108v91h-180zM181 -36l415 754h88l-415 -754h-88zM268 690v-409h-114v289q-37 -15 -89 -15v72q87 0 118 63h85z" />
    <glyph glyph-name="oe" unicode="&#x153;" horiz-adv-x="944" 
d="M912 234h-356q0 -55 34 -91.5t86 -36.5q73 0 117 88l119 -64q-38 -63 -101 -102q-67 -42 -144 -42q-107 0 -189 76q-36 -38 -82 -57t-101 -19q-106 0 -175 56q-88 72 -88 224q0 143 82 217q70 63 181 63q50 0 95.5 -16.5t86.5 -49.5q74 66 175 66q130 0 199 -90
q65 -84 61 -222zM299 426q-60 0 -89 -56q-22 -44 -22 -111q0 -76 28.5 -114.5t84.5 -38.5q53 0 79 42t26 125q0 77 -26.5 115t-80.5 38zM556 330h194q-2 45 -30.5 73.5t-64.5 28.5q-96 0 -99 -102z" />
    <glyph glyph-name="oslash" unicode="&#xf8;" horiz-adv-x="630" 
d="M194 207l213 180q-32 39 -92 39q-64 0 -97 -46q-30 -42 -30 -114q0 -32 6 -59zM590 542l42 -47l-78 -65q44 -69 44 -164q0 -132 -78 -206t-205 -74q-125 0 -201 71l-74 -63l-42 47l76 64q-42 67 -42 161q0 132 78 206t205 74q122 0 199 -69zM435 329l-213 -181
q33 -42 93 -42q64 0 95.5 41.5t31.5 124.5q0 33 -7 57z" />
    <glyph glyph-name="dotlessi" unicode="&#x131;" horiz-adv-x="296" 
d="M70 532h156v-532h-156v532z" />
    <glyph glyph-name="ae" unicode="&#xe6;" horiz-adv-x="907" 
d="M363 222v35l-104 -28q-71 -22 -71 -64q0 -27 17.5 -43t45.5 -16q55 0 86 40q26 33 26 76zM519 330h194q-2 45 -30.5 73.5t-64.5 28.5q-96 0 -99 -102zM875 234h-356q0 -55 34 -91.5t86 -36.5q73 0 117 88l119 -64q-38 -63 -101 -102q-67 -42 -144 -42q-57 0 -100 17.5
t-93 61.5q-43 -39 -96.5 -59t-116.5 -20q-79 0 -133 41q-59 44 -59 121q0 74 44 118.5t131 58.5l157 26q9 81 -79 81q-67 0 -70 -58h-156q12 172 209 172q112 0 181 -57q77 57 166 57q130 0 199 -90q65 -84 61 -222z" />
    <glyph glyph-name="ordmasculine" unicode="&#xba;" horiz-adv-x="400" 
d="M49 545q0 62 44.5 106.5t106.5 44.5t106.5 -44.5t44.5 -106.5t-44.5 -106.5t-106.5 -44.5t-106.5 44.5t-44.5 106.5zM115 545q0 -35 25 -60t60 -25t60 25t25 60t-25 60t-60 25t-60 -25t-25 -60z" />
    <glyph glyph-name="OE" unicode="&#x152;" horiz-adv-x="1111" 
d="M1043 712v-138h-358v-130h335v-138h-335v-168h388v-138h-566v23q-47 -29 -137 -29q-149 0 -239 93q-93 95 -93 256q0 175 90 275t241 100q41 0 75.5 -9t62.5 -27v30h536zM507 159v391q-21 15 -46 22.5t-54 7.5q-95 0 -143 -56t-48 -168q0 -105 50 -166q47 -58 127 -58
q64 0 114 27z" />
    <glyph glyph-name="Oslash" unicode="&#xd8;" horiz-adv-x="796" 
d="M566 451l-295 -267q44 -54 127 -54q92 0 141 72q41 61 41 154q0 54 -14 95zM231 257l296 268q-47 57 -129 57q-83 0 -130 -53q-52 -58 -52 -173q0 -55 15 -99zM736 714l55 -59l-92 -84q59 -93 59 -215q0 -157 -95 -263q-101 -113 -265 -113q-150 0 -247 95l-89 -81
l-57 58l94 86q-61 95 -61 218q0 157 95 263q101 113 265 113q152 0 250 -98z" />
    <glyph glyph-name="ordfeminine" unicode="&#xaa;" horiz-adv-x="385" 
d="M247 526l-72 -18q-47 -12 -47 -42q0 -20 11.5 -30t34.5 -10q32 0 53.5 23t21.5 59zM344 603v-168q0 -44 9 -67h-95q-5 22 -7 37q-9 -20 -42 -33q-29 -12 -56 -12q-53 0 -87 24.5t-34 69.5q0 70 77 99q25 9 139 27v14q0 21 -12 31.5t-37 10.5q-46 0 -54 -38h-96
q3 68 72 89q31 9 76 9q71 0 105 -18q42 -22 42 -75z" />
    <glyph glyph-name="AE" unicode="&#xc6;" horiz-adv-x="1130" 
d="M-17 0l418 712h669v-138h-366v-130h342v-138h-342v-168h401v-138h-578v174h-251l-94 -174h-199zM351 306h175l-2 310z" />
    <glyph glyph-name="ring" unicode="&#x2da;" horiz-adv-x="278" 
d="M251 692q0 -46 -33 -79t-79 -33t-79 33t-33 79t33 79t79 33t79 -33t33 -79zM191 692q0 21 -15.5 36.5t-36.5 15.5t-36.5 -16t-15.5 -36t15.5 -36t36.5 -16t36.5 15.5t15.5 36.5z" />
    <glyph glyph-name="macron" unicode="&#xaf;" horiz-adv-x="278" 
d="M302 628h-326v84h326v-84z" />
    <glyph glyph-name="macron" unicode="&#x2c9;" horiz-adv-x="278" 
d="M302 628h-326v84h326v-84z" />
    <glyph glyph-name="tilde" unicode="&#x2dc;" horiz-adv-x="278" 
d="M21 598h-71q7 52 37 89q35 43 84 43q29 0 80 -20t64 -20q34 0 43 40h70q-4 -48 -28 -82q-32 -45 -91 -45q-37 0 -83 18.5t-61 18.5q-36 0 -44 -42z" />
    <glyph glyph-name="circumflex" unicode="&#x2c6;" horiz-adv-x="278" 
d="M62 742h153l115 -150h-131l-61 82l-62 -82h-128z" />
    <glyph glyph-name="questiondown" unicode="&#xbf;" horiz-adv-x="611" 
d="M279 287h126v-31q0 -51 -50 -94q-45 -33 -91 -67q-50 -41 -50 -88q0 -39 29 -60q26 -19 66 -19q52 0 84.5 35t34.5 89l141 -47q-55 -191 -264 -191q-135 0 -205 58q-58 49 -58 124q0 86 82 147l128 95q24 18 27 49zM261 532h162v-168h-162v168z" />
    <glyph glyph-name="fl" unicode="&#xf002;" horiz-adv-x="630" 
d="M404 0v712h156v-712h-156zM90 0v426h-82v96h82v52q0 146 152 146q68 0 102 -12v-114h-44q-54 0 -54 -38v-34h96v-96h-96v-426h-156z" />
    <glyph glyph-name="fi" unicode="&#xf001;" horiz-adv-x="630" 
d="M404 592v120h156v-120h-156zM404 0v532h156v-532h-156zM90 0v426h-82v96h82v52q0 146 152 146q68 0 102 -12v-114h-44q-54 0 -54 -38v-34h96v-96h-96v-426h-156z" />
    <glyph glyph-name="florin" unicode="&#x192;" 
d="M506 678l-18 -129q-23 9 -47 9q-67 0 -78 -87l-12 -94h122l-12 -102h-123l-29 -246q-25 -215 -185 -215q-57 0 -94 18l14 129q16 -11 47 -9q59 4 66 62l33 261h-111l14 102h110l22 171q10 80 74 120q45 28 95 28q60 0 112 -18z" />
    <glyph glyph-name="yen" unicode="&#xa5;" 
d="M197 0v141h-149v102h149v73h-149v102h88l-159 264h200l101 -246l101 246h200l-159 -264h88v-102h-149v-73h149v-102h-149v-141h-162z" />
    <glyph glyph-name="fraction" unicode="&#x2044;" horiz-adv-x="167" 
d="M-168 -36l415 754h88l-415 -754h-88z" />
    <glyph glyph-name="sterling" unicode="&#xa3;" 
d="M52 273v104h78q-68 66 -68 139q0 79 65 129.5t165 50.5q99 0 162 -47q70 -53 70 -151v-42h-148v25q0 45 -18.5 67t-56.5 22q-35 0 -56 -18t-21 -47q0 -27 18 -68q13 -30 27 -60h125v-102h-99q7 -28 7 -57q0 -34 -25 -79q51 -27 80 -27q24 0 36 17t12 50v25h138v-37
q0 -57 -27 -108q-39 -73 -117 -73q-86 0 -158 59q-35 -59 -117 -59q-49 0 -80 28t-31 76t28 80.5t80 32.5q30 0 67 -22q0 73 -16 92h-120zM121 125q-15 0 -22.5 -10t-7.5 -30q0 -13 7 -20t21 -7q33 0 53 41q-23 26 -51 26z" />
    <glyph glyph-name="cent" unicode="&#xa2;" 
d="M261 -132v121q-105 11 -167 83.5t-62 193.5q0 118 66 194q62 72 163 83v105h90v-105q126 -20 184 -127l-120 -63q-34 73 -100 73q-60 0 -90.5 -40t-30.5 -120q0 -72 29 -114q32 -46 92 -46q79 0 111 78l112 -57q-65 -115 -187 -136v-123h-90z" />
    <glyph glyph-name="exclamdown" unicode="&#xa1;" horiz-adv-x="296" 
d="M115 290h66l48 -258v-212h-162v212zM67 532h162v-168h-162v168z" />
    <glyph glyph-name="Euro" unicode="&#x20ac;" 
d="M222 429h278l-44 -56h-240l-1 -23l1 -24h222l-40 -56h-176q27 -171 156 -171q38 0 65.5 15.5t70.5 60.5v-144q-70 -48 -147 -48q-120 0 -192 73.5t-89 213.5h-84l53 56h27q-1 7 -1 24q0 16 1 23h-81l54 56h32q44 289 276 289q124 0 214 -100l-75 -94q-67 76 -133 76
q-124 0 -147 -171z" />
    <glyph glyph-name="nonmarkingreturn" horiz-adv-x="278" 
 />
    <glyph glyph-name="nonbreakingspace" unicode="&#xa0;" horiz-adv-x="278" 
 />
    <glyph glyph-name="infinity" unicode="&#x221e;" horiz-adv-x="713" 
d="M357 297q117 107 190 107q58 0 100 -40t42 -98q0 -56 -39.5 -99t-95.5 -43q-55 0 -108 34q-24 16 -89 73q-67 -58 -89 -73q-53 -34 -108 -34q-56 0 -95.5 43t-39.5 99q0 58 42 98t100 40q73 0 190 -107zM324 264q-104 88 -158 88q-38 0 -64 -27.5t-26 -65.5q0 -37 28 -62
t66 -25q41 0 85 31q24 17 69 61zM390 264q45 -44 69 -61q44 -31 85 -31q38 0 66 25t28 62q0 38 -26 65.5t-64 27.5q-54 0 -158 -88z" />
    <glyph glyph-name="product" unicode="&#x220f;" horiz-adv-x="823" 
d="M706 629v-626q0 -47 26 -66q22 -15 71 -15v-23h-306v23q50 0 71 15q25 18 25 66v693h-358v-693q0 -47 26 -66q22 -15 71 -15v-23h-307v23q49 0 71 15q26 19 26 66v626q0 99 -95 99v23h773v-23q-94 0 -94 -99z" />
    <glyph glyph-name="pi" unicode="&#x3c0;" horiz-adv-x="549" 
d="M335 401h-113q-8 -90 -15 -180q-11 -104 -33 -177q-19 -63 -63 -63q-23 0 -38.5 15.5t-15.5 38.5q0 17 36 64.5t39 72.5l29 229h-47q-30 0 -52 -19q-12 -11 -35 -44h-17q24 67 47 99q37 50 92 50h373v-86h-126q-12 -117 -12 -235q0 -35 15 -60q18 -30 50 -30q31 0 45 24
q8 14 15 51h21q-1 -63 -29 -110q-33 -57 -91 -57q-53 0 -78 69q-18 49 -18 114q0 38 21 234z" />
    <glyph glyph-name="integral" unicode="&#x222b;" horiz-adv-x="274" 
d="M190 488q0 -225 -4 -298q-13 -220 -60 -272q-23 -25 -64 -25q-23 0 -41.5 18.5t-18.5 41.5q0 17 13.5 30.5t30.5 13.5q13 0 31.5 -16.5t22.5 -16.5q26 0 26 98q0 49 -3 146t-3 146v221q0 131 11 198q22 143 92 143q27 0 47.5 -15t20.5 -41q0 -19 -16 -31.5t-35 -12.5
q-13 0 -29.5 12t-21.5 12q-18 0 -18 -28q0 -14 8 -111q11 -134 11 -213z" />
    <glyph glyph-name="Omega" unicode="&#x3a9;" horiz-adv-x="768" 
d="M313 152l16 -152h-295v162h15q8 -34 19 -46q14 -15 47 -15h158l-2 28q-101 30 -157 96q-60 71 -60 173q0 135 100 216q93 74 231 74t231 -74q100 -81 100 -216q0 -102 -60 -173q-56 -66 -157 -96l-2 -28h158q33 0 47 15q11 12 19 46h15v-162h-295l16 152q82 36 114 99
q28 54 28 151q0 113 -49 179q-56 75 -165 75t-165 -75q-49 -66 -49 -179q0 -97 28 -151q32 -63 114 -99z" />
    <glyph glyph-name="Omega" unicode="&#x2126;" horiz-adv-x="768" 
d="M313 152l16 -152h-295v162h15q8 -34 19 -46q14 -15 47 -15h158l-2 28q-101 30 -157 96q-60 71 -60 173q0 135 100 216q93 74 231 74t231 -74q100 -81 100 -216q0 -102 -60 -173q-56 -66 -157 -96l-2 -28h158q33 0 47 15q11 12 19 46h15v-162h-295l16 152q82 36 114 99
q28 54 28 151q0 113 -49 179q-56 75 -165 75t-165 -75q-49 -66 -49 -179q0 -97 28 -151q32 -63 114 -99z" />
    <glyph glyph-name="approxequal" unicode="&#x2248;" horiz-adv-x="549" 
d="M490 394l37 -24q-21 -36 -59.5 -57.5t-81.5 -21.5q-40 0 -115.5 27.5t-115.5 27.5q-33 0 -57 -17q-15 -11 -41 -43l-43 27q60 79 144 79q39 0 113.5 -26t113.5 -26q69 0 105 54zM490 243l37 -24q-21 -36 -59.5 -57.5t-81.5 -21.5q-40 0 -115.5 27.5t-115.5 27.5
q-33 0 -57 -17q-15 -11 -41 -43l-43 27q60 79 144 79q39 0 113.5 -26t113.5 -26q69 0 105 54z" />
    <glyph glyph-name="approxequal" unicode="&#x22f2;" horiz-adv-x="549" 
d="M490 394l37 -24q-21 -36 -59.5 -57.5t-81.5 -21.5q-40 0 -115.5 27.5t-115.5 27.5q-33 0 -57 -17q-15 -11 -41 -43l-43 27q60 79 144 79q39 0 113.5 -26t113.5 -26q69 0 105 54zM490 243l37 -24q-21 -36 -59.5 -57.5t-81.5 -21.5q-40 0 -115.5 27.5t-115.5 27.5
q-33 0 -57 -17q-15 -11 -41 -43l-43 27q60 79 144 79q39 0 113.5 -26t113.5 -26q69 0 105 54z" />
    <glyph glyph-name="leftcommaaccent" unicode="&#x312;" horiz-adv-x="250" 
d="M187 868v-59q-50 -13 -50 -82h53v-135h-130v135q0 116 127 141z" />
    </font>
</defs>
</svg>
