<?xml version="1.0" encoding="UTF-8"?>
<svg width="27px" height="16px" viewBox="0 0 27 16" version="1.1" xmlns="http://www.w3.org/2000/svg" xmlns:xlink="http://www.w3.org/1999/xlink">
    <!-- Generator: Sketch 39.1 (31720) - http://www.bohemiancoding.com/sketch -->
    <title>Shape</title>
    <desc>Created with Sketch.</desc>
    <defs></defs>
    <g id="Page-1" stroke="none" stroke-width="1" fill="none" fill-rule="evenodd">
        <g id="Desktop-Copy-5" transform="translate(-57.000000, -356.000000)" fill="#FFFFFF">
            <g id="noun_711847_cc" transform="translate(70.000000, 364.000000) rotate(-270.000000) translate(-70.000000, -364.000000) translate(62.000000, 350.000000)">
                <g id="Group" transform="translate(0.000000, 0.277760)">
                    <path d="M8.30654889,26.1781984 L15.8620822,19.2103694 C16.0417267,19.0417065 16.0430156,18.7534597 15.8829711,18.5910677 C15.7203489,18.4260194 15.4218156,18.4139129 15.2509267,18.5706 L8.44539333,24.8443548 L8.44539333,0.593255323 C8.44539333,0.352737581 8.24641556,0.157771452 8.00094889,0.157771452 C7.75548222,0.157771452 7.55650444,0.352737581 7.55650444,0.593255323 L7.55650444,24.8443548 L0.750948889,18.5706 C0.58006,18.4137823 0.278904444,18.42345 0.118904444,18.5910677 C-0.0410955556,18.7585548 -0.0450511111,19.0280758 0.139793333,19.2103694 L7.69534889,26.1781984 C7.90334889,26.3438129 8.15828222,26.3002645 8.30654889,26.1781984 L8.30654889,26.1781984 Z" id="Shape"></path>
                </g>
            </g>
        </g>
    </g>
</svg>